<svg width="102" height="102" viewBox="0 0 102 102" fill="none" xmlns="http://www.w3.org/2000/svg">
<path fill-rule="evenodd" clip-rule="evenodd" d="M51.34 9.51333V18.2435V24.9196V33.1362C55.9645 33.9921 65.2133 33.547 65.2133 24.9196V23.8925C64.1857 24.0637 62.1304 23.6871 62.1304 20.8112C62.1304 18.0819 63.9817 17.6037 65.0488 17.7084C65.1585 17.7191 65.2682 17.7191 65.3779 17.7084C66.445 17.6037 68.2963 18.0819 68.2963 20.8112C68.2963 23.6871 66.241 24.0637 65.2133 23.8925V24.9196C65.2133 33.547 55.9645 33.9921 51.34 33.1362V45.4612C60.2464 46.4882 78.059 45.5639 78.059 33.6497C77.0313 33.8209 74.976 33.4443 74.976 30.5685C74.976 27.9073 76.736 27.3862 77.813 27.4589C77.9756 27.4699 78.1387 27.4568 78.2978 27.4213C79.3741 27.1814 81.1419 27.5204 81.1419 30.5685C81.1419 33.8552 79.0866 33.9921 78.059 33.6497C78.059 45.5639 60.2464 46.4882 51.34 45.4612V57.7861C60.2464 57.1014 78.059 58.197 78.059 68.0569V69.5975C79.0866 69.5975 81.1419 70.2138 81.1419 72.6788C81.1419 75.1438 79.0866 75.76 78.059 75.76C77.0313 75.76 74.976 75.1438 74.976 72.6788C74.976 70.2138 77.0313 69.5975 78.059 69.5975V68.0569C78.059 58.197 60.2464 57.1014 51.34 57.7861V70.1111C55.6219 69.084 64.3912 69.2894 65.2133 78.3277V79.8683C66.241 79.6972 68.2963 80.0738 68.2963 82.9496C68.2963 85.679 66.445 86.1572 65.3779 86.0525C65.2682 86.0417 65.1585 86.0417 65.0488 86.0525C63.9817 86.1572 62.1304 85.679 62.1304 82.9496C62.1304 80.0738 64.1857 79.6972 65.2133 79.8683V78.3277C64.3912 69.2894 55.6219 69.084 51.34 70.1111V91.1662C53.2241 94.5898 58.8419 101.232 66.241 100.41C75.0313 99.4338 80.5726 93.355 80.6594 87.0231C80.6595 87.0143 80.6596 87.0056 80.6597 86.9968C80.6658 86.4577 81.0534 85.9842 81.5856 85.8981C81.5934 85.8969 81.6013 85.8956 81.6092 85.8943L81.6111 85.894C83.2366 85.6292 85.6177 85.0704 87.0266 84.1708L87.0292 84.1691C87.0308 84.1681 87.0323 84.1672 87.0339 84.1662C87.216 84.0495 87.4253 83.9817 87.6405 83.9599C87.6422 83.9598 87.644 83.9596 87.6457 83.9594L87.6503 83.9589C89.8284 83.7323 91.3107 81.3885 91.8634 80.0435C91.8639 80.0422 91.8644 80.041 91.8649 80.0397C91.9111 79.9271 91.9738 79.8218 92.0534 79.7296C92.0554 79.7273 92.0574 79.725 92.0594 79.7226C96.9705 74.0254 94.2729 69.0958 91.2679 66.3933C91.2527 66.3796 91.2375 66.3661 91.2223 66.3525C90.5677 65.7693 90.7434 64.5619 91.5604 64.2439C91.583 64.2351 91.6056 64.2263 91.628 64.2174C105.067 58.9361 101.874 44.8141 95.5291 42.2804C103.106 34.5156 95.8635 27.2063 89.8549 26.4933C89.8419 26.4918 89.8288 26.4902 89.8157 26.4887C89.1112 26.4084 88.5646 25.7204 88.728 25.0305C88.7317 25.0149 88.7354 24.9992 88.7391 24.9836C91.2327 14.3408 82.3309 12.103 77.1093 12.5946C77.1163 10.6556 76.5327 8.94214 76.0037 7.97274C75.1473 5.91857 71.5848 1.60481 64.1857 0.783151C56.7866 -0.0385134 52.539 6.26091 51.34 9.51333ZM66.241 93.2204C66.241 92.664 65.9269 92.3902 65.6177 92.2714C65.3702 92.1763 65.108 92.2986 64.9205 92.486L64.8934 92.5131C64.5026 92.9036 64.5026 93.5371 64.8934 93.9277L64.9205 93.9548C65.108 94.1422 65.3702 94.2645 65.6177 94.1694C65.9269 94.0506 66.241 93.7768 66.241 93.2204ZM73.9484 51.6236C73.9484 51.0673 73.6342 50.7934 73.325 50.6746C73.0776 50.5795 72.8154 50.7018 72.6279 50.8893L72.6008 50.9163C72.21 51.3069 72.21 51.9404 72.6008 52.3309L72.6279 52.358C72.8154 52.5454 73.0776 52.6678 73.325 52.5727C73.6342 52.4538 73.9484 52.18 73.9484 51.6236ZM83.7108 52.1375C83.9947 51.8537 83.9947 51.3935 83.7108 51.1098C83.4271 50.8263 82.9674 50.8263 82.6837 51.1098C82.3998 51.3935 82.3998 51.8537 82.6837 52.1375C82.9674 52.421 83.4271 52.421 83.7108 52.1375ZM65.7269 10.5407C66.0108 10.257 66.0108 9.79681 65.7269 9.51308C65.4432 9.22957 64.9835 9.22957 64.6998 9.51308C64.4159 9.79681 64.4159 10.257 64.6998 10.5407C64.9835 10.8242 65.4432 10.8242 65.7269 10.5407Z" fill="url(#paint0_linear_8_37)"/>
<path d="M51.34 18.2435V9.51333C50.8262 6.94562 47.435 1.60479 37.9806 0.783151C29.2016 0.0202109 25.9458 6.87313 25.2511 11.1454C25.2499 11.153 25.2487 11.1606 25.2475 11.1681C25.1649 11.6816 24.7349 12.0811 24.2149 12.0811H24.1894H22.6533H22.6509C22.5943 12.0811 22.5378 12.0758 22.4817 12.0681C22.481 12.068 22.4802 12.0679 22.4794 12.0678C21.5607 11.9423 19.3014 12.0875 16.9137 13.6217C14.0417 15.6478 9.43673 20.8717 13.651 25.7448C13.7652 25.8769 13.9163 25.9735 14.0789 26.0375C15.0764 26.4298 16.8137 27.3855 17.9484 28.0096C18.2025 28.1494 18.4263 28.2725 18.6049 28.369C18.7697 28.4088 18.8933 28.4578 18.9692 28.5143C19.1694 28.6635 18.9955 28.58 18.6049 28.369C15.7925 27.6901 0.986562 29.6964 6.55966 42.6093C6.5774 42.6504 6.59997 42.687 6.61765 42.7157C6.64328 42.7573 6.65868 42.7823 6.6344 42.7804C6.63562 42.7831 6.63685 42.7859 6.63807 42.7887C6.64985 42.7947 6.6591 42.8002 6.66498 42.8048C6.68144 42.8179 6.64658 42.8079 6.63807 42.7887C6.62379 42.7814 6.60578 42.7733 6.58562 42.765C6.51706 42.7367 6.47098 42.75 6.43529 42.787C6.52534 42.8378 6.53525 42.9657 6.45146 43.0263C6.35935 43.0929 6.26698 43.1613 6.17446 43.2315C1.1532 47.0406 -4.2706 56.0623 11.184 64.4197C11.234 64.4468 11.2924 64.4621 11.3492 64.4621C11.7111 64.4621 11.878 65.039 11.601 65.2719C9.94556 66.6633 8.06422 69.4316 8.68148 73.6271L8.69333 73.7059C8.69333 73.7312 8.69345 73.757 8.69367 73.7832C8.70645 75.2693 9.08693 78.2077 10.4978 79.2042C10.4999 79.2057 10.502 79.2072 10.5041 79.2087C10.6567 79.3156 10.7994 79.4396 10.902 79.5951C10.9032 79.597 10.9044 79.5989 10.9057 79.6007C12.4185 81.8915 16.5029 86.0308 22.0528 86.0308C19.9975 95.7881 36.9537 110.681 51.34 91.1662V70.1111V57.7861V45.4612V33.1362V24.9196V18.2435Z" fill="url(#paint1_linear_8_37)"/>
<path d="M51.34 18.2435C51.34 14.8342 51.34 9.51333 51.34 9.51333M51.34 18.2435V24.9196M51.34 18.2435V9.51333M51.34 9.51333C52.539 6.26091 56.7866 -0.0385134 64.1857 0.783151C71.5848 1.60481 75.1473 5.91857 76.0037 7.97274C76.5327 8.94214 77.1163 10.6556 77.1093 12.5946M51.34 9.51333C50.8262 6.94562 47.435 1.60479 37.9806 0.783151C29.2016 0.0202109 25.9458 6.87313 25.2511 11.1454M74.976 18.2435C76.5715 16.4496 77.1026 14.4219 77.1093 12.5946M77.1093 12.5946C82.3309 12.103 91.2327 14.3408 88.7391 24.9836M92.4461 44.9476C93.6666 44.0327 94.6872 43.1432 95.5291 42.2804M95.5291 42.2804C103.106 34.5156 95.8635 27.2063 89.8549 26.4933M95.5291 42.2804C101.874 44.8141 105.067 58.9361 91.628 64.2174M51.34 24.9196C51.34 28.1284 51.34 33.1362 51.34 33.1362M51.34 24.9196V33.1362M51.34 91.1662C53.2241 94.5898 58.8419 101.232 66.241 100.41C75.0313 99.4338 80.5726 93.355 80.6594 87.0231M51.34 91.1662V70.1111M51.34 91.1662C36.9537 110.681 19.9975 95.7881 22.0528 86.0308M51.34 70.1111C55.6219 69.084 64.3912 69.2894 65.2133 78.3277V79.8683M51.34 70.1111V57.7861M65.2133 79.8683C64.1857 79.6972 62.1304 80.0738 62.1304 82.9496C62.1304 85.679 63.9817 86.1572 65.0488 86.0525C65.1585 86.0417 65.2682 86.0417 65.3779 86.0525C66.445 86.1572 68.2963 85.679 68.2963 82.9496C68.2963 80.0738 66.241 79.6972 65.2133 79.8683ZM51.34 57.7861C60.2464 57.1014 78.059 58.197 78.059 68.0569V69.5975M51.34 57.7861V45.4612M78.059 69.5975C79.0866 69.5975 81.1419 70.2138 81.1419 72.6788C81.1419 75.1438 79.0866 75.76 78.059 75.76C77.0313 75.76 74.976 75.1438 74.976 72.6788C74.976 70.2138 77.0313 69.5975 78.059 69.5975ZM51.34 33.1362C55.9645 33.9921 65.2133 33.547 65.2133 24.9196V23.8925M51.34 33.1362V45.4612M65.2133 23.8925C66.241 24.0637 68.2963 23.6871 68.2963 20.8112C68.2963 18.0819 66.445 17.6037 65.3779 17.7084C65.2682 17.7191 65.1585 17.7191 65.0488 17.7084C63.9817 17.6037 62.1304 18.0819 62.1304 20.8112C62.1304 23.6871 64.1857 24.0637 65.2133 23.8925ZM51.34 45.4612C60.2464 46.4882 78.059 45.5639 78.059 33.6497M78.059 33.6497C79.0866 33.9921 81.1419 33.8552 81.1419 30.5685C81.1419 27.5204 79.3741 27.1814 78.2978 27.4213C78.1387 27.4568 77.9756 27.4699 77.813 27.4589C76.736 27.3862 74.976 27.9073 74.976 30.5685C74.976 33.4443 77.0313 33.8209 78.059 33.6497ZM40.0359 16.7029C40.3784 18.0724 39.5221 21.7356 33.3562 25.4331M8.69333 73.7059C8.68928 73.6796 8.68533 73.6533 8.68148 73.6271M8.69333 73.7059C8.69333 73.7312 8.69345 73.7569 8.69367 73.7832M8.69333 73.7059L8.68148 73.6271M22.0528 86.0308C22.0528 83.9767 23.7656 81.409 24.6219 80.3819M22.0528 86.0308C16.5029 86.0308 12.4185 81.8915 10.9057 79.6007M40.0367 81.9225C37.8101 80.8954 33.357 77.0952 33.357 70.1111M35.4123 56.759C36.7825 56.9302 39.6256 55.6293 40.0367 49.0559M28.2187 39.8122C24.9645 40.4969 18.456 43.7151 18.456 51.1101M88.7391 24.9836C88.5729 25.6926 89.1314 26.4075 89.8549 26.4933M88.7391 24.9836C88.7354 24.9992 88.7317 25.0149 88.728 25.0305C88.5646 25.7204 89.1112 26.4084 89.8157 26.4887C89.8288 26.4902 89.8419 26.4918 89.8549 26.4933M91.628 64.2174C90.7897 64.5469 90.5983 65.7911 91.2679 66.3933M91.628 64.2174C91.6056 64.2263 91.583 64.2351 91.5604 64.2439C90.7434 64.5619 90.5677 65.7693 91.2223 66.3525C91.2375 66.3661 91.2527 66.3796 91.2679 66.3933M91.2679 66.3933C94.2728 69.0958 96.9705 74.0254 92.0594 79.7226M92.0594 79.7226C91.9777 79.8174 91.9109 79.9278 91.8634 80.0435M92.0594 79.7226C92.0574 79.725 92.0554 79.7273 92.0534 79.7296C91.9738 79.8218 91.9111 79.9271 91.8649 80.0397C91.8644 80.041 91.8639 80.0422 91.8634 80.0435M91.8634 80.0435C91.3107 81.3885 89.8284 83.7323 87.6503 83.9589L87.6457 83.9594M80.6594 87.0231C80.667 86.4701 81.0633 85.9842 81.6092 85.8943M80.6594 87.0231C80.6595 87.0143 80.6596 87.0056 80.6597 86.9968C80.6658 86.4577 81.0534 85.9842 81.5856 85.8981C81.5934 85.8969 81.6013 85.8956 81.6092 85.8943M10.9057 79.6007C10.8002 79.441 10.6542 79.3147 10.4978 79.2042M10.9057 79.6007C10.9044 79.5989 10.9032 79.597 10.902 79.5951C10.7994 79.4396 10.6567 79.3156 10.5041 79.2087C10.502 79.2072 10.4999 79.2057 10.4978 79.2042M10.4978 79.2042C9.08693 78.2077 8.70645 75.2693 8.69367 73.7832M8.69367 73.7832C8.69322 73.7309 8.68909 73.6788 8.68148 73.6271M8.68148 73.6271C8.06422 69.4316 9.94556 66.6633 11.601 65.2719M11.601 65.2719C11.8783 65.0388 11.7116 64.4621 11.3492 64.4621M11.601 65.2719V65.2719C11.878 65.039 11.7111 64.4621 11.3492 64.4621V64.4621M11.3492 64.4621C11.2924 64.4621 11.234 64.4468 11.184 64.4197M11.3492 64.4621V64.4621C11.2924 64.4621 11.2364 64.4481 11.1864 64.421C11.1856 64.4206 11.1848 64.4202 11.184 64.4197M11.184 64.4197C-4.2706 56.0623 1.1532 47.0406 6.17446 43.2315M11.184 64.4197V64.4197ZM6.17446 43.2315C6.26061 43.1661 6.30472 43.0569 6.34427 42.959C6.37242 42.8894 6.39825 42.8254 6.43529 42.787M6.17446 43.2315C6.26698 43.1613 6.35935 43.0929 6.45146 43.0263C6.53525 42.9657 6.52534 42.8378 6.43529 42.787V42.787M6.58562 42.765C6.60578 42.7733 6.62379 42.7814 6.63807 42.7887M6.58562 42.765C6.51706 42.7367 6.47098 42.75 6.43529 42.787M6.58562 42.765C6.43043 42.7011 6.14675 42.6241 6.43529 42.787M6.58562 42.765C6.60919 42.7747 6.62486 42.7796 6.6344 42.7804M6.55966 42.6093C0.986562 29.6964 15.7925 27.6901 18.6049 28.369M6.55966 42.6093C6.5774 42.6504 6.59996 42.687 6.61765 42.7157C6.64328 42.7573 6.65868 42.7823 6.6344 42.7804M6.55966 42.6093C6.58418 42.6661 6.60909 42.7231 6.6344 42.7804M18.6049 28.369C18.4263 28.2725 18.2025 28.1494 17.9484 28.0096C16.8137 27.3855 15.0764 26.4298 14.0789 26.0375M18.6049 28.369C18.9955 28.58 19.1694 28.6635 18.9692 28.5143C18.8933 28.4578 18.7697 28.4088 18.6049 28.369ZM14.0789 26.0375C13.9163 25.9735 13.7652 25.8769 13.651 25.7448M14.0789 26.0375C14.0773 26.0368 14.0757 26.0362 14.0741 26.0356C13.9159 25.9735 13.7696 25.8817 13.6583 25.7533C13.6559 25.7505 13.6534 25.7476 13.651 25.7448M13.651 25.7448C9.43673 20.8717 14.0417 15.6478 16.9137 13.6217C19.3014 12.0875 21.5607 11.9423 22.4794 12.0678M22.4794 12.0678C22.5371 12.0757 22.5951 12.0811 22.6533 12.0811M22.4794 12.0678C22.4802 12.0679 22.481 12.068 22.4817 12.0681C22.5378 12.0758 22.5943 12.0811 22.6509 12.0811H22.6533M22.6533 12.0811H24.1894M24.1894 12.0811C24.7238 12.0811 25.1654 11.6727 25.2511 11.1454M24.1894 12.0811H24.2149C24.7349 12.0811 25.1649 11.6816 25.2475 11.1681C25.2487 11.1606 25.2499 11.153 25.2511 11.1454M81.6092 85.8943L81.6111 85.894C83.2366 85.6292 85.6177 85.0704 87.0266 84.1708L87.0292 84.1691M87.6457 83.9594C87.4272 83.9828 87.2147 84.0514 87.0292 84.1691M87.6457 83.9594C87.644 83.9596 87.6422 83.9598 87.6405 83.9599C87.4253 83.9817 87.216 84.0495 87.0339 84.1662C87.0323 84.1671 87.0308 84.1681 87.0292 84.1691M6.6344 42.7804C6.63562 42.7831 6.63685 42.7859 6.63807 42.7887M6.63807 42.7887C6.64985 42.7947 6.6591 42.8002 6.66498 42.8048C6.68144 42.8179 6.64658 42.8079 6.63807 42.7887V42.7887ZM66.241 93.2204C66.241 92.664 65.9269 92.3902 65.6177 92.2714C65.3702 92.1763 65.108 92.2986 64.9205 92.486L64.8934 92.5131C64.5026 92.9037 64.5026 93.5371 64.8934 93.9277L64.9205 93.9548C65.108 94.1422 65.3702 94.2645 65.6177 94.1694C65.9269 94.0506 66.241 93.7768 66.241 93.2204ZM73.9484 51.6236C73.9484 51.0673 73.6342 50.7934 73.325 50.6746C73.0776 50.5795 72.8154 50.7018 72.6279 50.8893L72.6008 50.9163C72.21 51.3069 72.21 51.9404 72.6008 52.3309L72.6279 52.358C72.8154 52.5454 73.0776 52.6678 73.325 52.5727C73.6342 52.4538 73.9484 52.18 73.9484 51.6236ZM64.6998 10.5407V10.5407C64.9835 10.8242 65.4432 10.8242 65.7269 10.5407V10.5407C66.0108 10.257 66.0108 9.79681 65.7269 9.51308V9.51308C65.4432 9.22957 64.9835 9.22957 64.6998 9.51308V9.51308C64.4159 9.79681 64.4159 10.257 64.6998 10.5407ZM82.6837 52.1375V52.1375C82.9674 52.421 83.4271 52.421 83.7108 52.1375V52.1375C83.9947 51.8537 83.9947 51.3935 83.7108 51.1098V51.1098C83.4271 50.8263 82.9674 50.8263 82.6837 51.1098V51.1098C82.3998 51.3935 82.3998 51.8537 82.6837 52.1375Z" stroke="black" stroke-opacity="0.5"/>
<defs>
<linearGradient id="paint0_linear_8_37" x1="-54.9702" y1="-10.857" x2="122.642" y2="58.9188" gradientUnits="userSpaceOnUse">
<stop offset="0.51" stop-color="#FFF4E8"/>
<stop offset="1" stop-color="#FFE4FF"/>
</linearGradient>
<linearGradient id="paint1_linear_8_37" x1="-54.9702" y1="-10.857" x2="122.642" y2="58.9188" gradientUnits="userSpaceOnUse">
<stop offset="0.51" stop-color="#FFF4E8"/>
<stop offset="1" stop-color="#FFE4FF"/>
</linearGradient>
</defs>
</svg>
