<svg width="74" height="102" viewBox="0 0 74 102" fill="none" xmlns="http://www.w3.org/2000/svg">
<path fill-rule="evenodd" clip-rule="evenodd" d="M59.646 1.26953H13.2883C11.3345 1.26953 7.42701 2.446 7.42701 7.15188V19.4513H2.5C1.39543 19.4513 0.5 20.3468 0.5 21.4513V32.8203H73.5V21.4513C73.5 20.3468 72.6046 19.4513 71.5 19.4513H66.573V7.15188C66.573 2.87381 61.955 1.44778 59.646 1.26953ZM6.89416 71.323V84.692V94.8524C6.89416 96.9915 8.06642 101.27 12.7555 101.27H61.2445C63.1983 101.091 67.1058 99.5583 67.1058 94.8524V84.692V71.323H6.89416Z" fill="url(#paint0_linear_8_47)"/>
<path d="M73.5 32.8203H0.5V69.323C0.5 70.4276 1.39543 71.323 2.5 71.323H6.89416H67.1058H71.5C72.6046 71.323 73.5 70.4276 73.5 69.323V32.8203Z" fill="url(#paint1_linear_8_47)"/>
<path d="M66.573 7.15188C66.573 2.87381 61.955 1.44778 59.646 1.26953H13.2883C11.3345 1.26953 7.42701 2.446 7.42701 7.15188M66.573 7.15188C66.573 11.43 66.573 17.1341 66.573 19.4513M66.573 7.15188V19.4513M66.573 19.4513H7.42701M66.573 19.4513H71.5M7.42701 7.15188C7.42701 11.8578 7.42701 17.3123 7.42701 19.4513M7.42701 7.15188V19.4513M7.42701 19.4513H2.5M30.3394 8.2214H43.1277M0.5 32.8203H73.5M0.5 32.8203V69.323M0.5 32.8203V21.4513M73.5 32.8203V21.4513M73.5 32.8203V69.323M42.062 39.2374L31.938 63.8364M48.989 42.9808L55.5751 49.5905C56.3528 50.3709 56.3528 51.6334 55.5751 52.4138L48.989 59.0235M24.4781 42.9808L17.892 49.5905C17.1144 50.3709 17.1144 51.6334 17.892 52.4138L24.4781 59.0235M6.89416 71.323H67.1058M6.89416 71.323V84.692M6.89416 71.323H2.5M12.7555 101.27C8.06642 101.27 6.89416 96.9915 6.89416 94.8524V84.692M12.7555 101.27C17.4445 101.27 47.0353 101.27 61.2445 101.27M12.7555 101.27H61.2445M61.2445 101.27C63.1983 101.091 67.1058 99.5583 67.1058 94.8524M67.1058 94.8524C67.1058 92.7003 67.1058 88.8259 67.1058 84.692M67.1058 94.8524V84.692M67.1058 71.323C67.1058 74.5153 67.1058 79.7864 67.1058 84.692M67.1058 71.323H71.5M67.1058 71.323V84.692M67.1058 84.692H6.89416M16.4854 93.2481H23.4124M49.5219 93.2481H56.9818M71.5 19.4513C72.6046 19.4513 73.5 20.3468 73.5 21.4513M71.5 19.4513V19.4513C72.6046 19.4513 73.5 20.3468 73.5 21.4513V21.4513M73.5 69.323C73.5 70.4276 72.6046 71.323 71.5 71.323M73.5 69.323V69.323C73.5 70.4276 72.6046 71.323 71.5 71.323V71.323M2.5 71.323C1.39543 71.323 0.5 70.4276 0.5 69.323M2.5 71.323V71.323C1.39543 71.323 0.5 70.4276 0.5 69.323V69.323M0.5 21.4513C0.5 20.3468 1.39543 19.4513 2.5 19.4513M0.5 21.4513V21.4513C0.5 20.3468 1.39543 19.4513 2.5 19.4513V19.4513M36.7336 89.5048C37.9769 89.5048 40.4635 90.6813 40.4635 93.2481C40.4635 95.815 38.1074 96.9915 36.7336 96.9915C35.3598 96.9915 33.0036 96.2428 33.0036 93.2481C33.0036 90.2535 35.4903 89.5048 36.7336 89.5048Z" stroke="black" stroke-opacity="0.5"/>
<defs>
<linearGradient id="paint0_linear_8_47" x1="-40.3582" y1="-10.2974" x2="97.9352" y2="29.363" gradientUnits="userSpaceOnUse">
<stop offset="0.51" stop-color="#FFF4E8"/>
<stop offset="1" stop-color="#FFE4FF"/>
</linearGradient>
<linearGradient id="paint1_linear_8_47" x1="-40.3582" y1="-10.2974" x2="97.9352" y2="29.363" gradientUnits="userSpaceOnUse">
<stop offset="0.51" stop-color="#FFF4E8"/>
<stop offset="1" stop-color="#FFE4FF"/>
</linearGradient>
</defs>
</svg>
