<svg width="186" height="66" viewBox="0 0 186 66" fill="none" xmlns="http://www.w3.org/2000/svg">
<mask id="mask0_0_2080" style="mask-type:luminance" maskUnits="userSpaceOnUse" x="43" y="13" width="100" height="40">
<path d="M142.364 13.0596H43.2764V52.8381H142.364V13.0596Z" fill="white"/>
</mask>
<g mask="url(#mask0_0_2080)">
<path d="M124.303 19.1301H120.229V23.2185H124.303V19.1301Z" fill="black"/>
<path fill-rule="evenodd" clip-rule="evenodd" d="M108.446 29.6274H104.868V36.2712C104.868 36.8249 105.005 37.2298 105.281 37.4844C105.557 37.7409 105.961 37.8897 106.491 37.9323C107.02 37.9529 107.679 37.9437 108.464 37.9007V41.6381C105.685 41.9574 103.702 41.701 102.513 40.8724C101.347 40.021 100.764 38.4881 100.764 36.273V29.6292H97.9951V25.6672H100.764V22.4411L104.868 21.196V25.6691H111.214V22.443L115.319 21.1979V25.6709H118.915V29.633H115.319V36.2765C115.319 36.8306 115.456 37.2355 115.732 37.4901C116.008 37.7466 116.412 37.895 116.941 37.938C117.471 37.9586 118.13 37.949 118.913 37.9064V41.6434C116.134 41.9631 114.151 41.7066 112.962 40.878C111.796 40.0267 111.212 38.4935 111.212 36.2783V29.6348H108.444L108.446 29.6274Z" fill="black"/>
<path d="M124.324 25.6636H120.219V41.6361H124.324V25.6636Z" fill="black"/>
<path fill-rule="evenodd" clip-rule="evenodd" d="M133.996 25.2488C129.374 25.2488 125.626 29.0101 125.626 33.6504C125.626 38.2907 129.374 42.0519 133.996 42.0519C138.617 42.0519 142.365 38.2907 142.365 33.6504C142.365 29.0101 138.619 25.2488 133.996 25.2488ZM133.981 38.0918C131.529 38.0918 129.54 36.0959 129.54 33.6356C129.54 31.1751 131.529 29.1792 133.981 29.1792C136.432 29.1792 138.419 31.1732 138.419 33.6356C138.419 36.0979 136.432 38.0918 133.981 38.0918Z" fill="black"/>
<path fill-rule="evenodd" clip-rule="evenodd" d="M92.6135 25.6316V26.518C91.3303 25.7152 89.8156 25.2488 88.1918 25.2488C83.5702 25.2488 79.8223 29.0101 79.8223 33.6504C79.8223 38.2907 83.5702 42.0519 88.1918 42.0519C89.8156 42.0519 91.3303 41.5874 92.6135 40.7829V41.6691H96.6871V25.6316H92.6135ZM88.1769 38.0918C85.7253 38.0918 83.7368 36.0959 83.7368 33.6356C83.7368 31.1751 85.7253 29.1792 88.1769 29.1792C90.6285 29.1792 92.5748 31.1342 92.6135 33.5612V33.708C92.5748 36.1351 90.6044 38.0901 88.1769 38.0901V38.0918Z" fill="black"/>
<path d="M72.7589 35.2974L70.2703 31.3001C70.2703 31.3001 70.2611 31.2834 70.2554 31.2759L70.059 30.9619C69.689 30.3654 69.0483 30.0086 68.3483 30.0067L64.3393 29.9937L64.0598 30.4435L59.2695 38.1371L59.0049 38.5625L61.0119 41.781C61.3823 42.3799 62.023 42.7364 62.7283 42.7364H68.3465C69.039 42.7364 69.6943 42.3703 70.0612 41.7832L70.259 41.4653C70.259 41.4653 70.2664 41.4561 70.2686 41.4525L72.7607 37.4495C73.1698 36.7952 73.1698 35.9497 72.7607 35.2974H72.7589ZM71.9996 36.9718L69.5075 40.9748C69.4961 40.9933 69.4833 41.0082 69.4723 41.0231C69.3853 41.1215 69.2724 41.1346 69.2223 41.1346C69.1647 41.1346 69.0241 41.118 68.9332 40.9727L66.4411 36.97C66.4134 36.9252 66.3892 36.8791 66.3669 36.8286C66.3448 36.7803 66.3281 36.732 66.3132 36.6819C66.2578 36.4813 66.2578 36.2657 66.3132 36.065C66.3413 35.9665 66.3835 35.8679 66.4393 35.7788L68.9279 31.7796C68.9279 31.7796 68.9314 31.7741 68.9332 31.7703C68.9925 31.6811 69.0667 31.6402 69.1314 31.6272C69.1576 31.6198 69.1797 31.6179 69.1981 31.6142C69.2074 31.6142 69.2166 31.6142 69.2258 31.6142C69.2834 31.6142 69.4258 31.6327 69.5149 31.7777L72.0035 35.7751C72.2311 36.1393 72.2311 36.6077 72.0035 36.9718H71.9996Z" fill="black"/>
<path d="M65.3946 25.6253C65.802 24.9693 65.802 24.1256 65.3946 23.4733L62.9057 19.476L62.6983 19.1396C62.3261 18.5431 61.6857 18.1863 60.9818 18.1863H55.364C54.6622 18.1863 54.0215 18.5431 53.6475 19.1415L43.5875 35.2999C43.3858 35.6232 43.2764 35.9968 43.2764 36.3757C43.2764 36.7551 43.3836 37.1283 43.5857 37.4501L46.2834 41.7856C46.6556 42.3841 47.2963 42.7389 47.9981 42.7389H53.6159C54.3216 42.7389 54.9623 42.3823 55.3324 41.7835L55.538 41.4567C55.538 41.4567 55.538 41.4567 55.538 41.4528L55.5416 41.4454L57.5471 38.2269L63.491 28.6804L65.3907 25.6271L65.3946 25.6253ZM64.8075 24.5493C64.8075 24.7556 64.75 24.9637 64.6335 25.1477L54.7787 40.9773C54.6899 41.1204 54.5475 41.1371 54.49 41.1371C54.4324 41.1371 54.2918 41.1204 54.2012 40.9773L51.7105 36.9724C51.4847 36.6101 51.4847 36.1436 51.7105 35.7775L61.5653 19.9517C61.6541 19.8068 61.7965 19.7901 61.8541 19.7901C61.9113 19.7901 62.054 19.8068 62.1446 19.9536L64.6335 23.951C64.75 24.1349 64.8075 24.343 64.8075 24.5493Z" fill="black"/>
</g>
</svg>
