<svg width="126" height="102" viewBox="0 0 126 102" fill="none" xmlns="http://www.w3.org/2000/svg">
<path d="M14.337 39.4067L22.4891 9.99492C23.3949 7.05374 26.837 1.17139 33.3587 1.17139H91.7826C94.9529 1.17139 101.837 2.93609 104.011 9.99492C106.185 17.0537 110.351 32.5439 112.163 39.4067C116.239 39.8969 124.391 42.9361 124.391 51.1714V83.4276C124.391 83.4828 124.347 83.5243 124.291 83.5243H113.522V101.071C113.522 101.127 113.477 101.171 113.422 101.171H94.6C94.5448 101.171 94.5 101.127 94.5 101.071V83.5243H78.1956H48.3043H32V101.071C32 101.127 31.9552 101.171 31.9 101.171H11.7196C11.6643 101.171 11.6196 101.127 11.6196 101.071V83.5243H2.2087C2.15347 83.5243 2.1087 83.4796 2.1087 83.4243V51.1714C2.56159 47.2498 5.6413 39.4067 14.337 39.4067Z" fill="url(#paint0_linear_17_249)"/>
<path d="M0.75 26.1714H6.12893C6.16364 26.1714 6.19587 26.1894 6.21407 26.2189L14.337 39.4067M14.337 39.4067L22.4891 9.99492C23.3949 7.05374 26.837 1.17139 33.3587 1.17139C39.8804 1.17139 75.0254 1.17139 91.7826 1.17139C94.9529 1.17139 101.837 2.93609 104.011 9.99492C106.185 17.0537 110.351 32.5439 112.163 39.4067M14.337 39.4067C5.6413 39.4067 2.56159 47.2498 2.1087 51.1714V83.4243C2.1087 83.4796 2.15347 83.5243 2.2087 83.5243H11.6196M14.337 39.4067H65.9674M112.163 39.4067L118.929 26.2257C118.946 26.1924 118.98 26.1714 119.018 26.1714H125.75M112.163 39.4067C116.239 39.8969 124.391 42.9361 124.391 51.1714C124.391 59.3708 124.391 76.0253 124.391 83.4276C124.391 83.4828 124.347 83.5243 124.291 83.5243H113.522M112.163 39.4067H97.2174M65.9674 39.4067C66.8732 34.0145 71.1304 23.2302 80.913 23.2302C90.6957 23.2302 95.8587 34.0145 97.2174 39.4067M65.9674 39.4067H97.2174M48.3043 83.5243V65.9773C48.3043 65.922 48.3491 65.8773 48.4043 65.8773H78.0956C78.1509 65.8773 78.1957 65.922 78.1957 65.9773V83.5243M48.3043 83.5243H78.1957M48.3043 83.5243H32M78.1957 83.5243H94.5M94.5 83.5243V101.071C94.5 101.127 94.5448 101.171 94.6 101.171H113.422C113.477 101.171 113.522 101.127 113.522 101.071V83.5243M94.5 83.5243H113.522M11.6196 83.5243V101.071C11.6196 101.127 11.6643 101.171 11.7196 101.171H31.9C31.9552 101.171 32 101.127 32 101.071V83.5243M11.6196 83.5243H32M25.2065 54.1126C27.471 54.1126 32 55.8773 32 62.9361C32 69.9949 27.471 71.7596 25.2065 71.7596C22.4891 71.7596 17.0543 69.9949 17.0543 62.9361C17.0543 55.8773 22.4891 54.1126 25.2065 54.1126ZM109.446 62.9361C109.446 55.8848 104.022 54.1163 101.302 54.1126C101.296 54.1126 101.291 54.113 101.285 54.1141C98.5647 54.6079 93.1413 57.0599 93.1413 62.9361C93.1413 68.8123 98.5647 71.2643 101.285 71.7581C101.291 71.7591 101.296 71.7596 101.302 71.7596C104.022 71.7559 109.446 69.9874 109.446 62.9361Z" stroke="black" stroke-opacity="0.5"/>
<defs>
<linearGradient id="paint0_linear_17_249" x1="-69.2127" y1="-10.3955" x2="137.273" y2="91.0033" gradientUnits="userSpaceOnUse">
<stop offset="0.51" stop-color="#FFF4E8"/>
<stop offset="1" stop-color="#FFE4FF"/>
</linearGradient>
</defs>
</svg>
