<svg width="185" height="65" viewBox="0 0 185 65" fill="none" xmlns="http://www.w3.org/2000/svg">
<path d="M51.9466 42.1389C46.2183 42.1389 41.9033 37.595 41.9033 31.9847C41.9033 26.356 45.9978 21.7744 51.9466 21.7744C55.1049 21.7744 57.2896 22.7468 58.9973 24.9721L56.2431 27.2723C55.0865 26.0381 53.6909 25.421 51.9466 25.421C48.0727 25.421 45.9427 28.3943 45.9427 31.9847C45.9427 35.5751 48.2744 38.4923 51.9466 38.4923C53.6728 38.4923 55.1415 37.8755 56.2981 36.6412L59.0158 39.0346C57.3816 41.1666 55.1415 42.1389 51.9466 42.1389Z" fill="#292929"/>
<path d="M70.8769 27.1968H74.5857V41.7828H70.8769V39.6511C70.1056 41.166 68.8204 42.1755 66.3602 42.1755C62.4309 42.1755 59.291 38.7534 59.291 34.546C59.291 30.3384 62.4309 26.9163 66.3602 26.9163C68.802 26.9163 70.1056 27.9261 70.8769 29.4408V27.1968ZM70.987 34.546C70.987 32.2646 69.4263 30.3758 66.966 30.3758C64.5974 30.3758 63.0548 32.2832 63.0548 34.546C63.0548 36.7527 64.5974 38.7161 66.966 38.7161C69.4081 38.7161 70.987 36.8088 70.987 34.546Z" fill="#292929"/>
<path d="M77.2109 21.3064H80.9197V41.7644H77.2109V21.3064Z" fill="#292929"/>
<path d="M82.5723 39.8387C82.5723 38.6416 83.5272 37.6321 84.8308 37.6321C86.1344 37.6321 87.0524 38.6416 87.0524 39.8387C87.0524 41.0727 86.1159 42.0826 84.8308 42.0826C83.5456 42.0826 82.5723 41.0727 82.5723 39.8387Z" fill="#292929"/>
<path d="M101.246 39.4267C99.8688 41.1099 97.7758 42.1755 95.2971 42.1755C90.872 42.1755 87.6221 38.7534 87.6221 34.546C87.6221 30.3384 90.872 26.9163 95.2971 26.9163C97.6838 26.9163 99.7587 27.9261 101.136 29.5156L98.2715 31.9279C97.5553 31.0303 96.6188 30.3571 95.2971 30.3571C92.9285 30.3571 91.3862 32.2646 91.3862 34.5273C91.3862 36.79 92.9285 38.6973 95.2971 38.6973C96.7293 38.6973 97.7207 37.9494 98.4551 36.9395L101.246 39.4267Z" fill="#292929"/>
<path d="M101.558 34.546C101.558 30.3384 104.808 26.9163 109.232 26.9163C113.657 26.9163 116.907 30.3384 116.907 34.546C116.907 38.7534 113.657 42.1755 109.232 42.1755C104.808 42.1571 101.558 38.7534 101.558 34.546ZM113.143 34.546C113.143 32.2646 111.601 30.3758 109.232 30.3758C106.864 30.3571 105.321 32.2646 105.321 34.546C105.321 36.8088 106.864 38.7161 109.232 38.7161C111.601 38.7161 113.143 36.8088 113.143 34.546Z" fill="#292929"/>
<path d="M141.988 32.8633V41.7647H138.28V33.7796C138.28 31.255 137.105 30.1704 135.342 30.1704C133.689 30.1704 132.514 30.9932 132.514 33.7796V41.7647H128.806V33.7796C128.806 31.255 127.612 30.1704 125.868 30.1704C124.215 30.1704 122.765 30.9932 122.765 33.7796V41.7647H119.056V27.1784H122.765V29.198C123.536 27.6272 124.931 26.8418 127.079 26.8418C129.118 26.8418 130.825 27.8516 131.762 29.5533C132.698 27.8142 134.075 26.8418 136.572 26.8418C139.62 26.8605 141.988 29.1793 141.988 32.8633Z" fill="#292929"/>
</svg>
