<svg width="185" height="65" viewBox="0 0 185 65" fill="none" xmlns="http://www.w3.org/2000/svg">
<mask id="mask0_0_2182" style="mask-type:luminance" maskUnits="userSpaceOnUse" x="42" y="17" width="101" height="31">
<path d="M142.278 17.0452H42.8535V47.9394H142.278V17.0452Z" fill="white"/>
</mask>
<g mask="url(#mask0_0_2182)">
<path d="M88.2371 38.5911C87.7257 39.1195 87.1114 39.5385 86.432 39.8226C85.7531 40.1067 85.0229 40.2498 84.2864 40.2431C83.6646 40.2619 83.045 40.1536 82.4669 39.9246C81.8884 39.6959 81.3632 39.3511 80.9235 38.9121C80.1245 38.0816 79.6647 36.8951 79.6647 35.4812C79.6647 32.6506 81.5134 30.7144 84.2864 30.7144C85.03 30.7039 85.7673 30.8574 86.4441 31.1637C87.1217 31.47 87.7229 31.9216 88.2051 32.4863L90.6042 30.3714C89.041 28.4793 86.5038 27.5015 84.0947 27.5015C79.3795 27.5015 76.0361 30.7414 76.0361 35.5081C76.0361 37.8656 76.8671 39.851 78.2684 41.2526C79.6696 42.6546 81.6657 43.4781 83.969 43.4781C86.9608 43.4781 89.3478 42.2675 90.688 40.7456L88.2371 38.5911Z" fill="#1F0256"/>
<path d="M92.8574 21.4575H96.4298V43.2278H92.8574V21.4575Z" fill="#1F0256"/>
<path d="M113.636 36.7179C113.695 36.2439 113.728 35.767 113.735 35.2892C113.735 30.775 110.77 27.5056 106.185 27.5056C105.174 27.4858 104.169 27.6725 103.233 28.0544C102.297 28.4363 101.449 29.0052 100.742 29.726C99.4023 31.1278 98.5986 33.113 98.5986 35.4804C98.5986 40.3059 102.011 43.482 106.534 43.482C109.57 43.482 111.756 42.2569 113.066 40.5953L110.725 38.529L110.61 38.4313C110.145 39.0101 109.554 39.4746 108.88 39.7889C108.206 40.1028 107.469 40.258 106.726 40.2424C104.43 40.2424 102.773 38.9065 102.301 36.7179H113.636ZM102.36 33.8604C102.519 33.1705 102.846 32.5303 103.311 31.9954C103.698 31.575 104.172 31.2427 104.7 31.0215C105.227 30.8003 105.797 30.6953 106.369 30.7137C108.41 30.7137 109.688 31.9856 110.128 33.8604H102.36Z" fill="#1F0256"/>
<path d="M124.775 27.459V31.4292C124.362 31.3974 123.947 31.3655 123.694 31.3655C120.989 31.3655 119.455 33.3016 119.455 35.843V43.2274H115.889V27.6795H119.455V30.0347H119.488C120.699 28.3829 122.438 27.4639 124.33 27.4639L124.775 27.459Z" fill="#1F0256"/>
<path d="M133.093 36.7159L130.515 39.5763V43.2278H126.945V21.4575H130.515V34.8118L136.884 27.7291H141.122L135.517 33.9859L141.22 43.2278H137.206L133.16 36.7159H133.093Z" fill="#1F0256"/>
<path d="M67.5365 21.1139L63.8171 24.8219C63.7003 24.9383 63.5476 25.0122 63.3835 25.0318C63.2194 25.0513 63.0536 25.0154 62.9126 24.9298C61.4492 24.0498 59.7621 23.611 58.054 23.6662C56.3463 23.7215 54.6911 24.2684 53.288 25.241C52.4251 25.8397 51.6762 26.5866 51.0757 27.4467C50.1013 28.8461 49.553 30.4963 49.4972 32.199C49.4415 33.9017 49.88 35.5842 50.7611 37.044C50.8463 37.1843 50.8818 37.3494 50.8623 37.5124C50.8427 37.6754 50.7689 37.827 50.6527 37.9435L46.9333 41.6515C46.8584 41.7264 46.7682 41.7847 46.6684 41.8219C46.569 41.8589 46.4624 41.8741 46.3566 41.8667C46.2504 41.8589 46.1474 41.8283 46.0544 41.7776C45.9614 41.7264 45.8804 41.6558 45.8172 41.5705C43.8048 38.8128 42.7647 35.4685 42.8595 32.0596C42.9543 28.6507 44.1784 25.3689 46.3406 22.7265C47.0011 21.9181 47.7423 21.179 48.5533 20.5209C51.2035 18.3655 54.4951 17.1455 57.9141 17.0511C61.3331 16.9567 64.6871 17.9931 67.4531 19.9988C67.539 20.0616 67.6104 20.1423 67.6619 20.2352C67.7137 20.3281 67.7446 20.4312 67.7528 20.5372C67.7606 20.6432 67.7453 20.7496 67.708 20.8492C67.6708 20.9487 67.6122 21.0391 67.5365 21.1139Z" fill="url(#paint0_linear_0_2182)"/>
<path d="M67.5332 43.8574L63.8138 40.1494C63.697 40.0329 63.5443 39.9591 63.3802 39.9395C63.2161 39.92 63.0503 39.9559 62.909 40.0414C61.5297 40.871 59.9491 41.3095 58.338 41.3095C56.7268 41.3095 55.1462 40.871 53.7666 40.0414C53.6253 39.9559 53.4594 39.92 53.2954 39.9395C53.1313 39.9591 52.9786 40.0329 52.8618 40.1494L49.1424 43.8574C49.0646 43.932 49.0039 44.0232 48.9652 44.1237C48.9264 44.2246 48.9101 44.3325 48.9179 44.4401C48.9257 44.5477 48.957 44.6521 49.0099 44.7462C49.0628 44.8403 49.1356 44.922 49.2237 44.9845C51.871 46.9053 55.061 47.9397 58.3355 47.9397C61.6096 47.9397 64.7996 46.9053 67.4473 44.9845C67.5354 44.9224 67.6089 44.841 67.6621 44.7473C67.7154 44.6532 67.7474 44.5488 67.7555 44.4412C67.7637 44.3336 67.7481 44.2253 67.7097 44.1248C67.671 44.0236 67.611 43.9323 67.5332 43.8574Z" fill="#1F0256"/>
<path d="M58.345 36.8976C60.7888 36.8976 62.77 34.9224 62.77 32.486C62.77 30.0498 60.7888 28.0747 58.345 28.0747C55.9011 28.0747 53.9199 30.0498 53.9199 32.486C53.9199 34.9224 55.9011 36.8976 58.345 36.8976Z" fill="#1F0256"/>
</g>
<defs>
<linearGradient id="paint0_linear_0_2182" x1="64.0408" y1="14.7811" x2="32.7691" y2="46.1519" gradientUnits="userSpaceOnUse">
<stop stop-color="#17CCFC"/>
<stop offset="0.5" stop-color="#5D31FF"/>
<stop offset="1" stop-color="#F35AFF"/>
</linearGradient>
</defs>
</svg>
