<svg width="94" height="102" viewBox="0 0 94 102" fill="none" xmlns="http://www.w3.org/2000/svg">
<path d="M75.9943 71.7478C72.1715 71.7478 70.8619 75.3055 70.6849 77.0843C70.6849 78.8632 71.7468 82.4208 75.9943 82.4208C80.2418 82.4208 81.3037 78.8632 81.3037 77.0843C81.1267 75.3055 79.8171 71.7478 75.9943 71.7478Z" fill="url(#paint0_linear_8_354)"/>
<path d="M62.7208 89.3583C58.898 89.3583 57.2344 93.2717 56.8804 95.2285C56.8804 97.1852 58.0485 101.099 62.7208 101.099C67.3187 101.099 68.5231 97.3087 68.5602 95.3233C68.5614 95.2593 68.5559 95.1982 68.5436 95.1354C68.1547 93.1505 66.4839 89.3583 62.7208 89.3583Z" fill="url(#paint1_linear_8_354)"/>
<path d="M30.8643 95.2285C30.8643 93.2717 29.6962 89.3583 25.024 89.3583C20.4421 89.3583 19.5705 92.7796 19.7054 94.5896C19.7081 94.6253 19.7111 94.6604 19.7145 94.6948C19.7111 94.7292 19.7081 94.7643 19.7054 94.8C19.5705 96.61 20.4421 100.031 25.024 100.031C29.6962 100.031 30.8643 96.8294 30.8643 95.2285Z" fill="url(#paint2_linear_8_354)"/>
<path d="M17.5908 77.0843C17.4138 75.1276 15.998 71.2142 11.7504 71.2142C7.50291 71.2142 6.08706 75.1276 5.91008 77.0843C5.91008 79.041 7.07815 82.9545 11.7504 82.9545C16.4227 82.9545 17.5908 79.041 17.5908 77.0843Z" fill="url(#paint3_linear_8_354)"/>
<path fill-rule="evenodd" clip-rule="evenodd" d="M23.9621 55.7383C17.2368 56.8056 3.25542 55.2051 1.13166 42.3975C-0.751871 31.0386 4.74252 26.9554 8.72575 26.0529C9.42595 25.8943 9.90569 25.1615 9.72334 24.4637C5.64599 8.86127 26.8008 -9.93929 49.209 9.174C49.6373 9.53928 50.2852 9.52833 50.7195 9.17044C58.5759 2.69712 77.6758 6.06727 80.6402 23.8986C80.7246 24.4064 81.1447 24.7967 81.6468 24.8979C92.2258 27.03 106.42 57.282 64.2692 55.2048L65.3755 52.5364L69.0921 50.4018L69.623 44.5316L65.3755 42.397L62.1898 35.9932L64.3136 32.2576L59.5351 27.4548L55.2876 29.0557L49.4472 25.8543L47.3235 22.6519H40.4212L39.3594 25.8543L32.4571 29.0557L28.7405 27.4548L23.9621 32.2576L25.5549 35.9932L23.4311 42.397L19.1836 44.5316V50.4018L22.3693 52.5364L23.9621 55.7383ZM25.3478 58.5239C25.4799 58.7894 25.496 59.0981 25.3923 59.376L25.5549 58.9402L25.3478 58.5239ZM32.086 66.5712C32.3251 66.4682 32.5934 66.457 32.8401 66.5396L32.4571 66.4113L32.086 66.5712ZM49.8136 68.9871C49.9184 68.7061 50.1362 68.4824 50.4135 68.3709L49.9782 68.5459L49.8136 68.9871ZM54.9056 66.5649C55.1514 66.4661 55.425 66.4631 55.6728 66.5565L55.2876 66.4113L54.9056 66.5649ZM62.8683 59.3356C62.7735 59.0816 62.7785 58.8008 62.8824 58.5504L62.7208 58.9402L62.8683 59.3356ZM19.7054 94.8C19.7081 94.7643 19.7111 94.7292 19.7145 94.6948C19.7111 94.6604 19.7081 94.6253 19.7054 94.5896C19.7107 94.6604 19.7107 94.7293 19.7054 94.8Z" fill="url(#paint4_linear_8_354)"/>
<path d="M43.6069 35.4595C39.3594 35.4595 32.4571 39.0884 32.4571 47.1999C32.4571 55.3114 39.8903 59.4738 44.6688 59.4738C48.7393 59.296 55.8185 56.5921 55.8185 47.1999C55.8185 38.6614 47.8544 35.4595 43.6069 35.4595Z" fill="url(#paint5_linear_8_354)"/>
<path fill-rule="evenodd" clip-rule="evenodd" d="M40.4212 22.6519L39.3594 25.8543L32.4571 29.0557L28.7405 27.4548L23.9621 32.2576L25.5549 35.9932L23.4311 42.397L19.1836 44.5316V50.4018L22.3693 52.5364L23.9621 55.7383L25.3478 58.5239L25.5549 58.9402L25.3923 59.376L24.2022 62.5659C24.056 62.9578 24.1512 63.3994 24.4456 63.6954L28.2322 67.5013C28.5392 67.8099 29.0022 67.8995 29.4013 67.7276L29.9794 67.4786L32.086 66.5712L32.4571 66.4113L32.8401 66.5396L38.8284 68.5459L40.6587 72.2251C40.8386 72.5867 41.2063 72.8151 41.6085 72.8151H48.3854L49.8136 68.9871L49.9782 68.5459L50.4135 68.3709L54.9056 66.5649L55.2876 66.4113L55.6728 66.5565L57.4114 67.2118L58.8949 67.771C59.2848 67.9179 59.7242 67.8223 60.0186 67.5263L63.8301 63.6954C64.1245 63.3994 64.2197 62.9578 64.0735 62.5659L62.8683 59.3356L62.7208 58.9402L62.8824 58.5504L64.2692 55.2048L65.3755 52.5364L69.0921 50.4018L69.623 44.5316L65.3755 42.397L62.1898 35.9932L64.3136 32.2576L59.5351 27.4548L55.2876 29.0557L49.4472 25.8543L47.3235 22.6519H40.4212ZM32.4571 47.1999C32.4571 39.0884 39.3594 35.4595 43.6069 35.4595C47.8544 35.4595 55.8185 38.6614 55.8185 47.1999C55.8185 56.5921 48.7393 59.296 44.6688 59.4738C39.8903 59.4738 32.4571 55.3114 32.4571 47.1999Z" fill="url(#paint6_linear_8_354)"/>
<path d="M23.9621 55.7383C17.2368 56.8056 3.25542 55.2051 1.13166 42.3975C-0.751871 31.0386 4.74252 26.9554 8.72575 26.0529M23.9621 55.7383L25.3478 58.5239M23.9621 55.7383L22.3693 52.5364M64.2692 55.2048C106.42 57.282 92.2258 27.03 81.6468 24.8979M64.2692 55.2048L62.8824 58.5504M64.2692 55.2048L65.3755 52.5364M22.3693 52.5364L19.1836 50.4018V44.5316L23.4311 42.397L25.5549 35.9932L23.9621 32.2576L28.7405 27.4548L32.4571 29.0557L39.3594 25.8543L40.4212 22.6519H47.3235L49.4472 25.8543L55.2876 29.0557L59.5351 27.4548L64.3136 32.2576L62.1898 35.9932L65.3755 42.397L69.623 44.5316L69.0921 50.4018L65.3755 52.5364M22.3693 52.5364L25.3478 58.5239M38.8284 68.5459L40.6587 72.2251M38.8284 68.5459L39.3459 86.2297M38.8284 68.5459L32.8401 66.5396M48.3854 72.8151L49.8136 68.9871M48.3854 72.8151V86.248M48.3854 72.8151H41.6085M65.3755 52.5364L62.8824 58.5504M29.9794 67.4786L32.086 66.5712M29.9794 67.4786V76.017M29.9794 67.4786L29.4013 67.7276M17.5908 77.0843C17.4138 75.1276 15.998 71.2142 11.7504 71.2142C7.50291 71.2142 6.08706 75.1276 5.91008 77.0843C5.91008 79.041 7.07815 82.9545 11.7504 82.9545C16.4227 82.9545 17.5908 79.041 17.5908 77.0843ZM17.5908 77.0843H28.9175M57.4114 67.2118L58.8949 67.771M57.4114 67.2118V76.017M57.4114 67.2118L55.6728 66.5565M70.6849 77.0843C70.8619 75.3055 72.1715 71.7478 75.9943 71.7478C79.8171 71.7478 81.1267 75.3055 81.3037 77.0843C81.3037 78.8632 80.2418 82.4208 75.9943 82.4208C71.7468 82.4208 70.6849 78.8632 70.6849 77.0843ZM70.6849 77.0843H58.4732M56.8804 95.2285C57.2344 93.2717 58.898 89.3583 62.7208 89.3583C66.4839 89.3583 68.1547 93.1505 68.5436 95.1354M56.8804 95.2285C56.8804 97.1852 58.0485 101.099 62.7208 101.099C67.3187 101.099 68.5231 97.3087 68.5602 95.3233M56.8804 95.2285L48.6964 87.0027M30.8643 95.2285C30.8643 93.2717 29.6962 89.3583 25.024 89.3583C20.4421 89.3583 19.5705 92.7796 19.7054 94.5896M30.8643 95.2285C30.8643 96.8294 29.6962 100.031 25.024 100.031C20.4421 100.031 19.5705 96.61 19.7054 94.8M30.8643 95.2285L39.0353 87.0157M8.72575 26.0529C9.42595 25.8943 9.90569 25.1615 9.72334 24.4637M8.72575 26.0529C9.23378 25.9378 9.71723 25.8744 10.1577 25.8543C9.98988 25.3944 9.84532 24.9305 9.72334 24.4637M9.72334 24.4637C5.64599 8.86127 26.8008 -9.93929 49.209 9.174M49.209 9.174C49.6373 9.53928 50.2852 9.52833 50.7195 9.17044M49.209 9.174C49.4653 9.39256 49.7217 9.61607 49.9782 9.8446C50.2124 9.60923 50.4598 9.38445 50.7195 9.17044M50.7195 9.17044C58.5759 2.69712 77.6758 6.06727 80.6402 23.8986M80.6402 23.8986C80.7246 24.4064 81.1447 24.7967 81.6468 24.8979M80.6402 23.8986C80.6888 24.1907 80.733 24.4867 80.7728 24.7865C81.0604 24.801 81.3522 24.8385 81.6468 24.8979M62.8824 58.5504C62.7785 58.8008 62.7735 59.0816 62.8683 59.3356M62.8824 58.5504L62.7208 58.9402L62.8683 59.3356M62.8683 59.3356L64.0735 62.5659M64.0735 62.5659C64.2197 62.9578 64.1245 63.3994 63.8301 63.6954M64.0735 62.5659L64.3136 63.2094L63.8301 63.6954M63.8301 63.6954L60.0186 67.5263M60.0186 67.5263C59.7242 67.8223 59.2848 67.9179 58.8949 67.771M60.0186 67.5263L59.5351 68.0123L58.8949 67.771M57.4114 76.017C57.4114 76.6065 57.8868 77.0843 58.4732 77.0843M57.4114 76.017V77.0843H58.4732M55.6728 66.5565C55.425 66.4631 55.1514 66.4661 54.9056 66.5649M55.6728 66.5565L55.2876 66.4113L54.9056 66.5649M54.9056 66.5649L50.4135 68.3709M50.4135 68.3709C50.1362 68.4824 49.9184 68.7061 49.8136 68.9871M50.4135 68.3709L49.9782 68.5459L49.8136 68.9871M48.3854 86.248C48.3854 86.531 48.4972 86.8025 48.6964 87.0027M48.3854 86.248V86.69L48.6964 87.0027M68.5436 95.1354C68.5559 95.1982 68.5614 95.2593 68.5602 95.3233M68.5436 95.1354C68.5497 95.1669 68.5556 95.1979 68.5611 95.2285C68.5611 95.2596 68.5608 95.2912 68.5602 95.3233M41.6085 72.8151C41.2063 72.8151 40.8386 72.5867 40.6587 72.2251M41.6085 72.8151H40.9522L40.6587 72.2251M39.3459 86.2297C39.3545 86.5235 39.2421 86.8079 39.0353 87.0157M39.3459 86.2297L39.3594 86.69L39.0353 87.0157M19.7054 94.8C19.7107 94.7293 19.7107 94.6604 19.7054 94.5896M19.7054 94.8C19.7081 94.7643 19.7111 94.7292 19.7145 94.6948C19.7111 94.6604 19.7081 94.6253 19.7054 94.5896M32.8401 66.5396C32.5934 66.457 32.3251 66.4682 32.086 66.5712M32.8401 66.5396L32.4571 66.4113L32.086 66.5712M29.9794 76.017C29.9794 76.6065 29.504 77.0843 28.9175 77.0843M29.9794 76.017V77.0843H28.9175M29.4013 67.7276C29.0022 67.8995 28.5392 67.8099 28.2322 67.5013M29.4013 67.7276L28.7405 68.0123L28.2322 67.5013M28.2322 67.5013L24.4456 63.6954M24.4456 63.6954C24.1512 63.3994 24.056 62.9578 24.2022 62.5659M24.4456 63.6954L23.9621 63.2094L24.2022 62.5659M24.2022 62.5659L25.3923 59.376M25.3923 59.376C25.496 59.0981 25.4799 58.7894 25.3478 58.5239M25.3923 59.376L25.5549 58.9402L25.3478 58.5239M43.6069 35.4595C39.3594 35.4595 32.4571 39.0884 32.4571 47.1999C32.4571 55.3114 39.8903 59.4738 44.6688 59.4738C48.7393 59.296 55.8185 56.5921 55.8185 47.1999C55.8185 38.6615 47.8544 35.4595 43.6069 35.4595Z" stroke="black" stroke-opacity="0.5"/>
<defs>
<linearGradient id="paint0_linear_8_354" x1="-50.7425" y1="-10.4683" x2="116.087" y2="49.8282" gradientUnits="userSpaceOnUse">
<stop offset="0.51" stop-color="#FFF4E8"/>
<stop offset="1" stop-color="#FFE4FF"/>
</linearGradient>
<linearGradient id="paint1_linear_8_354" x1="-50.7425" y1="-10.4683" x2="116.087" y2="49.8282" gradientUnits="userSpaceOnUse">
<stop offset="0.51" stop-color="#FFF4E8"/>
<stop offset="1" stop-color="#FFE4FF"/>
</linearGradient>
<linearGradient id="paint2_linear_8_354" x1="-50.7425" y1="-10.4683" x2="116.087" y2="49.8282" gradientUnits="userSpaceOnUse">
<stop offset="0.51" stop-color="#FFF4E8"/>
<stop offset="1" stop-color="#FFE4FF"/>
</linearGradient>
<linearGradient id="paint3_linear_8_354" x1="-50.7425" y1="-10.4683" x2="116.087" y2="49.8282" gradientUnits="userSpaceOnUse">
<stop offset="0.51" stop-color="#FFF4E8"/>
<stop offset="1" stop-color="#FFE4FF"/>
</linearGradient>
<linearGradient id="paint4_linear_8_354" x1="-50.7425" y1="-10.4683" x2="116.087" y2="49.8282" gradientUnits="userSpaceOnUse">
<stop offset="0.51" stop-color="#FFF4E8"/>
<stop offset="1" stop-color="#FFE4FF"/>
</linearGradient>
<linearGradient id="paint5_linear_8_354" x1="-50.7425" y1="-10.4683" x2="116.087" y2="49.8282" gradientUnits="userSpaceOnUse">
<stop offset="0.51" stop-color="#FFF4E8"/>
<stop offset="1" stop-color="#FFE4FF"/>
</linearGradient>
<linearGradient id="paint6_linear_8_354" x1="-50.7425" y1="-10.4683" x2="116.087" y2="49.8282" gradientUnits="userSpaceOnUse">
<stop offset="0.51" stop-color="#FFF4E8"/>
<stop offset="1" stop-color="#FFE4FF"/>
</linearGradient>
</defs>
</svg>
