<svg width="115" height="102" viewBox="0 0 115 102" fill="none" xmlns="http://www.w3.org/2000/svg">
<path d="M105.923 62.8702C104.982 66.6323 100.827 67.5728 98.8665 67.5728H87.1055H70.6401H54.1746H37.7092C33.7888 67.1809 25.7129 68.0431 24.7721 74.6268C23.8312 81.2105 30.6526 82.8564 34.1809 82.8564H48.2941H90.6459C91.5076 82.757 92.318 82.7729 92.986 82.8564C95.3382 82.8564 100.278 84.5024 101.219 91.0861C102.16 97.6698 96.1223 100.099 92.986 100.491C89.8497 100.491 83.5772 98.6103 83.5772 91.0861C83.5772 85.1646 87.4621 83.2236 90.6459 82.8564H48.2941C51.0384 82.8564 56.5268 84.7375 56.5268 92.2617C56.5268 99.7797 51.0475 100.881 48.301 100.492C48.2963 100.492 48.2919 100.491 48.2872 100.491C45.5407 100.489 40.0614 98.8399 40.0614 92.2617C40.0614 85.678 45.5499 83.2483 48.2941 82.8564H34.1809C30.6526 82.8564 23.8312 81.2105 24.7721 74.6268C25.7129 68.0431 33.7888 67.1809 37.7092 67.5728C35.9847 61.5393 33.6951 53.5173 31.3367 45.2352C29.0208 37.1026 26.6384 28.7193 24.6594 21.722H47.9357H70.6401H94.1621H108.275C113.921 21.722 114.548 24.8571 114.156 26.4246C113.084 31.2448 111.476 38.4561 109.953 45.2352C108.133 53.3372 106.435 60.8219 105.923 62.8702Z" fill="url(#paint0_linear_17_79)"/>
<path d="M1.25 0.560059H14.1871C15.7553 0.560059 19.1268 1.50059 20.0676 5.26271C20.4226 6.68202 22.2395 13.1659 24.6594 21.722M37.7092 67.5728H54.1746M37.7092 67.5728C35.9847 61.5393 33.6951 53.5173 31.3367 45.2352M37.7092 67.5728C33.7888 67.1809 25.7129 68.0431 24.7721 74.6268C23.8312 81.2105 30.6526 82.8564 34.1809 82.8564H48.2941M24.6594 21.722C31.0984 21.722 39.2521 21.722 47.9357 21.722M24.6594 21.722C26.6384 28.7193 29.0208 37.1026 31.3367 45.2352M47.9357 21.722L54.1746 67.5728M47.9357 21.722C55.3631 21.722 63.1783 21.722 70.6401 21.722M54.1746 67.5728H70.6401M70.6401 67.5728V21.722M70.6401 67.5728H87.1055M70.6401 21.722C79.3569 21.722 87.5914 21.722 94.1621 21.722M94.1621 21.722C101.453 21.722 106.696 21.722 108.275 21.722C113.921 21.722 114.548 24.8571 114.156 26.4246C113.084 31.2448 111.476 38.4561 109.953 45.2352M94.1621 21.722L87.1055 67.5728M87.1055 67.5728H98.8665C100.827 67.5728 104.982 66.6323 105.923 62.8702C106.435 60.8219 108.133 53.3372 109.953 45.2352M31.3367 45.2352H109.953M104.747 82.8564H92.986M92.986 82.8564C95.3382 82.8564 100.278 84.5024 101.219 91.0861C102.16 97.6698 96.1223 100.099 92.986 100.491C89.8497 100.491 83.5772 98.6103 83.5772 91.0861C83.5772 83.5618 89.8497 82.4645 92.986 82.8564ZM92.986 82.8564H48.2941M48.2941 82.8564C51.0384 82.8564 56.5268 84.7375 56.5268 92.2617C56.5268 99.7797 51.0475 100.881 48.301 100.492C48.2963 100.492 48.2919 100.491 48.2872 100.491C45.5407 100.489 40.0614 98.8399 40.0614 92.2617C40.0614 85.678 45.5499 83.2483 48.2941 82.8564Z" stroke="black" stroke-opacity="0.5" stroke-linecap="round"/>
<defs>
<linearGradient id="paint0_linear_17_79" x1="-61.9963" y1="-11.0069" x2="131.54" y2="74.9091" gradientUnits="userSpaceOnUse">
<stop offset="0.51" stop-color="#FFF4E8"/>
<stop offset="1" stop-color="#FFE4FF"/>
</linearGradient>
</defs>
</svg>
