<svg width="129" height="102" viewBox="0 0 129 102" fill="none" xmlns="http://www.w3.org/2000/svg">
<path d="M1.1 0.61084H51.0673C55.9519 0.61084 64.5 5.31672 64.5 11.905C64.9885 8.14025 68.0169 0.61084 76.2231 0.61084H127.903C127.958 0.61084 128 0.655611 128 0.71084V82.9638V100.511C128 100.566 127.955 100.611 127.9 100.611H64.5H1.1C1.04477 100.611 1 100.566 1 100.511V82.9638V0.710838C1 0.65561 1.04477 0.61084 1.1 0.61084Z" fill="url(#paint0_linear_17_279)"/>
<path d="M64.5 11.905C64.5 5.31672 55.9519 0.61084 51.0673 0.61084H1.1C1.04477 0.61084 1 0.65561 1 0.710838V82.9638M64.5 11.905C64.9885 8.14025 68.0169 0.61084 76.2231 0.61084C84.4101 0.61084 114.022 0.61084 127.903 0.61084C127.958 0.61084 128 0.655611 128 0.71084V82.9638M64.5 11.905V100.611M18.0962 50.0226H47.4038M47.4038 66.4932H18.0962M1 82.9638V100.511C1 100.566 1.04477 100.611 1.1 100.611H64.5M1 82.9638H52.2885C56.359 82.5716 64.5 85.552 64.5 100.611M128 82.9638V100.511C128 100.566 127.955 100.611 127.9 100.611H64.5M128 82.9638C113.753 82.9638 88.9231 82.9638 77.9327 82.9638C66.9423 82.9638 64.9071 94.7285 64.5 100.611M110.904 50.0226H81.5962M81.5962 66.4932H110.904M81.5962 33.452V17.1814C81.5962 17.1262 81.6409 17.0814 81.6962 17.0814H110.804C110.859 17.0814 110.904 17.1262 110.904 17.1814V33.452C110.904 33.5072 110.859 33.552 110.804 33.552H81.6962C81.6409 33.552 81.5962 33.5072 81.5962 33.452ZM47.4038 17.1814V33.452C47.4038 33.5072 47.3591 33.552 47.3038 33.552H18.1962C18.1409 33.552 18.0962 33.5072 18.0962 33.452V17.1814C18.0962 17.1262 18.1409 17.0814 18.1962 17.0814H47.3038C47.3591 17.0814 47.4038 17.1262 47.4038 17.1814Z" stroke="black" stroke-opacity="0.5"/>
<defs>
<linearGradient id="paint0_linear_17_279" x1="-70.0821" y1="-10.9561" x2="138.401" y2="93.0616" gradientUnits="userSpaceOnUse">
<stop offset="0.51" stop-color="#FFF4E8"/>
<stop offset="1" stop-color="#FFE4FF"/>
</linearGradient>
</defs>
</svg>
