<svg width="100" height="101" viewBox="0 0 100 101" fill="none" xmlns="http://www.w3.org/2000/svg">
<path d="M99.5 92.2168H80.69C80.69 87.6812 77.4042 85.7856 75.7507 85.4011C75.7434 85.3994 75.7365 85.3987 75.729 85.3987H24.26C21.092 85.3987 19.64 89.9441 19.31 92.2168H0.5V70.6259V50.1714V28.5805V8.12593H19.31C19.31 12.6645 23.258 14.5596 25.241 14.9424C25.2472 14.9436 25.2529 14.9441 25.2592 14.9441H74.75C78.71 14.9441 80.36 10.3987 80.69 8.12593H99.5V29.7168V50.1714V71.7623V92.2168Z" fill="url(#paint0_linear_17_260)"/>
<path d="M0.5 0.171387V8.12593M0.5 100.171V92.2168M19.31 0.171387V8.12593M19.31 100.171V92.2168M80.69 100.171V92.2168M80.69 0.171387V8.12593M99.5 0.171387V8.12593M99.5 100.171V92.2168M80.69 92.2168H99.5M80.69 92.2168V71.7623M80.69 92.2168C80.69 87.6812 77.4042 85.7856 75.7507 85.4011C75.7434 85.3994 75.7365 85.3987 75.729 85.3987C59.885 85.3987 27.4273 85.3987 24.26 85.3987C21.092 85.3987 19.64 89.9441 19.31 92.2168M99.5 92.2168V71.7623M99.5 71.7623H80.69M99.5 71.7623V50.1714M80.69 71.7623V50.1714M80.69 50.1714H99.5M80.69 50.1714V29.7168M99.5 50.1714V29.7168M99.5 29.7168H80.69M99.5 29.7168V8.12593M80.69 29.7168V8.12593M80.69 8.12593H99.5M80.69 8.12593C80.36 10.3987 78.71 14.9441 74.75 14.9441C70.7908 14.9441 40.1127 14.9441 25.2592 14.9441C25.2529 14.9441 25.2472 14.9436 25.241 14.9424C23.258 14.5596 19.31 12.6645 19.31 8.12593M19.31 8.12593H0.5M19.31 8.12593V28.5805M0.5 8.12593V28.5805M0.5 28.5805H19.31M0.5 28.5805V50.1714M19.31 28.5805V50.1714M19.31 50.1714H0.5M19.31 50.1714V70.6259M0.5 50.1714V70.6259M0.5 70.6259H19.31M0.5 70.6259V92.2168M19.31 70.6259V92.2168M19.31 92.2168H0.5M44.06 63.6053V36.7375C44.06 36.6546 44.155 36.6077 44.2208 36.658L61.7762 50.092C61.8285 50.132 61.8285 50.2108 61.7762 50.2508L44.2208 63.6847C44.155 63.7351 44.06 63.6882 44.06 63.6053Z" stroke="black" stroke-opacity="0.5"/>
<defs>
<linearGradient id="paint0_linear_17_260" x1="-54.9105" y1="-11.3955" x2="121.395" y2="57.1742" gradientUnits="userSpaceOnUse">
<stop offset="0.51" stop-color="#FFF4E8"/>
<stop offset="1" stop-color="#FFE4FF"/>
</linearGradient>
</defs>
</svg>
