<svg width="103" height="102" viewBox="0 0 103 102" fill="none" xmlns="http://www.w3.org/2000/svg">
<path d="M0.75 100.9V7.31501C0.75 7.27585 0.773606 7.23995 0.809246 7.22372C25.5396 -4.03674 45.858 2.51108 52.9791 7.22227C53.007 7.24074 53.0219 7.27083 53.0219 7.3043V47.0489C58.3377 46.4593 68.9693 48.1103 68.9693 59.4309V78.0039C68.9693 80.952 71.0956 86.8482 79.6009 86.8482C88.0971 86.8482 91.4067 80.9645 92.0025 78.0133C92.0038 78.0068 92.0044 78.0006 92.0044 77.994V35.5514H88.4605C82.7904 35.5514 81.9635 28.476 82.2588 24.9383V17.0784C82.2588 17.0232 82.3035 16.9784 82.3588 16.9784H85.8026H98.2061H101.65L101.657 16.9784C101.709 16.9783 101.75 16.9783 101.75 17.0313V24.9383C101.75 33.4288 97.6155 35.5514 95.5482 35.5514H92.0044V77.994C92.0044 78.0006 92.0038 78.0068 92.0025 78.0133C91.4067 80.9645 88.0971 86.8482 79.6009 86.8482C71.0956 86.8482 68.9693 80.952 68.9693 78.0039V59.4309C68.9693 48.1103 58.3377 46.4593 53.0219 47.0489V100.9C53.0219 100.955 52.9772 101 52.9219 101H0.85C0.794772 101 0.75 100.955 0.75 100.9Z" fill="url(#paint0_linear_17_227)"/>
<path d="M29.1009 53.2399L18.5808 68.1175C18.534 68.1837 18.5814 68.2752 18.6625 68.2752H34.2296C34.3095 68.2752 34.3572 68.3643 34.3128 68.4307L23.7851 84.1949M53.0219 47.0489V100.9C53.0219 100.955 52.9772 101 52.9219 101H0.85C0.794772 101 0.75 100.955 0.75 100.9V7.31501C0.75 7.27585 0.773606 7.23995 0.809246 7.22372C25.5396 -4.03674 45.858 2.51108 52.9791 7.22227C53.007 7.24074 53.0219 7.27083 53.0219 7.3043V47.0489ZM53.0219 47.0489C58.3377 46.4593 68.9693 48.1103 68.9693 59.4309C68.9693 70.7516 68.9693 76.5298 68.9693 78.0039C68.9693 80.952 71.0956 86.8482 79.6009 86.8482C88.0971 86.8482 91.4067 80.9645 92.0025 78.0133C92.0038 78.0068 92.0044 78.0006 92.0044 77.994V35.5514M92.0044 35.5514H95.5482C97.6155 35.5514 101.75 33.4288 101.75 24.9383C101.75 18.7831 101.75 17.3381 101.75 17.0313C101.75 16.976 101.705 16.9784 101.65 16.9784H98.2061M92.0044 35.5514C93.1857 35.5514 94.1307 35.5514 88.4605 35.5514C82.7904 35.5514 81.9635 28.476 82.2588 24.9383V17.0784C82.2588 17.0232 82.3035 16.9784 82.3588 16.9784H85.8026M85.8026 7.25073V16.9784M85.8026 16.9784H98.2061M98.2061 16.9784V7.25073M40.6184 17.9628V33.6825C40.6184 33.7378 40.5737 33.7825 40.5184 33.7825H15.0254C14.9702 33.7825 14.9254 33.7378 14.9254 33.6825V17.9628C14.9254 17.9076 14.9702 17.8628 15.0254 17.8628H40.5184C40.5737 17.8628 40.6184 17.9076 40.6184 17.9628Z" stroke="black" stroke-opacity="0.5"/>
<defs>
<linearGradient id="paint0_linear_17_227" x1="-55.7799" y1="-10.5669" x2="123.128" y2="60.4206" gradientUnits="userSpaceOnUse">
<stop offset="0.51" stop-color="#FFF4E8"/>
<stop offset="1" stop-color="#FFE4FF"/>
</linearGradient>
</defs>
</svg>
