<svg width="102" height="102" viewBox="0 0 102 102" fill="none" xmlns="http://www.w3.org/2000/svg">
<path d="M0.811539 21.8077L50.7106 1.01642C50.7358 1.00593 50.7641 1.00618 50.7891 1.01712L100.69 22.8488C100.726 22.8647 100.75 22.9007 100.75 22.9404V34.2333C100.75 34.2886 100.705 34.3333 100.65 34.3333H92.4167V76H96.4833C96.5386 76 96.5833 76.0448 96.5833 76.1V88.5H100.65C100.705 88.5 100.75 88.5448 100.75 88.6V100.9C100.75 100.955 100.705 101 100.65 101H0.849999C0.79477 101 0.75 100.955 0.75 100.9V88.6C0.75 88.5448 0.794772 88.5 0.85 88.5H4.91667V76.1C4.91667 76.0448 4.96144 76 5.01667 76H9.08333V34.3333H0.85C0.794772 34.3333 0.75 34.2886 0.75 34.2333V21.9C0.75 21.8596 0.774274 21.8232 0.811539 21.8077Z" fill="url(#paint0_linear_17_302)"/>
<path d="M79.9167 34.3333V76M79.9167 34.3333H92.4167M79.9167 34.3333H21.5833M79.9167 76H92.4167M79.9167 76H75.85C75.7948 76 75.75 76.0448 75.75 76.1V88.5M92.4167 76V34.3333M92.4167 76H96.4833C96.5386 76 96.5833 76.0448 96.5833 76.1V88.5M92.4167 34.3333H100.65C100.705 34.3333 100.75 34.2886 100.75 34.2333V22.9404C100.75 22.9007 100.726 22.8647 100.69 22.8488L50.7891 1.01712C50.7641 1.00618 50.7358 1.00593 50.7106 1.01642L0.811539 21.8077C0.774274 21.8232 0.75 21.8596 0.75 21.9V34.2333C0.75 34.2886 0.794772 34.3333 0.85 34.3333H9.08333M70.5417 21.8333H30.9583M21.5833 34.3333V76M21.5833 34.3333H9.08333M21.5833 76H9.08333M21.5833 76H25.65C25.7052 76 25.75 76.0448 25.75 76.1V88.5M9.08333 76V34.3333M9.08333 76H5.01667C4.96144 76 4.91667 76.0448 4.91667 76.1V88.5M4.91667 88.5H25.75M4.91667 88.5H0.85C0.794772 88.5 0.75 88.5448 0.75 88.6V100.9C0.75 100.955 0.79477 101 0.849999 101H100.65C100.705 101 100.75 100.955 100.75 100.9V88.6C100.75 88.5448 100.705 88.5 100.65 88.5H96.5833M25.75 88.5H75.75M75.75 88.5H96.5833M50.75 43.7083V48.9167M50.75 48.9167C52.8333 49.2639 57 51 57 55.1667M50.75 48.9167C48.6667 48.9167 44.5 50.1667 44.5 55.1667C44.5 60.1667 48.6667 61.4167 50.75 61.4167C52.8333 61.4167 57 62.6667 57 67.6667C57 72.6667 52.8333 73.9167 50.75 73.9167M50.75 73.9167V79.125M50.75 73.9167C48.6667 73.9167 44.5 72.6667 44.5 67.6667" stroke="black" stroke-opacity="0.5"/>
<defs>
<linearGradient id="paint0_linear_17_302" x1="-55.2202" y1="-10.5669" x2="122.392" y2="59.2089" gradientUnits="userSpaceOnUse">
<stop offset="0.51" stop-color="#FFF4E8"/>
<stop offset="1" stop-color="#FFE4FF"/>
</linearGradient>
</defs>
</svg>
