<svg width="102" height="102" viewBox="0 0 102 102" fill="none" xmlns="http://www.w3.org/2000/svg">
<path d="M41.8617 18.8417C38.9566 15.9112 35.2907 17.6205 34.0802 18.8416C32.7429 20.1906 32.1089 24.1793 34.599 26.6912C37.0891 29.2031 40.8242 27.7378 41.8617 26.6912C43.4299 25.1093 44.7668 21.7722 41.8617 18.8417Z" fill="url(#paint0_linear_8_269)"/>
<path d="M41.8617 49.7169C38.9566 46.7863 35.2907 48.4957 34.0803 49.7167C32.7429 51.0658 32.1089 55.0545 34.599 57.5664C37.0891 60.0782 40.8242 58.613 41.8617 57.5664C43.4299 55.9845 44.7668 52.6474 41.8617 49.7169Z" fill="url(#paint1_linear_8_269)"/>
<path d="M57.4238 34.5408C54.5187 31.6102 50.8527 33.3196 49.6423 34.5406C48.3049 35.8897 47.671 39.8784 50.1611 42.3903C52.6511 44.9021 56.3862 43.4369 57.4238 42.3903C58.9919 40.8084 60.3288 37.4713 57.4238 34.5408Z" fill="url(#paint2_linear_8_269)"/>
<path d="M18.5164 34.5408C19.7269 33.3197 23.3928 31.6104 26.2979 34.5409C29.203 37.4714 27.866 40.8085 26.2979 42.3904C25.2604 43.437 21.5252 44.9023 19.0352 42.3904C16.5451 39.8785 17.1791 35.8898 18.5164 34.5408Z" fill="url(#paint3_linear_8_269)"/>
<path fill-rule="evenodd" clip-rule="evenodd" d="M95.8123 46.0542H69.3554L46.0109 69.6031V96.8145C46.0109 99.745 48.7777 100.827 50.1611 101.001H96.3311C100.066 101.001 101 97.8611 101 96.2912V51.2873C101 47.52 97.5416 46.2289 95.8123 46.0542ZM77.1368 70.1258C74.2317 67.1952 70.5658 68.9046 69.3554 70.1256C68.018 71.4747 67.384 75.4634 69.8741 77.9753C72.3642 80.4871 76.0993 79.0219 77.1368 77.9753C78.7049 76.3934 80.0419 73.0563 77.1368 70.1258Z" fill="url(#paint4_linear_8_269)"/>
<path d="M24.7422 12.5619L34.5988 2.61907C35.6363 1.39802 38.4376 -0.311456 41.3427 2.61907M41.3427 2.61907C44.2478 5.5496 63.6496 25.1213 72.9874 34.5409M41.3427 2.61907L72.9874 34.5409M72.9874 34.5409C74.3707 35.7619 76.3075 39.0412 72.9874 42.3904C72.3206 43.063 71.043 44.3518 69.3554 46.0542M34.5988 73.7889C37.9189 77.1381 41.1698 74.8355 42.3802 73.2656C43.4608 72.1756 44.6863 70.9394 46.0109 69.6031M34.5988 73.7889C31.2944 70.4556 11.6144 50.6032 2.05201 40.9571C1.95945 40.8637 1.87945 40.7666 1.8118 40.6539C1.13517 39.5263 0.339037 37.1788 1.9166 35.5874M34.5988 73.7889L2.05799 40.9631C1.96137 40.8656 1.87765 40.7641 1.80711 40.6461C1.1315 39.5155 0.342682 37.1751 1.9166 35.5874M1.9166 35.5874C3.57664 33.9128 9.52515 27.9122 12.2919 25.1212L1.9166 35.5874ZM69.3554 46.0542H95.8123C97.5416 46.2289 101 47.52 101 51.2873M69.3554 46.0542C63.6687 51.7907 53.3264 62.2235 46.0109 69.6031M69.3554 46.0542L46.0109 69.6031M101 51.2873C101 55.0546 101 82.8596 101 96.2912M101 51.2873V96.2912M101 96.2912C101 97.8611 100.066 101.001 96.3311 101.001M96.3311 101.001C92.596 101.001 63.9948 101.001 50.1611 101.001M96.3311 101.001H50.1611M50.1611 101.001C48.7777 100.827 46.0109 99.745 46.0109 96.8145M46.0109 96.8145C46.0109 93.884 46.0109 77.4525 46.0109 69.6031M46.0109 96.8145V69.6031M18.5164 34.5408C19.7269 33.3197 23.3928 31.6104 26.2979 34.5409C29.203 37.4714 27.866 40.8085 26.2979 42.3904C25.2604 43.437 21.5252 44.9023 19.0352 42.3904C16.5451 39.8785 17.1791 35.8898 18.5164 34.5408ZM34.0803 18.8416C35.2907 17.6205 38.9566 15.9112 41.8617 18.8417C44.7668 21.7722 43.4299 25.1093 41.8617 26.6912C40.8242 27.7378 37.0891 29.2031 34.599 26.6912C32.1089 24.1793 32.7429 20.1906 34.0803 18.8416ZM34.0803 49.7167C35.2907 48.4957 38.9566 46.7863 41.8617 49.7169C44.7668 52.6474 43.4299 55.9845 41.8617 57.5664C40.8242 58.613 37.0891 60.0782 34.599 57.5664C32.1089 55.0545 32.7429 51.0658 34.0803 49.7167ZM49.6423 34.5406C50.8527 33.3196 54.5187 31.6102 57.4238 34.5408C60.3288 37.4713 58.9919 40.8084 57.4238 42.3903C56.3862 43.4369 52.6511 44.9022 50.1611 42.3903C47.671 39.8784 48.3049 35.8897 49.6423 34.5406ZM69.3554 70.1256C70.5658 68.9046 74.2317 67.1952 77.1368 70.1258C80.0419 73.0563 78.705 76.3934 77.1368 77.9753C76.0993 79.0219 72.3642 80.4871 69.8741 77.9753C67.384 75.4634 68.018 71.4747 69.3554 70.1256Z" stroke="black" stroke-opacity="0.5"/>
<defs>
<linearGradient id="paint0_linear_8_269" x1="-54.9702" y1="-10.566" x2="122.642" y2="59.2098" gradientUnits="userSpaceOnUse">
<stop offset="0.51" stop-color="#FFF4E8"/>
<stop offset="1" stop-color="#FFE4FF"/>
</linearGradient>
<linearGradient id="paint1_linear_8_269" x1="-54.9702" y1="-10.566" x2="122.642" y2="59.2098" gradientUnits="userSpaceOnUse">
<stop offset="0.51" stop-color="#FFF4E8"/>
<stop offset="1" stop-color="#FFE4FF"/>
</linearGradient>
<linearGradient id="paint2_linear_8_269" x1="-54.9702" y1="-10.566" x2="122.642" y2="59.2098" gradientUnits="userSpaceOnUse">
<stop offset="0.51" stop-color="#FFF4E8"/>
<stop offset="1" stop-color="#FFE4FF"/>
</linearGradient>
<linearGradient id="paint3_linear_8_269" x1="-54.9702" y1="-10.566" x2="122.642" y2="59.2098" gradientUnits="userSpaceOnUse">
<stop offset="0.51" stop-color="#FFF4E8"/>
<stop offset="1" stop-color="#FFE4FF"/>
</linearGradient>
<linearGradient id="paint4_linear_8_269" x1="-54.9702" y1="-10.566" x2="122.642" y2="59.2098" gradientUnits="userSpaceOnUse">
<stop offset="0.51" stop-color="#FFF4E8"/>
<stop offset="1" stop-color="#FFE4FF"/>
</linearGradient>
</defs>
</svg>
