<svg width="185" height="65" viewBox="0 0 185 65" fill="none" xmlns="http://www.w3.org/2000/svg">
<mask id="mask0_0_2168" style="mask-type:luminance" maskUnits="userSpaceOnUse" x="14" y="19" width="157" height="27">
<path d="M170.114 19.179H14.2021V45.4612H170.114V19.179Z" fill="white"/>
</mask>
<g mask="url(#mask0_0_2168)">
<path fill-rule="evenodd" clip-rule="evenodd" d="M16.0849 27.9244C13.6813 30.3227 13.6813 34.2104 16.0849 36.6083L23.0475 43.5557C25.4511 45.9538 29.3477 45.9538 31.7511 43.5557L38.7138 36.6083C41.1171 34.2103 41.1171 30.3224 38.7138 27.9244L31.7511 20.9775C29.3475 18.5794 25.4509 18.5794 23.0475 20.9775L16.0849 27.9244ZM30.4454 35.306C32.1279 33.6272 32.1279 30.9057 30.4454 29.2272C28.7631 27.5484 26.0355 27.5484 24.3531 29.2272C22.6706 30.9059 22.6706 33.6272 24.3531 35.306C26.0357 36.9845 28.763 36.9845 30.4454 35.306Z" fill="#2962FF"/>
<path d="M46.6045 42.244V21.9675H50.6312V30.5121L50.1479 29.8692C50.4881 28.9943 51.034 28.3514 51.7855 27.9407C52.5551 27.5121 53.4501 27.2978 54.4701 27.2978C55.5796 27.2978 56.5463 27.53 57.3695 27.9943C58.2105 28.4585 58.864 29.1103 59.3293 29.9496C59.7945 30.771 60.0271 31.7353 60.0271 32.8424V42.244H56.0004V33.6995C56.0004 33.1282 55.8839 32.6371 55.6513 32.2264C55.4364 31.8157 55.1235 31.4942 54.7116 31.2621C54.3181 31.03 53.8525 30.9139 53.3158 30.9139C52.7969 30.9139 52.3313 31.03 51.9197 31.2621C51.5081 31.4942 51.186 31.8157 50.9533 32.2264C50.7385 32.6371 50.6312 33.1282 50.6312 33.6995V42.244H46.6045Z" fill="#0F172A"/>
<path d="M66.6742 42.5655C65.6183 42.5655 64.7056 42.3961 63.936 42.0566C63.1664 41.7174 62.5758 41.2354 62.1645 40.6103C61.7525 39.9675 61.5469 39.2085 61.5469 38.3334C61.5469 37.5119 61.7348 36.7887 62.1105 36.164C62.4863 35.5212 63.0591 34.9853 63.8287 34.5568C64.6161 34.1282 65.5917 33.8246 66.7548 33.6461L71.2379 32.9229V35.8692L67.4797 36.5387C66.9068 36.646 66.4686 36.8335 66.1642 37.1013C65.8602 37.3513 65.7078 37.7175 65.7078 38.1995C65.7078 38.6459 65.878 38.9943 66.2179 39.2444C66.5581 39.494 66.9786 39.6194 67.4797 39.6194C68.1421 39.6194 68.7235 39.4763 69.2246 39.1907C69.7257 38.9048 70.1107 38.5209 70.3792 38.0389C70.6654 37.5389 70.8086 36.9944 70.8086 36.4048V32.6014C70.8086 32.0478 70.5848 31.5836 70.1373 31.2086C69.7079 30.8336 69.1173 30.6461 68.3658 30.6461C67.6498 30.6461 67.0145 30.8425 66.4597 31.2354C65.9227 31.6282 65.5289 32.1461 65.2785 32.7889L62.0569 31.2621C62.3431 30.4407 62.7995 29.7354 63.426 29.1461C64.0525 28.5568 64.804 28.1014 65.6812 27.78C66.5581 27.4586 67.5156 27.2979 68.5533 27.2979C69.7886 27.2979 70.8799 27.5211 71.8286 27.9675C72.7772 28.4139 73.5109 29.0389 74.0302 29.8425C74.5671 30.6282 74.8353 31.5478 74.8353 32.6014V42.2441H71.0771V39.8869L71.9898 39.7263C71.5604 40.3692 71.0859 40.9048 70.5671 41.3334C70.0478 41.7444 69.4664 42.0477 68.8218 42.2441C68.1776 42.4586 67.4619 42.5655 66.6742 42.5655Z" fill="#0F172A"/>
<path d="M82.9969 42.5655C81.3863 42.5655 79.9813 42.1908 78.7823 41.4407C77.6011 40.6728 76.7956 39.6461 76.3662 38.3604L79.319 36.9674C79.6951 37.753 80.2051 38.3692 80.8493 38.8157C81.4936 39.2621 82.2095 39.4852 82.9969 39.4852C83.5698 39.4852 84.008 39.3694 84.3124 39.1371C84.6164 38.9048 84.7688 38.5834 84.7688 38.1728C84.7688 37.9587 84.7152 37.78 84.6075 37.6372C84.5003 37.4763 84.3394 37.3336 84.1245 37.2086C83.9097 37.0835 83.6412 36.9763 83.319 36.8871L80.8223 36.1907C79.6233 35.8515 78.7017 35.3068 78.0575 34.5568C77.4132 33.7889 77.0907 32.8871 77.0907 31.8514C77.0907 30.9407 77.3237 30.1461 77.789 29.4675C78.2542 28.7889 78.9073 28.2622 79.7487 27.8871C80.5897 27.4943 81.5561 27.2979 82.6478 27.2979C84.0798 27.2979 85.3324 27.6371 86.4064 28.3157C87.4981 28.9764 88.2677 29.9139 88.7149 31.1282L85.7352 32.521C85.5203 31.9139 85.1268 31.4318 84.5539 31.0746C83.9992 30.6996 83.3638 30.5121 82.6478 30.5121C82.1289 30.5121 81.7173 30.6193 81.4129 30.8336C81.1267 31.0479 80.9836 31.3425 80.9836 31.7175C80.9836 31.9139 81.0372 32.0925 81.1444 32.2531C81.2521 32.4139 81.4218 32.5567 81.6548 32.6818C81.9052 32.8067 82.2095 32.9229 82.5675 33.0299L84.903 33.7263C86.1198 34.0836 87.0506 34.6282 87.6949 35.3602C88.3391 36.0745 88.6613 36.9585 88.6613 38.0119C88.6613 38.9226 88.4198 39.7174 87.9364 40.3958C87.4711 41.0745 86.818 41.6101 85.977 42.0029C85.1357 42.378 84.1423 42.5655 82.9969 42.5655Z" fill="#0F172A"/>
<path d="M90.5312 42.244V21.9675H94.558V30.5121L94.0746 29.8692C94.4148 28.9943 94.9607 28.3514 95.7122 27.9407C96.4818 27.5121 97.3768 27.2978 98.3968 27.2978C99.5067 27.2978 100.473 27.53 101.296 27.9943C102.137 28.4585 102.791 29.1103 103.256 29.9496C103.721 30.771 103.954 31.7353 103.954 32.8424V42.244H99.9272V33.6995C99.9272 33.1282 99.8107 32.6371 99.5781 32.2264C99.3636 31.8157 99.0503 31.4942 98.6387 31.2621C98.2448 31.03 97.7796 30.9139 97.2426 30.9139C96.7237 30.9139 96.2585 31.03 95.8465 31.2621C95.4352 31.4942 95.1127 31.8157 94.8801 32.2264C94.6656 32.6371 94.558 33.1282 94.558 33.6995V42.244H90.5312Z" fill="#0F172A"/>
<path d="M106.065 42.2441V27.6193H109.824V30.5121L109.609 29.8693C109.949 28.9943 110.495 28.3515 111.247 27.9407C112.016 27.5122 112.911 27.2979 113.931 27.2979C115.041 27.2979 116.007 27.53 116.83 27.9943C117.672 28.4586 118.325 29.1104 118.79 29.9497C119.255 30.771 119.488 31.7354 119.488 32.8425V42.2441H115.461V33.6996C115.461 33.1282 115.345 32.6371 115.112 32.2264C114.898 31.8157 114.584 31.4943 114.173 31.2621C113.779 31.03 113.314 30.9139 112.777 30.9139C112.258 30.9139 111.793 31.03 111.381 31.2621C110.969 31.4943 110.647 31.8157 110.414 32.2264C110.2 32.6371 110.093 33.1282 110.093 33.6996V42.2441H106.065Z" fill="#0F172A"/>
<path d="M128.874 42.5655C127.424 42.5655 126.1 42.2352 124.901 41.5746C123.719 40.914 122.771 40.0122 122.055 38.8693C121.357 37.7086 121.008 36.3959 121.008 34.9317C121.008 33.4496 121.357 32.1371 122.055 30.9943C122.771 29.8514 123.719 28.9497 124.901 28.2889C126.1 27.6282 127.424 27.2979 128.874 27.2979C130.323 27.2979 131.639 27.6282 132.82 28.2889C134.001 28.9497 134.941 29.8514 135.639 30.9943C136.355 32.1371 136.713 33.4496 136.713 34.9317C136.713 36.3959 136.355 37.7086 135.639 38.8693C134.941 40.0122 134.001 40.914 132.82 41.5746C131.639 42.2352 130.323 42.5655 128.874 42.5655ZM128.874 38.9496C129.607 38.9496 130.243 38.7798 130.78 38.4406C131.335 38.1014 131.764 37.628 132.068 37.021C132.39 36.4137 132.552 35.7176 132.552 34.9317C132.552 34.1461 132.39 33.4585 132.068 32.8693C131.764 32.2621 131.335 31.7889 130.78 31.4496C130.243 31.0925 129.607 30.9139 128.874 30.9139C128.14 30.9139 127.496 31.0925 126.941 31.4496C126.386 31.7889 125.948 32.2621 125.626 32.8693C125.321 33.4585 125.169 34.1461 125.169 34.9317C125.169 35.7176 125.321 36.4137 125.626 37.021C125.948 37.628 126.386 38.1014 126.941 38.4406C127.496 38.7798 128.14 38.9496 128.874 38.9496Z" fill="#0F172A"/>
<path d="M145.448 42.5655C144.016 42.5655 142.737 42.2263 141.609 41.5476C140.481 40.8692 139.586 39.9497 138.924 38.7886C138.28 37.628 137.958 36.3423 137.958 34.9317C137.958 33.5031 138.289 32.2175 138.951 31.0746C139.613 29.9139 140.508 28.9943 141.636 28.3157C142.763 27.6371 144.025 27.2978 145.421 27.2978C146.495 27.2978 147.443 27.5032 148.267 27.9139C149.108 28.3068 149.77 28.8692 150.254 29.6014L149.636 30.4049V21.9675H153.663V42.244H149.905V39.5657L150.28 40.3958C149.779 41.1104 149.099 41.6548 148.239 42.0299C147.381 42.3872 146.45 42.5655 145.448 42.5655ZM145.93 38.9495C146.665 38.9495 147.309 38.7798 147.864 38.4406C148.418 38.1014 148.849 37.628 149.152 37.021C149.474 36.4137 149.636 35.7175 149.636 34.9317C149.636 34.1461 149.474 33.4495 149.152 32.8424C148.849 32.2354 148.418 31.7621 147.864 31.4228C147.309 31.0835 146.665 30.9139 145.93 30.9139C145.197 30.9139 144.535 31.0924 143.944 31.4496C143.372 31.7889 142.924 32.262 142.602 32.8692C142.28 33.4584 142.119 34.1461 142.119 34.9317C142.119 35.7175 142.28 36.4137 142.602 37.021C142.924 37.628 143.372 38.1014 143.944 38.4406C144.535 38.7798 145.197 38.9495 145.93 38.9495Z" fill="#0F172A"/>
<path d="M163.135 42.5655C161.577 42.5655 160.227 42.2263 159.081 41.5476C157.936 40.8511 157.05 39.9227 156.423 38.762C155.797 37.6014 155.483 36.3157 155.483 34.9049C155.483 33.4408 155.806 32.1371 156.45 30.9943C157.112 29.8514 157.998 28.9497 159.107 28.2889C160.218 27.6282 161.471 27.2979 162.866 27.2979C164.03 27.2979 165.059 27.4854 165.954 27.8604C166.849 28.2175 167.599 28.7264 168.209 29.3871C168.834 30.0479 169.309 30.8157 169.631 31.6907C169.954 32.5478 170.115 33.4853 170.115 34.5032C170.115 34.7889 170.097 35.0747 170.061 35.3602C170.043 35.6281 169.998 35.8603 169.926 36.0568H158.946V33.1103H167.645L165.738 34.5032C165.917 33.7353 165.909 33.0567 165.712 32.4675C165.515 31.8603 165.166 31.3871 164.666 31.0479C164.182 30.6907 163.582 30.5121 162.866 30.5121C162.168 30.5121 161.569 30.6818 161.067 31.021C160.567 31.3603 160.191 31.8603 159.94 32.521C159.69 33.1818 159.591 33.9853 159.644 34.9317C159.573 35.7531 159.672 36.4766 159.94 37.1013C160.209 37.7264 160.62 38.2172 161.175 38.5745C161.73 38.9137 162.401 39.0835 163.188 39.0835C163.904 39.0835 164.512 38.9407 165.014 38.6551C165.533 38.3692 165.935 37.9764 166.222 37.4763L169.444 39.0032C169.158 39.7174 168.701 40.3422 168.074 40.8781C167.466 41.4137 166.741 41.8335 165.9 42.1372C165.059 42.4227 164.137 42.5655 163.135 42.5655Z" fill="#0F172A"/>
</g>
</svg>
