<svg width="135" height="102" viewBox="0 0 135 102" fill="none" xmlns="http://www.w3.org/2000/svg">
<path d="M66.742 10.2853C74.1165 3.35059 93.0966 -6.25221 110.621 10.3503C124.757 23.7428 120.895 39.029 115.031 48.5122C113.603 50.822 112.056 52.7876 110.621 54.2976L66.7446 100.485C66.7056 100.526 66.6401 100.526 66.6005 100.486L21.5687 54.2976C20.1636 52.5415 18.6305 50.1693 17.2756 47.3559C12.6826 37.8189 10.1374 23.2122 21.5687 10.3503C39.9266 -10.305 63.9746 7.74235 66.614 10.2923C66.653 10.3299 66.7025 10.3224 66.742 10.2853Z" fill="url(#paint0_linear_17_42)"/>
<path d="M0.75 47.3559H38.8455C38.8874 47.3559 38.9248 47.3298 38.9393 47.2905L46.917 25.6357C46.9492 25.5484 47.0726 25.5484 47.1047 25.6357L55.0824 47.2905C55.0969 47.3298 55.1344 47.3559 55.1763 47.3559H66.6021C66.6446 47.3559 66.6825 47.3828 66.6965 47.4229L74.6669 70.1997C74.6988 70.2908 74.8285 70.2883 74.8569 70.196L88.5489 25.6955C88.5779 25.6011 88.7118 25.6015 88.7402 25.6962L95.5634 48.4409C95.5761 48.4832 95.615 48.5122 95.6592 48.5122H133.75M110.621 10.3503C93.0966 -6.25221 74.1165 3.35059 66.7419 10.2853C66.7025 10.3224 66.653 10.3299 66.614 10.2923C63.9746 7.74235 39.9266 -10.305 21.5687 10.3503C6.76523 27.0064 15.4006 46.5886 21.5687 54.2976L66.6005 100.486C66.6401 100.526 66.7055 100.526 66.7446 100.485L110.621 54.2976C117.946 46.5879 128.2 27.0048 110.621 10.3503Z" stroke="black" stroke-opacity="0.5" stroke-linecap="round"/>
<defs>
<linearGradient id="paint0_linear_17_42" x1="-73.6903" y1="-11.0069" x2="140.513" y2="100.914" gradientUnits="userSpaceOnUse">
<stop offset="0.51" stop-color="#FFF4E8"/>
<stop offset="1" stop-color="#FFE4FF"/>
</linearGradient>
</defs>
</svg>
