<svg width="92" height="92" viewBox="0 0 92 92" fill="none" xmlns="http://www.w3.org/2000/svg">
<path fill-rule="evenodd" clip-rule="evenodd" d="M46.306 8.92303V16.7802V22.7886V30.1836C50.468 30.9539 58.792 30.5534 58.792 22.7886V21.8643C57.8671 22.0183 56.0173 21.6794 56.0173 19.0912C56.0173 16.6489 57.6643 16.2094 58.6271 16.297C58.737 16.307 58.847 16.307 58.9569 16.297C59.9197 16.2094 61.5667 16.6489 61.5667 19.0912C61.5667 21.6794 59.7169 22.0183 58.792 21.8643V22.7886C58.792 30.5534 50.468 30.9539 46.306 30.1836V41.2761C54.3217 42.2005 70.3531 41.3685 70.3531 30.6458C69.4282 30.7999 67.5784 30.4609 67.5784 27.8727C67.5784 25.4979 69.1356 25.0167 70.1069 25.0725C70.2696 25.0818 70.4327 25.0687 70.5922 25.035C71.563 24.8295 73.1277 25.1521 73.1277 27.8727C73.1277 30.8307 71.278 30.9539 70.3531 30.6458C70.3531 41.3685 54.3217 42.2005 46.306 41.2761V52.3685C54.3217 51.7523 70.3531 52.7383 70.3531 61.6123V62.9988C71.278 62.9988 73.1277 63.5534 73.1277 65.7719C73.1277 67.9904 71.278 68.5451 70.3531 68.5451C69.4282 68.5451 67.5784 67.9904 67.5784 65.7719C67.5784 63.5534 69.4282 62.9988 70.3531 62.9988V61.6123C70.3531 52.7383 54.3217 51.7523 46.306 52.3685V63.461C50.1597 62.5366 58.0521 62.7215 58.792 70.856V72.2425C59.7169 72.0885 61.5667 72.4274 61.5667 75.0157C61.5667 77.4579 59.9197 77.8974 58.9569 77.8098C58.847 77.7998 58.737 77.7998 58.6271 77.8098C57.6643 77.8974 56.0173 77.4579 56.0173 75.0157C56.0173 72.4274 57.8671 72.0885 58.792 72.2425V70.856C58.0521 62.7215 50.1597 62.5366 46.306 63.461V82.4106C48.0017 85.4919 53.0577 91.4695 59.7169 90.73C67.6282 89.8514 72.6154 84.3805 72.6934 78.6819C72.7002 78.1847 73.0575 77.7458 73.5482 77.6659L73.5499 77.6656C75.0129 77.4273 77.1559 76.9244 78.4239 76.1148L78.4263 76.1133C78.5929 76.0067 78.7844 75.9447 78.9811 75.9245L78.9852 75.9241C80.9455 75.7201 82.2796 73.6107 82.777 72.4002C82.8196 72.2966 82.8773 72.1997 82.9504 72.1149C82.9514 72.1138 82.9524 72.1126 82.9534 72.1114C87.3735 66.9839 84.9456 62.5472 82.2411 60.115C81.6389 59.5734 81.8115 58.4529 82.5652 58.1567C94.6601 53.4035 91.787 40.6937 86.0761 38.4134C92.8951 31.425 86.3771 24.8467 80.9695 24.205C80.3189 24.1278 79.8157 23.4841 79.9652 22.8463C82.2094 13.2677 74.1978 11.2537 69.4983 11.6962C69.5047 9.95108 68.9795 8.40896 68.5033 7.5365C67.7326 5.68775 64.5263 1.80537 57.8671 1.06587C51.2079 0.326373 47.3851 5.99585 46.306 8.92303ZM59.7169 84.2594C59.7169 83.7643 59.4405 83.5178 59.1653 83.4089C58.9374 83.3188 58.6946 83.4323 58.5213 83.6056C58.1601 83.9666 58.1601 84.5522 58.5213 84.9132C58.6946 85.0864 58.9374 85.2 59.1653 85.1098C59.4405 85.001 59.7169 84.7545 59.7169 84.2594ZM66.6535 46.8223C66.6535 46.3272 66.3771 46.0807 66.1019 45.9719C65.874 45.8817 65.6313 45.9953 65.4579 46.1685C65.0967 46.5295 65.0967 47.1151 65.4579 47.4761C65.6313 47.6494 65.874 47.7629 66.1019 47.6728C66.3771 47.5639 66.6535 47.3174 66.6535 46.8223ZM75.4397 47.2848C75.6952 47.0294 75.6952 46.6152 75.4397 46.3599C75.1844 46.1047 74.7706 46.1047 74.5153 46.3599C74.2598 46.6152 74.2598 47.0294 74.5153 47.2848C74.7706 47.5399 75.1844 47.5399 75.4397 47.2848ZM59.2542 9.84769C59.5097 9.59233 59.5097 9.17816 59.2542 8.9228C58.9989 8.66765 58.5851 8.66765 58.3298 8.9228C58.0743 9.17816 58.0743 9.59233 58.3298 9.84769C58.5851 10.1028 58.9989 10.1028 59.2542 9.84769Z" fill="url(#paint0_linear_42_6322)"/>
<path d="M46.306 16.7802V8.92303C45.8436 6.61209 42.7915 1.80535 34.2825 1.06587C26.3815 0.379225 23.4512 6.54685 22.826 10.3919C22.749 10.8654 22.3502 11.234 21.8704 11.234H20.488C20.4356 11.234 20.3833 11.2292 20.3315 11.2221C19.5047 11.1091 17.4713 11.2398 15.3224 12.6205C12.7376 14.4441 8.59306 19.1455 12.3859 23.5314C12.4887 23.6502 12.6247 23.7372 12.771 23.7948C13.6688 24.1479 15.2323 25.008 16.2536 25.5697C16.4822 25.6955 16.6837 25.8063 16.8444 25.8932C16.9927 25.929 17.104 25.973 17.1723 26.0239C17.3525 26.1582 17.1959 26.083 16.8444 25.8932C14.3133 25.2822 0.987906 27.0877 6.00369 38.7094C6.01966 38.7464 6.03997 38.7794 6.05589 38.8052C6.07895 38.8426 6.09281 38.8651 6.07096 38.8634C6.07206 38.8659 6.07316 38.8683 6.07427 38.8708C6.08486 38.8763 6.09319 38.8812 6.09848 38.8854C6.1133 38.8971 6.08192 38.8881 6.07427 38.8708C6.06141 38.8643 6.04521 38.857 6.02705 38.8495C5.96535 38.8241 5.92388 38.836 5.89176 38.8693C5.9728 38.9151 5.98173 39.0302 5.90632 39.0847C5.82342 39.1446 5.74028 39.2062 5.65702 39.2694C1.13788 42.6976 -3.74354 50.8171 10.1656 58.3388C10.2106 58.3631 10.2631 58.377 10.3143 58.377C10.64 58.377 10.7902 58.8962 10.5409 59.1057C9.05101 60.358 7.3578 62.8495 7.91333 66.6254L7.924 66.6963C7.924 66.7191 7.9241 66.7423 7.9243 66.7659C7.9358 68.1034 8.27824 70.7479 9.548 71.6448C9.6882 71.7439 9.8205 71.8585 9.9151 72.0017C11.2767 74.0634 14.9526 77.7888 19.9475 77.7888C18.0977 86.5703 33.3584 99.9737 46.306 82.4106V63.461V52.3685V41.2761V30.1836V22.7886V16.7802Z" fill="url(#paint1_linear_42_6322)"/>
<path d="M46.306 16.7802C46.306 13.7118 46.306 8.92303 46.306 8.92303M46.306 16.7802V22.7886M46.306 16.7802V8.92303M46.306 8.92303C47.3851 5.99585 51.2079 0.326373 57.8671 1.06587C64.5263 1.80537 67.7326 5.68775 68.5033 7.5365C68.9795 8.40896 69.5047 9.95108 69.4983 11.6962M46.306 8.92303C45.8436 6.61209 42.7915 1.80535 34.2825 1.06587C26.3815 0.379225 23.4512 6.54685 22.826 10.3919M67.5784 16.7802C69.0144 15.1656 69.4924 13.3408 69.4983 11.6962M69.4983 11.6962C74.1978 11.2537 82.2094 13.2677 79.9652 22.8463M83.3015 40.8139C84.4 39.9905 85.3185 39.1899 86.0761 38.4134M86.0761 38.4134C92.8951 31.425 86.3771 24.8467 80.9695 24.205M86.0761 38.4134C91.787 40.6937 94.6601 53.4035 82.5652 58.1567M46.306 22.7886C46.306 25.6766 46.306 30.1836 46.306 30.1836M46.306 22.7886V30.1836M46.306 82.4106C48.0017 85.4919 53.0577 91.4695 59.7169 90.73C67.6282 89.8514 72.6154 84.3805 72.6934 78.6819M46.306 82.4106V63.461M46.306 82.4106C33.3584 99.9737 18.0977 86.5703 19.9475 77.7888M46.306 63.461C50.1597 62.5366 58.0521 62.7215 58.792 70.856V72.2425M46.306 63.461V52.3685M58.792 72.2425C57.8671 72.0885 56.0173 72.4274 56.0173 75.0157C56.0173 77.4579 57.6643 77.8974 58.6271 77.8098C58.737 77.7998 58.847 77.7998 58.9569 77.8098C59.9197 77.8974 61.5667 77.4579 61.5667 75.0157C61.5667 72.4274 59.7169 72.0885 58.792 72.2425ZM46.306 52.3685C54.3217 51.7523 70.3531 52.7383 70.3531 61.6123V62.9988M46.306 52.3685V41.2761M70.3531 62.9988C71.278 62.9988 73.1277 63.5534 73.1277 65.7719C73.1277 67.9904 71.278 68.5451 70.3531 68.5451C69.4282 68.5451 67.5784 67.9904 67.5784 65.7719C67.5784 63.5534 69.4282 62.9988 70.3531 62.9988ZM46.306 30.1836C50.468 30.9539 58.792 30.5534 58.792 22.7886V21.8643M46.306 30.1836V41.2761M58.792 21.8643C59.7169 22.0183 61.5667 21.6794 61.5667 19.0912C61.5667 16.6489 59.9197 16.2094 58.9569 16.297C58.847 16.307 58.737 16.307 58.6271 16.297C57.6643 16.2094 56.0173 16.6489 56.0173 19.0912C56.0173 21.6794 57.8671 22.0183 58.792 21.8643ZM46.306 41.2761C54.3217 42.2005 70.3531 41.3685 70.3531 30.6458M70.3531 30.6458C71.278 30.9539 73.1277 30.8307 73.1277 27.8727C73.1277 25.1521 71.563 24.8295 70.5922 25.035C70.4327 25.0687 70.2696 25.0818 70.1069 25.0725C69.1356 25.0167 67.5784 25.4979 67.5784 27.8727C67.5784 30.4609 69.4282 30.7999 70.3531 30.6458ZM36.1323 15.3937C36.4406 16.6262 35.6699 19.9231 30.1205 23.2508M7.924 66.6963C7.92036 66.6726 7.9168 66.649 7.91333 66.6254M7.924 66.6963C7.924 66.7191 7.9241 66.7423 7.9243 66.7659M7.924 66.6963L7.91333 66.6254M19.9475 77.7888C19.9475 75.94 21.489 73.6291 22.2597 72.7047M19.9475 77.7888C14.9526 77.7888 11.2767 74.0634 9.9151 72.0017M36.133 74.0913C34.1291 73.1669 30.1213 69.7467 30.1213 63.461M31.971 51.4442C33.2042 51.5982 35.7631 50.4274 36.133 44.5114M25.4968 36.192C22.568 36.8083 16.7104 39.7046 16.7104 46.3601M79.9652 22.8463C79.8156 23.4844 80.3183 24.1277 80.9695 24.205M79.9652 22.8463V22.8463C79.8157 23.4841 80.3189 24.1278 80.9695 24.205V24.205M82.5652 58.1567C81.8108 58.4532 81.6384 59.573 82.2411 60.115M82.5652 58.1567V58.1567C81.8115 58.4529 81.6389 59.5734 82.2411 60.115V60.115M82.2411 60.115C84.9456 62.5472 87.3735 66.9839 82.9534 72.1114M82.9534 72.1114C82.8799 72.1967 82.8198 72.2961 82.777 72.4002M82.9534 72.1114C82.9524 72.1126 82.9514 72.1138 82.9504 72.1149C82.8773 72.1997 82.8196 72.2966 82.777 72.4002V72.4002M82.777 72.4002C82.2796 73.6107 80.9455 75.7201 78.9852 75.9241L78.9811 75.9245M72.6934 78.6819C72.7003 78.1842 73.057 77.7468 73.5482 77.6659M72.6934 78.6819V78.6819C72.7002 78.1847 73.0575 77.7458 73.5482 77.6659V77.6659M9.9151 72.0017C9.82015 71.8579 9.68876 71.7443 9.548 71.6448M9.9151 72.0017V72.0017C9.8205 71.8584 9.6882 71.7439 9.548 71.6448V71.6448M9.548 71.6448C8.27824 70.7479 7.9358 68.1034 7.9243 66.7659M7.9243 66.7659C7.9239 66.7188 7.92018 66.672 7.91333 66.6254M7.91333 66.6254C7.3578 62.8495 9.05101 60.358 10.5409 59.1057M10.5409 59.1057C10.7905 58.8959 10.6404 58.377 10.3143 58.377M10.5409 59.1057V59.1057C10.7902 58.8962 10.64 58.377 10.3143 58.377V58.377M10.3143 58.377C10.2631 58.377 10.2106 58.3631 10.1656 58.3388M10.3143 58.377V58.377C10.2631 58.377 10.2128 58.3643 10.1678 58.34C10.1671 58.3396 10.1663 58.3392 10.1656 58.3388M10.1656 58.3388C-3.74354 50.8171 1.13788 42.6976 5.65702 39.2694M10.1656 58.3388V58.3388ZM5.65702 39.2694C5.73455 39.2106 5.77425 39.1123 5.80984 39.0242C5.83517 38.9615 5.85843 38.9039 5.89176 38.8693M5.65702 39.2694C5.74028 39.2062 5.82342 39.1446 5.90632 39.0847C5.98173 39.0302 5.9728 38.9151 5.89176 38.8693V38.8693M6.02705 38.8495C6.04521 38.857 6.06141 38.8643 6.07427 38.8708M6.02705 38.8495C5.96535 38.8241 5.92388 38.836 5.89176 38.8693M6.02705 38.8495C5.88739 38.792 5.63208 38.7227 5.89176 38.8693M6.02705 38.8495C6.04827 38.8582 6.06237 38.8627 6.07096 38.8634M6.00369 38.7094C0.987906 27.0877 14.3133 25.2822 16.8444 25.8932M6.00369 38.7094C6.01966 38.7464 6.03997 38.7794 6.05589 38.8052C6.07895 38.8426 6.09281 38.8651 6.07096 38.8634M6.00369 38.7094C6.02576 38.7605 6.04818 38.8119 6.07096 38.8634M16.8444 25.8932C16.6837 25.8063 16.4822 25.6955 16.2536 25.5697C15.2323 25.008 13.6688 24.1479 12.771 23.7948M16.8444 25.8932C17.1959 26.083 17.3525 26.1582 17.1723 26.0239C17.104 25.973 16.9927 25.929 16.8444 25.8932ZM12.771 23.7948C12.6247 23.7372 12.4887 23.6502 12.3859 23.5314M12.771 23.7948V23.7948C12.6258 23.7377 12.4916 23.6534 12.3895 23.5355C12.3883 23.5341 12.3871 23.5327 12.3859 23.5314M12.3859 23.5314C8.59306 19.1455 12.7376 14.4441 15.3224 12.6205C17.4713 11.2398 19.5047 11.1091 20.3315 11.2221M20.3315 11.2221C20.3834 11.2292 20.4356 11.234 20.488 11.234M20.3315 11.2221V11.2221C20.3833 11.2292 20.4356 11.234 20.488 11.234V11.234M20.488 11.234H21.8704M21.8704 11.234C22.3515 11.234 22.7489 10.8664 22.826 10.3919M21.8704 11.234V11.234C22.3502 11.234 22.749 10.8654 22.826 10.3919V10.3919M73.5482 77.6659L73.5499 77.6656C75.0129 77.4273 77.1559 76.9244 78.4239 76.1148L78.4263 76.1133M78.9811 75.9245C78.7845 75.9455 78.5932 76.0073 78.4263 76.1133M78.9811 75.9245V75.9245C78.7844 75.9447 78.5929 76.0067 78.4263 76.1133V76.1133M6.07096 38.8634C6.07206 38.8659 6.07316 38.8683 6.07427 38.8708M6.07427 38.8708C6.08486 38.8763 6.09319 38.8812 6.09848 38.8854C6.1133 38.8971 6.08192 38.8881 6.07427 38.8708V38.8708ZM59.7169 84.2594C59.7169 83.7643 59.4405 83.5178 59.1653 83.4089C58.9374 83.3188 58.6946 83.4323 58.5213 83.6056V83.6056C58.1601 83.9666 58.1601 84.5522 58.5213 84.9132V84.9132C58.6946 85.0864 58.9374 85.2 59.1653 85.1098C59.4405 85.001 59.7169 84.7545 59.7169 84.2594ZM66.6535 46.8223C66.6535 46.3272 66.3771 46.0807 66.1019 45.9719C65.874 45.8817 65.6313 45.9953 65.4579 46.1685V46.1685C65.0967 46.5295 65.0967 47.1151 65.4579 47.4761V47.4761C65.6313 47.6494 65.874 47.7629 66.1019 47.6728C66.3771 47.5639 66.6535 47.3174 66.6535 46.8223ZM58.3298 9.84769V9.84769C58.5851 10.1028 58.9989 10.1028 59.2542 9.84769V9.84769C59.5097 9.59233 59.5097 9.17816 59.2542 8.9228V8.9228C58.9989 8.66765 58.5851 8.66765 58.3298 8.9228V8.9228C58.0743 9.17816 58.0743 9.59233 58.3298 9.84769ZM74.5153 47.2848V47.2848C74.7706 47.5399 75.1844 47.5399 75.4397 47.2848V47.2848C75.6952 47.0294 75.6952 46.6152 75.4397 46.3599V46.3599C75.1844 46.1047 74.7706 46.1047 74.5153 46.3599V46.3599C74.2598 46.6152 74.2598 47.0294 74.5153 47.2848Z" stroke="black" stroke-opacity="0.5"/>
<defs>
<linearGradient id="paint0_linear_42_6322" x1="4" y1="12.6191" x2="99.5" y2="72.1191" gradientUnits="userSpaceOnUse">
<stop offset="0.0161395" stop-color="#EDE3FF"/>
<stop offset="1" stop-color="#E2FDFF"/>
</linearGradient>
<linearGradient id="paint1_linear_42_6322" x1="4" y1="12.6191" x2="99.5" y2="72.1191" gradientUnits="userSpaceOnUse">
<stop offset="0.0161395" stop-color="#EDE3FF"/>
<stop offset="1" stop-color="#E2FDFF"/>
</linearGradient>
</defs>
</svg>
