<svg width="100" height="103" viewBox="0 0 100 103" fill="none" xmlns="http://www.w3.org/2000/svg">
<path d="M99 98.1651V2.38785C99 2.3221 98.9368 2.27448 98.8734 2.2921C88.8269 5.08764 84.6344 18.6936 83.7931 25.1735V56.5769C83.7931 61.2924 88.2283 64.727 90.4982 65.8859C90.5318 65.9031 90.5517 65.9369 90.5517 65.9747V98.1651C90.5517 99.2968 91.3966 101.56 94.7759 101.56C98.1552 101.56 99 99.2968 99 98.1651Z" fill="url(#paint0_linear_17_25)"/>
<path d="M8.60345 98.1528V37.9941C8.60345 37.9431 8.56698 37.9007 8.51648 37.894C5.95494 37.5582 1 34.7493 1 26.0222H8.60345H16.2069H23.8103C23.8103 34.0953 18.2811 37.2802 15.4404 37.8883C15.3938 37.8983 15.3621 37.9389 15.3621 37.9865V98.1528C15.3621 98.161 15.3612 98.1688 15.3592 98.1766C15.0732 99.3121 14.0035 101.56 11.9828 101.56C9.96204 101.56 8.89232 99.3121 8.60634 98.1766C8.60435 98.1688 8.60345 98.161 8.60345 98.1528Z" fill="url(#paint1_linear_17_25)"/>
<path d="M77.0345 52.3332C77.0345 31.2844 59.2931 25.1735 50 25.1735C39.8621 25.1735 23.8103 32.6424 23.8103 52.3332C23.8103 72.0239 42.3966 77.5124 51.6897 77.7954C60.1379 78.0783 77.0345 73.3819 77.0345 52.3332Z" fill="url(#paint2_linear_17_25)"/>
<path d="M23.8103 26.0222C23.8103 34.0953 18.2811 37.2801 15.4404 37.8883C15.3938 37.8983 15.3621 37.9389 15.3621 37.9865V98.1528C15.3621 98.161 15.3612 98.1688 15.3592 98.1766C15.0732 99.3121 14.0035 101.56 11.9828 101.56C9.96204 101.56 8.89232 99.3121 8.60634 98.1766C8.60435 98.1688 8.60345 98.161 8.60345 98.1528V37.9941C8.60345 37.9431 8.56698 37.9007 8.51648 37.894C5.95494 37.5582 1 34.7493 1 26.0222M23.8103 26.0222C23.8103 17.8743 23.8103 5.6525 23.8103 0.560059M23.8103 26.0222H16.2069M1 26.0222C1 17.1954 1 5.36958 1 0.560059V26.0222ZM1 26.0222H8.60345M8.60345 26.0222V0.560059M8.60345 26.0222H16.2069M16.2069 26.0222V0.560059M33.1034 20.0811C41.2701 16.6861 61.1517 13.1214 75.3448 26.0222M78.7241 74.4004C73.092 82.322 55.5759 95.1096 30.569 82.8878M31.4138 47.2407C31.977 44.1287 34.7931 37.2256 41.5517 34.5096M99 98.1651V2.38785C99 2.3221 98.9368 2.27448 98.8734 2.2921C88.8269 5.08764 84.6344 18.6936 83.7931 25.1735C83.7931 33.6609 83.7931 51.8239 83.7931 56.5769C83.7931 61.2924 88.2283 64.727 90.4982 65.8859C90.5318 65.9031 90.5517 65.9369 90.5517 65.9747V98.1651C90.5517 99.2968 91.3966 101.56 94.7759 101.56C98.1552 101.56 99 99.2968 99 98.1651ZM50 25.1735C59.2931 25.1735 77.0345 31.2844 77.0345 52.3332C77.0345 73.3819 60.1379 78.0783 51.6897 77.7954C42.3966 77.5124 23.8103 72.0239 23.8103 52.3332C23.8103 32.6424 39.8621 25.1735 50 25.1735Z" stroke="black" stroke-opacity="0.5"/>
<defs>
<linearGradient id="paint0_linear_17_25" x1="-53.8508" y1="-11.1225" x2="121.582" y2="55.7499" gradientUnits="userSpaceOnUse">
<stop offset="0.51" stop-color="#FFF4E8"/>
<stop offset="1" stop-color="#FFE4FF"/>
</linearGradient>
<linearGradient id="paint1_linear_17_25" x1="-53.8508" y1="-11.1225" x2="121.582" y2="55.7499" gradientUnits="userSpaceOnUse">
<stop offset="0.51" stop-color="#FFF4E8"/>
<stop offset="1" stop-color="#FFE4FF"/>
</linearGradient>
<linearGradient id="paint2_linear_17_25" x1="-53.8508" y1="-11.1225" x2="121.582" y2="55.7499" gradientUnits="userSpaceOnUse">
<stop offset="0.51" stop-color="#FFF4E8"/>
<stop offset="1" stop-color="#FFE4FF"/>
</linearGradient>
</defs>
</svg>
