<svg width="92" height="92" viewBox="0 0 92 92" fill="none" xmlns="http://www.w3.org/2000/svg">
<path fill-rule="evenodd" clip-rule="evenodd" d="M6.32544 72.6711H17.5089H25.3289C25.8174 67.9749 27.9327 63.6597 32.9527 61.1354C33.6627 53.0606 37.3195 36.7957 46.2663 36.3343C55.213 35.8728 58.8698 52.6761 59.5799 61.1354C62.3719 63.1514 65.9544 67.2072 67.3189 72.6711H75.0237H86.2071C89.6154 72.6711 90.8225 69.2105 91 67.4801V6.34237C91 1.26678 86.7396 0.3824 84.6095 0.574657H6.32544C2.49112 0.574657 1.17751 4.4198 1 6.34237V14.9937V67.4801C1 71.1715 4.5503 72.4788 6.32544 72.6711ZM10.0533 7.4957L8.98817 6.34215L7.92308 7.4957L8.98817 8.64924L10.0533 7.4957ZM16.4438 7.4957L15.3787 6.34215L14.3136 7.4957L15.3787 8.64924L16.4438 7.4957ZM23.3669 7.4957L22.3018 6.34215L21.2367 7.4957L22.3018 8.64924L23.3669 7.4957Z" fill="url(#paint0_linear_42_6316)"/>
<path fill-rule="evenodd" clip-rule="evenodd" d="M46.2663 36.3343C37.3195 36.7957 33.6627 53.0606 32.9527 61.1354C33.1302 66.5186 33.8047 78.0925 35.0828 81.3224H39.3432H53.1894H57.4497C59.1538 77.1697 59.5799 66.1341 59.5799 61.1354C58.8698 52.6761 55.213 35.8728 46.2663 36.3343ZM50.5266 57.098C50.5266 53.8681 47.6864 52.6761 46.2663 52.4839C44.8462 52.6761 42.0059 53.8681 42.0059 57.098C42.0059 60.328 44.8462 61.52 46.2663 61.7122C47.6864 61.52 50.5266 60.328 50.5266 57.098Z" fill="url(#paint1_linear_42_6316)"/>
<path d="M59.5799 61.1354C59.5799 66.1341 59.1538 77.1697 57.4497 81.3224L62.463 89.2201C62.877 89.8723 63.7611 89.8887 64.167 89.2305C68.038 82.9545 68.4765 77.3061 67.3189 72.6711C65.9544 67.2072 62.3719 63.1514 59.5799 61.1354Z" fill="url(#paint2_linear_42_6316)"/>
<path d="M35.0828 81.3224C33.8047 78.0925 33.1302 66.5186 32.9527 61.1354C27.9327 63.6597 25.8174 67.9749 25.3289 72.6711C24.738 78.3526 26.5281 84.5919 28.4363 88.8922C28.7793 89.6651 29.7526 89.7194 30.2012 89.0127L35.0828 81.3224Z" fill="url(#paint3_linear_42_6316)"/>
<path fill-rule="evenodd" clip-rule="evenodd" d="M8.98817 6.34215L10.0533 7.4957L8.98817 8.64924L7.92308 7.4957L8.98817 6.34215ZM15.3787 6.34215L16.4438 7.4957L15.3787 8.64924L14.3136 7.4957L15.3787 6.34215ZM22.3018 6.34215L23.3669 7.4957L22.3018 8.64924L21.2367 7.4957L22.3018 6.34215ZM50.5266 57.098C50.5266 53.8681 47.6864 52.6761 46.2663 52.4839C44.8462 52.6761 42.0059 53.8681 42.0059 57.098C42.0059 60.328 44.8462 61.52 46.2663 61.7122C47.6864 61.52 50.5266 60.328 50.5266 57.098Z" fill="url(#paint4_linear_42_6316)"/>
<path d="M53.1894 81.3224H39.3432C39.6982 83.4373 40.5148 87.7823 40.9408 88.2437C40.9927 88.2999 41.0496 88.367 41.1136 88.4424C41.7061 89.1411 42.9016 90.5508 46.2663 90.5508C49.1577 90.5508 50.6141 89.1049 51.0237 88.316C51.0484 88.2684 51.0672 88.2177 51.0831 88.1659L53.1894 81.3224Z" fill="url(#paint5_linear_42_6316)"/>
<path d="M1 67.4801C1 71.1715 4.5503 72.4788 6.32544 72.6711H17.5089H25.3289M1 67.4801C1 64.2911 1 35.0433 1 14.9937M1 67.4801V14.9937M1 6.34237C1.17751 4.4198 2.49112 0.574657 6.32544 0.574657M1 6.34237C1 8.90613 1 11.8358 1 14.9937M1 6.34237V14.9937M6.32544 0.574657C10.1598 0.574657 60.1124 0.574657 84.6095 0.574657M6.32544 0.574657H84.6095M84.6095 0.574657C86.7396 0.3824 91 1.26678 91 6.34237M91 6.34237C91 11.418 91 49.2157 91 67.4801M91 6.34237V67.4801M91 67.4801C90.8225 69.2105 89.6154 72.6711 86.2071 72.6711M86.2071 72.6711C82.7988 72.6711 77.3314 72.6711 75.0237 72.6711M86.2071 72.6711H75.0237M75.0237 72.6711H67.3189M83.0118 10.9563H33.4852C32.4201 10.9563 30.1834 11.187 29.7574 12.1099C29.2249 13.2634 27.6272 14.9937 23.3669 14.9937C19.9586 14.9937 7.0355 14.9937 1 14.9937M57.4497 81.3224C59.1538 77.1697 59.5799 66.1341 59.5799 61.1354M57.4497 81.3224H53.1894M57.4497 81.3224L62.463 89.2201M35.0828 81.3224C33.8047 78.0925 33.1302 66.5186 32.9527 61.1354M35.0828 81.3224H39.3432M35.0828 81.3224L30.2012 89.0127M32.9527 61.1354C33.6627 53.0606 37.3195 36.7957 46.2663 36.3343C55.213 35.8728 58.8698 52.6761 59.5799 61.1354M32.9527 61.1354C27.9327 63.6597 25.8174 67.9749 25.3289 72.6711M59.5799 61.1354C62.3719 63.1514 65.9544 67.2072 67.3189 72.6711M53.1894 81.3224H39.3432M53.1894 81.3224L51.0831 88.1659M39.3432 81.3224C39.6982 83.4373 40.5148 87.7823 40.9408 88.2437C40.9927 88.2999 41.0496 88.367 41.1136 88.4424C41.7061 89.1411 42.9016 90.5508 46.2663 90.5508C49.1577 90.5508 50.6141 89.1049 51.0237 88.316M25.3289 72.6711C24.738 78.3526 26.5281 84.5919 28.4363 88.8922M67.3189 72.6711C68.4765 77.3061 68.038 82.9545 64.167 89.2305M64.167 89.2305C63.7611 89.8887 62.877 89.8723 62.463 89.2201M64.167 89.2305C63.8974 89.6676 63.6112 88.9542 63.3077 89.3972L62.463 89.2201M51.0831 88.1659C51.0672 88.2177 51.0484 88.2684 51.0237 88.316M51.0831 88.1659L51.0592 88.2437C51.0484 88.2671 51.0365 88.2912 51.0237 88.316M30.2012 89.0127C29.7526 89.7194 28.7793 89.6651 28.4363 88.8922M30.2012 89.0127L29.2734 89.0429C29.0123 88.5311 28.6989 89.484 28.4363 88.8922M8.98817 6.34215L10.0533 7.4957L8.98817 8.64924L7.92308 7.4957L8.98817 6.34215ZM15.3787 6.34215L16.4438 7.4957L15.3787 8.64924L14.3136 7.4957L15.3787 6.34215ZM22.3018 6.34215L23.3669 7.4957L22.3018 8.64924L21.2367 7.4957L22.3018 6.34215ZM46.2663 52.4839C47.6864 52.6761 50.5266 53.8681 50.5266 57.098C50.5266 60.328 47.6864 61.52 46.2663 61.7122C44.8462 61.52 42.0059 60.328 42.0059 57.098C42.0059 53.8681 44.8462 52.6761 46.2663 52.4839Z" stroke="black" stroke-opacity="0.5"/>
<defs>
<linearGradient id="paint0_linear_42_6316" x1="4" y1="12.1699" x2="99.5" y2="71.6699" gradientUnits="userSpaceOnUse">
<stop offset="0.0161395" stop-color="#EDE3FF"/>
<stop offset="1" stop-color="#E2FDFF"/>
</linearGradient>
<linearGradient id="paint1_linear_42_6316" x1="4" y1="12.1699" x2="99.5" y2="71.6699" gradientUnits="userSpaceOnUse">
<stop offset="0.0161395" stop-color="#EDE3FF"/>
<stop offset="1" stop-color="#E2FDFF"/>
</linearGradient>
<linearGradient id="paint2_linear_42_6316" x1="4" y1="12.1699" x2="99.5" y2="71.6699" gradientUnits="userSpaceOnUse">
<stop offset="0.0161395" stop-color="#EDE3FF"/>
<stop offset="1" stop-color="#E2FDFF"/>
</linearGradient>
<linearGradient id="paint3_linear_42_6316" x1="4" y1="12.1699" x2="99.5" y2="71.6699" gradientUnits="userSpaceOnUse">
<stop offset="0.0161395" stop-color="#EDE3FF"/>
<stop offset="1" stop-color="#E2FDFF"/>
</linearGradient>
<linearGradient id="paint4_linear_42_6316" x1="4" y1="12.1699" x2="99.5" y2="71.6699" gradientUnits="userSpaceOnUse">
<stop offset="0.0161395" stop-color="#EDE3FF"/>
<stop offset="1" stop-color="#E2FDFF"/>
</linearGradient>
<linearGradient id="paint5_linear_42_6316" x1="4" y1="12.1699" x2="99.5" y2="71.6699" gradientUnits="userSpaceOnUse">
<stop offset="0.0161395" stop-color="#EDE3FF"/>
<stop offset="1" stop-color="#E2FDFF"/>
</linearGradient>
</defs>
</svg>
