<svg width="124" height="102" viewBox="0 0 124 102" fill="none" xmlns="http://www.w3.org/2000/svg">
<path d="M123.25 24.3389V99.7501C123.25 99.8049 123.206 99.8494 123.151 99.8501L108.482 100.038L23.0816 101.13C15.8044 101.558 1.25 98.8237 1.25 84.4706V16.5497C1.67807 11.4236 5.35947 1.17139 16.6605 1.17139H79.5868C85.1518 1.17139 95.7679 5.78488 93.7132 24.2389H108.482H123.15C123.205 24.2389 123.25 24.2836 123.25 24.3389Z" fill="url(#paint0_linear_17_288)"/>
<path d="M93.7132 24.2389C95.7679 5.78488 85.1518 1.17139 79.5868 1.17139C63.3202 1.17139 27.9616 1.17139 16.6605 1.17139C5.35947 1.17139 1.67807 11.4236 1.25 16.5497V84.4706M93.7132 24.2389V78.0629M93.7132 24.2389H108.482M1.25 84.4706C1.25 98.8237 15.8044 101.558 23.0816 101.13L108.482 100.038M1.25 84.4706C1.25 70.1175 15.8044 68.2379 23.0816 69.0923H24.3658M93.7132 78.0629C93.7132 70.8864 87.7202 69.0923 84.7237 69.0923H24.3658M93.7132 78.0629C93.7132 85.234 87.7293 86.1778 84.7305 85.7531C84.7258 85.7524 84.7213 85.7521 84.7166 85.7521H24.4658C24.4106 85.7521 24.3658 85.7073 24.3658 85.6521V69.0923M108.482 24.2389H123.15C123.205 24.2389 123.25 24.2836 123.25 24.3389V99.7501C123.25 99.8049 123.206 99.8494 123.151 99.8501L108.482 100.038M108.482 24.2389V33.2095M108.482 46.0248V56.277M108.482 68.6241V79.3445M108.482 90.8782V100.038" stroke="black" stroke-opacity="0.5"/>
<defs>
<linearGradient id="paint0_linear_17_288" x1="-67.0336" y1="-10.3955" x2="136.371" y2="87.0928" gradientUnits="userSpaceOnUse">
<stop offset="0.51" stop-color="#FFF4E8"/>
<stop offset="1" stop-color="#FFE4FF"/>
</linearGradient>
</defs>
</svg>
