<svg width="186" height="65" viewBox="0 0 186 65" fill="none" xmlns="http://www.w3.org/2000/svg">
<path d="M70.7676 26.6405H67.5464V22.7243H63.6976V26.6405H61.3799V29.6201H63.6976V38.7081C63.6763 41.7835 65.9092 43.2947 68.8008 43.2095C69.8961 43.1775 70.6508 42.9648 71.0653 42.8266L70.4168 39.8148C70.204 39.8681 69.7686 39.964 69.2899 39.964C68.3224 39.964 67.5464 39.6234 67.5464 38.0699V29.6201H70.7676V26.6405ZM73.9864 42.9861H77.8352V26.6405H73.9864V42.9861ZM75.9216 24.3206C77.1441 24.3206 78.1435 23.3841 78.1435 22.2349C78.1435 21.0749 77.1441 20.1384 75.9216 20.1384C74.6882 20.1384 73.6888 21.0749 73.6888 22.2349C73.6888 23.3841 74.6882 24.3206 75.9216 24.3206ZM85.6415 33.4087C85.6415 31.0461 87.0663 29.6841 89.0971 29.6841C91.0849 29.6841 92.2757 30.9929 92.2757 33.1745V42.9861H96.1245V32.5786C96.1352 28.6624 93.9023 26.4277 90.5323 26.4277C88.087 26.4277 86.4072 27.5982 85.6628 29.418H85.4713V26.6405H81.793V42.9861H85.6415V33.4087ZM101.844 49.0839C104.842 49.0839 106.576 47.5301 107.5 44.9654L114.06 26.6618L109.946 26.6405L106.171 38.9848H106.001L102.238 26.6405H98.1553L104.077 43.3267L103.748 44.21C103.014 46.0188 101.908 46.1574 100.228 45.6786L99.3355 48.6687C99.8565 48.8925 100.792 49.0839 101.844 49.0839ZM116.902 42.9861H120.687V40.4108H120.91C121.516 41.6027 122.781 43.2734 125.588 43.2734C129.436 43.2734 132.318 40.2194 132.318 34.8347C132.318 29.3861 129.352 26.4277 125.577 26.4277C122.696 26.4277 121.495 28.1622 120.91 29.3435H120.75V21.192H116.902V42.9861ZM120.676 34.8134C120.676 31.6422 122.037 29.5882 124.514 29.5882C127.076 29.5882 128.395 31.7698 128.395 34.8134C128.395 37.8781 127.055 40.1128 124.514 40.1128C122.058 40.1128 120.676 37.9847 120.676 34.8134ZM135.589 42.9861H139.438V26.6405H135.589V42.9861ZM137.525 24.3206C138.747 24.3206 139.747 23.3841 139.747 22.2349C139.747 21.0749 138.747 20.1384 137.525 20.1384C136.291 20.1384 135.292 21.0749 135.292 22.2349C135.292 23.3841 136.291 24.3206 137.525 24.3206ZM143.396 42.9861H147.245V33.3766C147.245 31.3016 148.808 29.833 150.923 29.833C151.572 29.833 152.38 29.9501 152.71 30.0564V26.5129C152.359 26.449 151.753 26.4065 151.327 26.4065C149.456 26.4065 147.893 27.4706 147.298 29.3648H147.128V26.6405H143.396V42.9861ZM160.654 43.2734C163.462 43.2734 164.726 41.6027 165.332 40.4108H165.566V42.9861H169.35V21.192H165.491V29.3435H165.332C164.747 28.1622 163.545 26.4277 160.665 26.4277C156.891 26.4277 153.924 29.3861 153.924 34.8347C153.924 40.2194 156.805 43.2734 160.654 43.2734ZM161.728 40.1128C159.187 40.1128 157.847 37.8781 157.847 34.8134C157.847 31.7698 159.166 29.5882 161.728 29.5882C164.205 29.5882 165.566 31.6422 165.566 34.8134C165.566 37.9847 164.184 40.1128 161.728 40.1128Z" fill="#25283D"/>
<path opacity="0.6" d="M48.6608 17.5964L37.4451 14.5173L33.499 23.344L48.6608 17.5964Z" fill="#268472"/>
<path opacity="0.6" d="M38.1129 39.2659L27.8911 35.113L21.6328 50.4777L38.1129 39.2659Z" fill="#268472"/>
<path d="M12.7334 30.3342L37.9348 39.3622L42.0681 20.0745L12.7334 30.3342Z" fill="#268472"/>
</svg>
