<svg width="101" height="102" viewBox="0 0 101 102" fill="none" xmlns="http://www.w3.org/2000/svg">
<path d="M45.2784 95.856L40.1844 100.929C40.1454 100.968 40.0823 100.968 40.0433 100.929L24.2527 85.2028C22.2425 88.0455 17.1795 92.6927 13.0096 88.5398C8.83975 84.3869 13.3571 79.1963 16.137 77.1201L0.571143 61.6174C0.531899 61.5783 0.531899 61.5148 0.571143 61.4757L6.70282 55.3689C6.73376 55.3381 6.78113 55.3309 6.81981 55.3512L26.5617 65.6995C31.4266 59.124 42.1988 45.1424 46.3686 41.8201L10.9741 21.0835C10.9435 21.0655 10.9247 21.0327 10.9247 20.9972V10.778C10.9247 10.7205 10.973 10.6749 11.0304 10.6781L28.6774 11.6798L47.9973 12.7763L74.1037 14.2581C74.6152 13.7283 75.1012 13.224 75.5578 12.7495C80.7701 7.21223 92.6543 -2.6164 98.4921 2.36713C104.33 7.35066 96.0597 18.9783 91.1948 24.1692L88.0674 27.284C88.5093 28.1641 89.1657 40.1576 89.7887 54.278C90.0567 60.3523 90.3185 66.8202 90.5543 72.9663C90.8033 79.4545 91.0234 85.5841 91.1913 90.5135C91.1933 90.57 91.1479 90.6163 91.0914 90.6163H80.8272C80.7918 90.6163 80.7591 90.5976 80.7411 90.5671L59.9207 55.3171C53.3184 61.8929 39.4883 75.252 36.9864 76.0819L45.2999 95.7462C45.3158 95.7837 45.3073 95.8272 45.2784 95.856Z" fill="url(#paint0_linear_17_305)"/>
<path d="M36.9864 76.0819L45.2999 95.7462C45.3158 95.7837 45.3073 95.8272 45.2784 95.856L40.1844 100.929C40.1454 100.968 40.0823 100.968 40.0433 100.929L24.2527 85.2028M36.9864 76.0819L26.5617 65.6995M36.9864 76.0819C39.4884 75.252 53.3184 61.8929 59.9207 55.3171M26.5617 65.6995L6.81981 55.3512C6.78113 55.3309 6.73376 55.3381 6.70282 55.3689L0.571143 61.4757C0.531899 61.5148 0.531899 61.5783 0.571143 61.6174L16.137 77.1201M26.5617 65.6995C31.4266 59.124 42.1988 45.1424 46.3686 41.8201M46.3686 41.8201L10.9741 21.0835C10.9435 21.0655 10.9247 21.0327 10.9247 20.9972V10.778C10.9247 10.7205 10.973 10.6749 11.0304 10.6781L47.9973 12.7763M46.3686 41.8201C50.3003 38.6875 65.6621 23.0021 74.1037 14.2581M59.9207 55.3171L80.7411 90.5671C80.7591 90.5976 80.7918 90.6163 80.8272 90.6163H91.0914C91.1479 90.6163 91.1933 90.57 91.1913 90.5135C91.0234 85.584 90.8033 79.4545 90.5543 72.9663M59.9207 55.3171L88.0674 27.284M88.0674 27.284L91.1948 24.1692C96.0597 18.9783 104.33 7.35066 98.4921 2.36713C92.6543 -2.6164 80.7701 7.21223 75.5578 12.7495C75.1012 13.224 74.6152 13.7283 74.1037 14.2581M88.0674 27.284C88.5093 28.1641 89.1657 40.1576 89.7887 54.278M74.1037 14.2581L47.9973 12.7763M89.7887 54.278L94.3222 49.7629M89.7887 54.278C90.0567 60.3523 90.3185 66.8202 90.5543 72.9663M95.3647 67.7751L90.5543 72.9663M28.6467 11.7104L34.9015 5.48096M47.9973 12.7763L52.6235 7.55743M16.137 77.1201C13.3571 79.1963 8.83975 84.3869 13.0096 88.5398C17.1795 92.6927 22.2425 88.0455 24.2527 85.2028M16.137 77.1201L24.2527 85.2028" stroke="black" stroke-opacity="0.5"/>
<defs>
<linearGradient id="paint0_linear_17_305" x1="-55.4702" y1="-10.5674" x2="122.142" y2="59.2084" gradientUnits="userSpaceOnUse">
<stop offset="0.51" stop-color="#FFF4E8"/>
<stop offset="1" stop-color="#FFE4FF"/>
</linearGradient>
</defs>
</svg>
