<svg width="101" height="101" viewBox="0 0 101 101" fill="none" xmlns="http://www.w3.org/2000/svg">
<path d="M58.9513 61.9485C58.9513 64.0991 57.1304 64.6367 56.2199 64.6367C55.3095 64.6367 53.4885 64.0991 53.4885 61.9485C53.4182 60.9874 53.8995 59.0653 56.3875 59.0653V47.558C55.7893 47.5719 55.3402 48.0887 55.1274 48.5077C51.1214 55.6761 42.8908 70.3356 42.0168 71.6259C41.1428 72.9163 41.2884 73.2388 41.4705 73.2388C48.4628 76.2496 48.955 81.3034 48.327 83.4539H64.414C63.8677 76.4647 70.9693 73.2388 71.5156 73.2388C71.9526 73.2388 71.3335 72.1636 70.9693 71.6259L57.8587 48.5077C57.3138 47.7926 56.813 47.5481 56.3875 47.558V59.0653C57.8587 59.0653 58.9513 60.2281 58.9513 61.9485Z" fill="url(#paint0_linear_8_220)"/>
<path d="M95.5516 0.658203H16.3419C12.8458 0.658203 11.9717 2.80874 11.9717 3.88401V14.6367V17.8625H23.4435V12.4862C23.4435 11.9485 23.8805 10.8733 25.6286 10.8733H38.7392L46.387 18.4001H100.468V4.42164C100.468 1.41089 97.1904 0.658203 95.5516 0.658203Z" fill="url(#paint1_linear_8_220)"/>
<path fill-rule="evenodd" clip-rule="evenodd" d="M96.6442 77.5399C100.14 77.5399 100.65 74.3141 100.468 72.7012V18.4001H46.387L38.7392 10.8733H25.6286C23.8805 10.8733 23.4435 11.9485 23.4435 12.4862V17.8625H11.9717V14.6367H4.32392C1.7018 14.6367 0.682091 17.1457 0.5 18.4001V87.755C0.5 90.7657 3.41346 91.5184 4.87019 91.5184H43.1093V85.6044C43.1093 84.8876 43.5464 83.4539 45.2944 83.4539H48.327C48.955 81.3034 48.4628 76.2496 41.4705 73.2388C41.2884 73.2388 41.1428 72.9163 42.0168 71.6259C42.8908 70.3356 51.1214 55.6761 55.1274 48.5077C55.3402 48.0887 55.7893 47.5719 56.3875 47.558C56.813 47.5481 57.3138 47.7926 57.8587 48.5077L70.9693 71.6259C71.3335 72.1636 71.9526 73.2388 71.5156 73.2388C70.9693 73.2388 63.8677 76.4647 64.414 83.4539H67.1454C67.8737 83.4539 69.3305 83.9915 69.3305 86.1421V91.5184H86.265C88.8871 91.5184 89.5426 88.651 89.5426 87.2173V77.5399H96.6442ZM31.0913 56.5722H34.9152V65.1743H26.1749V56.5722H31.0913C30.9092 54.6009 32.0746 49.1528 38.1929 43.1313C44.3111 37.1098 49.8467 35.6044 51.8497 35.6044H29.4525C29.4525 36.6797 28.9062 39.3679 25.6286 39.3679C23.0065 39.3679 21.8047 36.6797 21.8047 35.6044C21.8047 34.1707 22.5695 31.3034 25.6286 31.3034C28.6877 31.3034 29.4525 34.1707 29.4525 35.6044H51.8497V30.7657H60.5901V35.6044H82.9873C82.9873 34.1707 84.0799 31.3034 87.3575 31.3034C90.0889 31.3034 91.1814 34.1707 91.1814 35.6044C91.1814 36.8589 90.4166 39.3679 87.3575 39.3679C84.2984 39.3679 82.9873 36.8589 82.9873 35.6044H60.5901C67.1454 37.3966 80.693 44.0991 82.441 56.5722H86.8112V65.1743H78.0709V56.5722H82.441C80.693 44.0991 67.1454 37.3966 60.5901 35.6044V39.3679H51.8497V35.6044C49.8467 35.6044 44.3111 37.1098 38.1929 43.1313C32.0746 49.1528 30.9092 54.6009 31.0913 56.5722Z" fill="url(#paint2_linear_8_220)"/>
<path d="M51.8497 30.7657V35.6044V39.3679H60.5901V35.6044V30.7657H51.8497Z" fill="url(#paint3_linear_8_220)"/>
<path d="M87.3575 31.3034C84.0799 31.3034 82.9873 34.1707 82.9873 35.6044C82.9873 36.8589 84.2984 39.3679 87.3575 39.3679C90.4166 39.3679 91.1814 36.8589 91.1814 35.6044C91.1814 34.1707 90.0889 31.3034 87.3575 31.3034Z" fill="url(#paint4_linear_8_220)"/>
<path d="M29.4525 35.6044C29.4525 34.1707 28.6877 31.3034 25.6286 31.3034C22.5695 31.3034 21.8047 34.1707 21.8047 35.6044C21.8047 36.6797 23.0065 39.3679 25.6286 39.3679C28.9062 39.3679 29.4525 36.6797 29.4525 35.6044Z" fill="url(#paint5_linear_8_220)"/>
<path d="M34.9152 56.5722H31.0913H26.1749V65.1743H34.9152V56.5722Z" fill="url(#paint6_linear_8_220)"/>
<path d="M86.8112 56.5722H82.441H78.0709V65.1743H86.8112V56.5722Z" fill="url(#paint7_linear_8_220)"/>
<path d="M56.2199 64.6367C57.1304 64.6367 58.9513 64.0991 58.9513 61.9485C58.9513 60.2281 57.8587 59.0653 56.3875 59.0653C53.8995 59.0653 53.4182 60.9874 53.4885 61.9485C53.4885 64.0991 55.3095 64.6367 56.2199 64.6367Z" fill="url(#paint8_linear_8_220)"/>
<path d="M69.3305 99.0453V91.5184V86.1421C69.3305 83.9915 67.8737 83.4539 67.1454 83.4539H64.414H48.327H45.2944C43.5464 83.4539 43.1093 84.8876 43.1093 85.6044V91.5184V99.0453C43.1093 100.336 44.9303 100.658 45.8407 100.658H66.0528C68.675 100.658 69.3305 99.5829 69.3305 99.0453Z" fill="url(#paint9_linear_8_220)"/>
<path d="M53.9885 61.9302L53.9872 61.912C53.9583 61.5175 54.0466 60.9189 54.3876 60.4342C54.7085 59.9779 55.2919 59.5653 56.3875 59.5653C57.5361 59.5653 58.4513 60.4554 58.4513 61.9485C58.4513 62.8574 58.0781 63.3792 57.6379 63.6911C57.1718 64.0214 56.5967 64.1367 56.2199 64.1367C55.8431 64.1367 55.268 64.0214 54.8019 63.6911C54.3617 63.3792 53.9885 62.8574 53.9885 61.9485V61.9302ZM56.8875 47.1292V47.0463L56.3759 47.0581C56.3757 47.0581 56.3756 47.0582 56.3754 47.0582L55.8875 47.0695V47.148C55.655 47.2296 55.4537 47.3588 55.2874 47.5015C55.0183 47.7323 54.8167 48.018 54.6863 48.2719C52.6835 51.8559 49.6274 57.3074 46.9623 62.0252C44.2856 66.7634 42.0249 70.7225 41.6028 71.3455C41.1585 72.0015 40.9289 72.4723 40.858 72.8149C40.8233 72.9825 40.8099 73.197 40.9104 73.3948C41.0047 73.5804 41.1649 73.6861 41.3313 73.7234C47.6511 76.4697 48.3372 80.8676 47.9335 82.9539H45.2944C44.2608 82.9539 43.5647 83.3885 43.1428 83.9651C42.7393 84.5167 42.6093 85.1644 42.6093 85.6044V91.0184H4.87019C4.2082 91.0184 3.21364 90.8438 2.4023 90.3408C1.61768 89.8543 1 89.0637 1 87.755V18.4375C1.08737 17.877 1.36106 17.042 1.89269 16.3536C2.4237 15.6659 3.19811 15.1367 4.32392 15.1367H11.4717V17.8625V18.3625H11.9717H23.4435H23.9435V17.8625V12.4862C23.9435 12.3352 24.0102 12.0612 24.2384 11.8272C24.4551 11.6051 24.8629 11.3733 25.6286 11.3733H38.5344L46.0363 18.7565L46.1822 18.9001H46.387H99.9681V72.7012V72.7293L99.9712 72.7573C100.055 73.4971 99.9745 74.5965 99.495 75.4887C99.037 76.341 98.201 77.0399 96.6442 77.0399H89.5426H89.0426V77.5399V87.2173C89.0426 87.877 88.8887 88.8631 88.4487 89.665C88.0211 90.4443 87.349 91.0184 86.265 91.0184H69.8305V86.1421C69.8305 84.9431 69.4187 84.1276 68.8426 83.6172C68.2833 83.1218 67.6137 82.9539 67.1454 82.9539H64.8878C64.8004 79.8909 66.2746 77.6255 67.8988 76.0886C68.7517 75.2814 69.6387 74.6833 70.3432 74.2882C70.6954 74.0907 70.9978 73.9463 71.2229 73.8529C71.3358 73.806 71.4247 73.7739 71.4876 73.7544C71.5194 73.7446 71.5381 73.7401 71.5462 73.7382C71.7021 73.7315 71.8889 73.6728 72.0241 73.5025C72.1517 73.3419 72.168 73.161 72.1657 73.052C72.1612 72.8382 72.0775 72.6101 72.0016 72.4351C71.8413 72.0653 71.5831 71.6423 71.3946 71.3623L58.2937 48.261L58.277 48.2315L58.2564 48.2046C57.819 47.6307 57.3592 47.2723 56.8875 47.1292ZM48.9488 82.9539C49.3586 80.374 48.3218 75.7366 41.882 72.8732C41.9525 72.6894 42.1088 72.3817 42.4308 71.9063C42.8828 71.2391 45.1744 67.2232 47.8329 62.517C50.5011 57.7939 53.5606 52.3362 55.5638 48.7516L55.5687 48.7429L55.5731 48.7341C55.6465 48.5897 55.7555 48.4331 55.8875 48.3067V58.5904C54.7754 58.7056 54.0282 59.207 53.5697 59.8588C53.0711 60.5676 52.951 61.4001 52.9886 61.9664C52.9937 63.198 53.5292 64.0149 54.2237 64.507C54.8957 64.9832 55.6863 65.1367 56.2199 65.1367C56.7536 65.1367 57.5441 64.9832 58.2161 64.507C58.914 64.0125 59.4513 63.1901 59.4513 61.9485C59.4513 60.1872 58.4128 58.8447 56.8875 58.6039V48.2326C57.0467 48.3418 57.2322 48.5148 57.441 48.7846L70.5344 71.8726L70.5442 71.8899L70.5553 71.9063C70.7301 72.1643 70.9564 72.5381 71.0841 72.8329C71.0844 72.8335 71.0846 72.8341 71.0849 72.8346C71.01 72.861 70.9277 72.8927 70.8395 72.9293C70.5738 73.0396 70.236 73.2018 69.8541 73.416C69.0905 73.8442 68.1339 74.4893 67.2114 75.3622C65.4563 77.0232 63.7988 79.5381 63.8874 82.9539H48.9488ZM41.8322 73.0526C41.8321 73.0527 41.8321 73.0512 41.8324 73.0476C41.8324 73.0507 41.8323 73.0524 41.8322 73.0526ZM12.4717 14.6367V14.1367V3.88401C12.4717 3.46421 12.6477 2.78701 13.2037 2.21701C13.7482 1.65885 14.7022 1.1582 16.3419 1.1582H95.5516C96.3136 1.1582 97.4532 1.33629 98.3831 1.84879C99.2901 2.3487 99.9681 3.14216 99.9681 4.42164V17.9001H46.5918L39.0899 10.5169L38.9439 10.3733H38.7392H25.6286C24.6462 10.3733 23.9614 10.6791 23.5226 11.129C23.0953 11.567 22.9435 12.0995 22.9435 12.4862V17.3625H12.4717V14.6367ZM68.8305 91.5184V92.0184V99.0453C68.8305 99.1488 68.5893 100.158 66.0528 100.158H45.8407C45.4278 100.158 44.817 100.083 44.3292 99.8755C43.8368 99.6661 43.6093 99.3942 43.6093 99.0453V92.0184V91.5184V85.6044C43.6093 85.3277 43.6979 84.9001 43.9499 84.5556C44.1836 84.2361 44.58 83.9539 45.2944 83.9539H47.6601H48.327H48.7019H63.9516H64.414H64.9546H67.1454C67.4054 83.9539 67.8284 84.0548 68.1795 84.3658C68.5139 84.662 68.8305 85.1905 68.8305 86.1421V91.5184ZM28.9525 35.6044C28.9525 36.0789 28.8283 36.9113 28.3557 37.609C27.9043 38.2754 27.1048 38.8679 25.6286 38.8679C24.51 38.8679 23.6876 38.3008 23.1278 37.5821C22.5529 36.8442 22.3047 36.0085 22.3047 35.6044C22.3047 34.9566 22.4811 33.9817 22.9906 33.1858C23.4828 32.4169 24.2881 31.8034 25.6286 31.8034C26.9691 31.8034 27.7744 32.4169 28.2666 33.1858C28.7761 33.9817 28.9525 34.9566 28.9525 35.6044ZM38.5436 43.4877C44.1189 38.0006 49.1542 36.3576 51.3497 36.1326V39.3679V39.8679H51.8497H60.5901H61.0901V39.3679V36.2685C64.3069 37.2384 68.9211 39.2804 73.0104 42.4769C77.2372 45.7809 80.8608 50.2833 81.857 56.0722H78.0709H77.5709V56.5722V65.1743V65.6743H78.0709H86.8112H87.3112V65.1743V56.5722V56.0722H86.8112H82.871C81.8609 49.8737 78.0104 45.1161 73.6262 41.689C70.3253 39.1088 66.6974 37.2625 63.6834 36.1044H82.5352C82.6605 36.7944 83.0323 37.6051 83.6547 38.2922C84.4525 39.1731 85.6765 39.8679 87.3575 39.8679C89.0467 39.8679 90.1525 39.1644 90.8202 38.2518C91.4695 37.3642 91.6814 36.3133 91.6814 35.6044C91.6814 34.7876 91.3783 33.6136 90.7061 32.6335C90.0227 31.6371 88.927 30.8034 87.3575 30.8034C85.55 30.8034 84.3151 31.6035 83.5456 32.6132C82.9347 33.4149 82.6187 34.3446 82.521 35.1044H61.0901V30.7657V30.2657H60.5901H51.8497H51.3497V30.7657V35.1044H29.9273C29.8558 34.3669 29.6222 33.4487 29.1088 32.6467C28.4538 31.6235 27.3472 30.8034 25.6286 30.8034C23.9099 30.8034 22.8033 31.6235 22.1483 32.6467C21.5106 33.643 21.3047 34.8185 21.3047 35.6044C21.3047 36.2756 21.6573 37.3217 22.3389 38.1967C23.0355 39.0909 24.125 39.8679 25.6286 39.8679C27.43 39.8679 28.5425 39.1163 29.1836 38.1698C29.6553 37.4735 29.8543 36.6994 29.9225 36.1044H47.6281C44.9552 37.1603 41.4908 39.1841 37.8422 42.775C32.118 48.4086 30.6112 53.6102 30.5746 56.0722H26.1749H25.6749V56.5722V65.1743V65.6743H26.1749H34.9152H35.4152V65.1743V56.5722V56.0722H34.9152H31.5746C31.6118 53.9542 32.9469 48.9958 38.5436 43.4877ZM84.3958 37.6209C83.7565 36.9151 83.4873 36.0902 83.4873 35.6044C83.4873 34.99 83.7287 34.0228 84.341 33.2193C84.9372 32.437 85.8874 31.8034 87.3575 31.8034C88.5194 31.8034 89.3356 32.4033 89.8814 33.1991C90.4383 34.0111 90.6814 34.9876 90.6814 35.6044C90.6814 36.15 90.5109 36.9809 90.0131 37.6614C89.5336 38.3168 88.7275 38.8679 87.3575 38.8679C85.9794 38.8679 85.0183 38.3082 84.3958 37.6209ZM52.3497 35.6044V35.1044V31.2657H60.0901V34.9494V35.6044V36.1044V38.8679H52.3497V36.1044V35.6044ZM31.0913 57.0722H34.4152V64.6743H26.6749V57.0722H31.0913ZM82.441 57.0722H83.016H86.3112V64.6743H78.5709V57.0722H82.0062H82.441Z" stroke="black" stroke-opacity="0.5"/>
<defs>
<linearGradient id="paint0_linear_8_220" x1="-55.4702" y1="-10.9087" x2="122.142" y2="58.8671" gradientUnits="userSpaceOnUse">
<stop offset="0.51" stop-color="#FFF4E8"/>
<stop offset="1" stop-color="#FFE4FF"/>
</linearGradient>
<linearGradient id="paint1_linear_8_220" x1="-55.4702" y1="-10.9087" x2="122.142" y2="58.8671" gradientUnits="userSpaceOnUse">
<stop offset="0.51" stop-color="#FFF4E8"/>
<stop offset="1" stop-color="#FFE4FF"/>
</linearGradient>
<linearGradient id="paint2_linear_8_220" x1="-55.4702" y1="-10.9087" x2="122.142" y2="58.8671" gradientUnits="userSpaceOnUse">
<stop offset="0.51" stop-color="#FFF4E8"/>
<stop offset="1" stop-color="#FFE4FF"/>
</linearGradient>
<linearGradient id="paint3_linear_8_220" x1="-55.4702" y1="-10.9087" x2="122.142" y2="58.8671" gradientUnits="userSpaceOnUse">
<stop offset="0.51" stop-color="#FFF4E8"/>
<stop offset="1" stop-color="#FFE4FF"/>
</linearGradient>
<linearGradient id="paint4_linear_8_220" x1="-55.4702" y1="-10.9087" x2="122.142" y2="58.8671" gradientUnits="userSpaceOnUse">
<stop offset="0.51" stop-color="#FFF4E8"/>
<stop offset="1" stop-color="#FFE4FF"/>
</linearGradient>
<linearGradient id="paint5_linear_8_220" x1="-55.4702" y1="-10.9087" x2="122.142" y2="58.8671" gradientUnits="userSpaceOnUse">
<stop offset="0.51" stop-color="#FFF4E8"/>
<stop offset="1" stop-color="#FFE4FF"/>
</linearGradient>
<linearGradient id="paint6_linear_8_220" x1="-55.4702" y1="-10.9087" x2="122.142" y2="58.8671" gradientUnits="userSpaceOnUse">
<stop offset="0.51" stop-color="#FFF4E8"/>
<stop offset="1" stop-color="#FFE4FF"/>
</linearGradient>
<linearGradient id="paint7_linear_8_220" x1="-55.4702" y1="-10.9087" x2="122.142" y2="58.8671" gradientUnits="userSpaceOnUse">
<stop offset="0.51" stop-color="#FFF4E8"/>
<stop offset="1" stop-color="#FFE4FF"/>
</linearGradient>
<linearGradient id="paint8_linear_8_220" x1="-55.4702" y1="-10.9087" x2="122.142" y2="58.8671" gradientUnits="userSpaceOnUse">
<stop offset="0.51" stop-color="#FFF4E8"/>
<stop offset="1" stop-color="#FFE4FF"/>
</linearGradient>
<linearGradient id="paint9_linear_8_220" x1="-55.4702" y1="-10.9087" x2="122.142" y2="58.8671" gradientUnits="userSpaceOnUse">
<stop offset="0.51" stop-color="#FFF4E8"/>
<stop offset="1" stop-color="#FFE4FF"/>
</linearGradient>
</defs>
</svg>
