<svg width="102" height="102" viewBox="0 0 102 102" fill="none" xmlns="http://www.w3.org/2000/svg">
<path d="M25.0293 61.002H34.5253C36.6355 60.3003 40.8559 57.6336 40.8559 52.581C40.8559 47.5374 44.3603 46.9689 46.122 47.3159C46.1284 47.3172 46.1347 47.3178 46.1413 47.3178H57.7376C59.1444 47.3185 62.169 48.372 63.0131 52.581C63.8572 56.7899 68.2886 59.9487 70.3988 61.002H85.1703C87.2805 61.0013 91.5009 62.0526 91.5009 66.2632V94.6842C91.5009 96.7895 90.4458 101 86.2254 101H66.1784C64.7716 101 61.536 100.579 59.8478 98.8947C57.7376 96.7895 50.3518 91.5263 44.0212 98.8947C43.3178 99.5965 41.0669 101 37.6906 101H16.5981C16.5915 101 16.5856 100.999 16.5791 100.998C14.8175 100.643 11.313 98.8873 11.313 94.6842V66.2632C11.313 64.5101 12.1571 61.0036 15.5334 61.002C18.9097 61.0004 23.2708 61.0013 25.0293 61.002Z" fill="url(#paint0_linear_17_58)"/>
<path d="M56.6728 8.35487L51.4883 1.11357C51.4484 1.05785 51.3655 1.05785 51.3256 1.11357L46.1411 8.35487C46.1347 8.36384 46.1268 8.37169 46.1179 8.37809L38.86 13.5501C38.804 13.59 38.804 13.6731 38.86 13.713L46.1153 18.8832C46.1259 18.8908 46.135 18.9005 46.142 18.9116L51.3222 27.1805C51.3614 27.2431 51.4525 27.2431 51.4917 27.1805L56.6719 18.9116C56.6789 18.9005 56.688 18.8908 56.6986 18.8832L63.9539 13.713C64.0099 13.6731 64.0099 13.59 63.9539 13.5501L56.696 8.37809C56.6871 8.37169 56.6792 8.36384 56.6728 8.35487Z" fill="url(#paint1_linear_17_58)"/>
<path d="M5.51828 32.5789C5.82483 29.0035 7.67372 25.8771 9.19619 24.1653C9.20064 24.1603 9.20531 24.156 9.21067 24.152C11.0546 22.7754 14.7287 21.1329 18.7019 21.8094C23.9774 17.3557 26.8744 16.7895 29.2529 17.8421C31.1557 18.6842 28.4601 24.6835 26.8744 27.5779C30.0631 33.0421 27.1729 39.303 25.0293 42.0526C22.7369 44.6665 16.8459 48.2539 10.5937 43.2959C8.72374 44.6358 4.35075 46.8947 1.8185 45.2105C-0.713749 43.5263 3.22992 36.0877 5.51828 32.5789Z" fill="url(#paint2_linear_17_58)"/>
<path d="M88.3871 15.765L100.95 23.0763C100.981 23.0942 101 23.1272 101 23.1628V24.1579V39.8899C101 39.9255 100.981 39.9584 100.95 39.9763L88.3387 47.3178L74.6751 39.9757C74.6426 39.9582 74.6224 39.9244 74.6224 39.8876V24.1579V23.1651C74.6224 23.1282 74.6426 23.0944 74.6751 23.077L88.2895 15.7633C88.3201 15.7469 88.3571 15.7475 88.3871 15.765Z" fill="url(#paint3_linear_17_58)"/>
<path d="M34.5253 61.002H25.0293C23.2708 61.0013 18.9097 61.0004 15.5334 61.002C12.1571 61.0036 11.313 64.5101 11.313 66.2632C11.313 73.9825 11.313 90.4737 11.313 94.6842C11.313 98.8873 14.8175 100.643 16.5791 100.998C16.5856 100.999 16.5915 101 16.5981 101C22.2294 101 34.3162 101 37.6906 101C41.0669 101 43.3178 99.5965 44.0212 98.8947C50.3518 91.5263 57.7376 96.7895 59.8478 98.8947C61.536 100.579 64.7716 101 66.1784 101C71.1022 101 82.005 101 86.2254 101C90.4458 101 91.5009 96.7895 91.5009 94.6842C91.5009 86.9649 91.5009 70.4737 91.5009 66.2632C91.5009 62.0526 87.2805 61.0013 85.1703 61.002H70.3988M34.5253 61.002C36.6355 60.3003 40.8559 57.6336 40.8559 52.581C40.8559 47.5374 44.3603 46.9689 46.122 47.3159C46.1284 47.3172 46.1347 47.3178 46.1413 47.3178H57.7376C59.1444 47.3185 62.169 48.372 63.0131 52.581C63.8572 56.7899 68.2886 59.9487 70.3988 61.002M34.5253 61.002H70.3988M23.9742 73.6316H79.8948M5.51828 32.5789C5.2584 35.6101 6.10702 38.9641 9.20277 42.0526C9.66752 42.5163 10.1316 42.9294 10.5937 43.2959M5.51828 32.5789C5.82483 29.0035 7.67372 25.8771 9.19619 24.1653C9.20064 24.1603 9.20531 24.156 9.21067 24.152C11.0546 22.7754 14.7287 21.1329 18.7019 21.8094M5.51828 32.5789C3.22992 36.0877 -0.713749 43.5263 1.8185 45.2105C4.35075 46.8947 8.72374 44.6358 10.5937 43.2959M10.5937 43.2959C16.8459 48.2539 22.7369 44.6665 25.0293 42.0526C27.1729 39.303 30.0631 33.0421 26.8744 27.5779M10.5937 43.2959C13.4692 42.0036 20.7511 37.0508 26.8744 27.5779M26.8744 27.5779C26.4009 26.7665 25.7933 25.9727 25.0293 25.2105C22.9875 23.1735 20.8029 22.1672 18.7019 21.8094M26.8744 27.5779C28.4601 24.6835 31.1557 18.6842 29.2529 17.8421C26.8744 16.7895 23.9774 17.3557 18.7019 21.8094M88.3387 47.3178L100.95 39.9763C100.981 39.9584 101 39.9255 101 39.8899V24.1579M88.3387 47.3178V31.5263M88.3387 47.3178L74.6751 39.9757C74.6426 39.9582 74.6224 39.9244 74.6224 39.8876V24.1579M88.3387 31.5263L101 24.1579M88.3387 31.5263L74.6224 24.1579M101 24.1579V23.1628C101 23.1272 100.981 23.0942 100.95 23.0763L88.3871 15.765C88.3571 15.7475 88.3201 15.7469 88.2895 15.7633L74.6751 23.077C74.6426 23.0944 74.6224 23.1282 74.6224 23.1651V24.1579M46.1179 8.37809L38.86 13.5501C38.804 13.59 38.804 13.6731 38.86 13.713L46.1153 18.8832C46.1259 18.8908 46.135 18.9005 46.142 18.9116L51.3222 27.1805C51.3614 27.2431 51.4525 27.2431 51.4917 27.1805L56.6719 18.9116C56.6789 18.9005 56.688 18.8908 56.6986 18.8832L63.9539 13.713C64.0099 13.6731 64.0099 13.59 63.9539 13.5501L56.696 8.37809C56.6871 8.37169 56.6792 8.36384 56.6728 8.35487L51.4883 1.11357C51.4484 1.05785 51.3655 1.05785 51.3256 1.11357L46.1411 8.35487C46.1347 8.36384 46.1268 8.37169 46.1179 8.37809Z" stroke="black" stroke-opacity="0.5"/>
<defs>
<linearGradient id="paint0_linear_17_58" x1="-54.9702" y1="-10.5669" x2="122.642" y2="59.2089" gradientUnits="userSpaceOnUse">
<stop offset="0.51" stop-color="#FFF4E8"/>
<stop offset="1" stop-color="#FFE4FF"/>
</linearGradient>
<linearGradient id="paint1_linear_17_58" x1="-54.9702" y1="-10.5669" x2="122.642" y2="59.2089" gradientUnits="userSpaceOnUse">
<stop offset="0.51" stop-color="#FFF4E8"/>
<stop offset="1" stop-color="#FFE4FF"/>
</linearGradient>
<linearGradient id="paint2_linear_17_58" x1="-54.9702" y1="-10.5669" x2="122.642" y2="59.2089" gradientUnits="userSpaceOnUse">
<stop offset="0.51" stop-color="#FFF4E8"/>
<stop offset="1" stop-color="#FFE4FF"/>
</linearGradient>
<linearGradient id="paint3_linear_17_58" x1="-54.9702" y1="-10.5669" x2="122.642" y2="59.2089" gradientUnits="userSpaceOnUse">
<stop offset="0.51" stop-color="#FFF4E8"/>
<stop offset="1" stop-color="#FFE4FF"/>
</linearGradient>
</defs>
</svg>
