<svg width="99" height="102" viewBox="0 0 99 102" fill="none" xmlns="http://www.w3.org/2000/svg">
<path fill-rule="evenodd" clip-rule="evenodd" d="M23.3518 100.71H74.2081C75.4444 100.71 76.4886 99.7712 76.4556 98.5402C76.2705 91.6448 72.4745 81.0671 57.8666 81.0671V72.7337C59.2606 71.5433 62.0488 67.9718 62.0488 63.2099V62.0196L53.0854 62.0194L50.2011 59.5568C49.4531 58.9182 48.3518 58.9182 47.6038 59.5568L44.7195 62.0194H35.7561V63.2099C36.2342 68.9242 39.5411 71.9401 41.1349 72.7337V81.0671C23.7279 81.0671 20.5161 91.9187 21.1318 98.8044C21.232 99.9245 22.2228 100.71 23.3518 100.71ZM49.5 39.9956C38.5049 39.5194 35.7561 47.3369 35.7561 51.3051H62.0488C62.3936 51.3051 62.8047 51.3184 63.2439 51.3499C63.2439 47.7635 60.4951 40.4718 49.5 39.9956Z" fill="url(#paint0_linear_8_198)"/>
<path d="M30.3781 58.448C30.3781 61.7813 33.9635 62.2178 35.7561 62.0194H44.7195L47.6038 59.5568C48.3518 58.9182 49.4531 58.9182 50.2011 59.5568L53.0854 62.0194L62.0488 62.0196L65.0367 62.0195C66.3567 62.0195 67.4268 60.9542 67.4268 59.6393V53.0909C67.4268 51.9371 65.0881 51.4822 63.2439 51.3499C62.8047 51.3184 62.3936 51.3051 62.0488 51.3051H35.7561C32.5553 51.3051 31.0846 52.139 30.5734 52.76C30.4104 52.9578 30.3781 53.2204 30.3781 53.4763V58.448Z" fill="url(#paint1_linear_8_198)"/>
<path d="M18.4269 27.1148C18.4269 26.0102 17.5284 25.1008 16.444 24.8907C13.0271 24.2286 7.06227 21.9539 0.5 16.1862V47.6854C0.5 48.1069 0.606539 48.5251 0.846014 48.8726C3.9033 53.31 11.0894 55.2314 15.9411 55.848C17.291 56.0195 18.4269 54.936 18.4269 53.5805V37.0195V27.1148Z" fill="url(#paint2_linear_8_198)"/>
<path fill-rule="evenodd" clip-rule="evenodd" d="M16.444 24.8907C17.5284 25.1008 18.4269 26.0102 18.4269 27.1148V37.0195C21.5865 35.6426 41.5045 31.8474 49.3 32.2463C49.4378 32.2533 49.5579 32.2504 49.6954 32.2382C55.3979 31.7318 77.2938 34.6665 82.9634 37.0195V26.6004C82.9634 25.7183 83.5406 24.9441 84.3648 24.6297C87.531 23.422 93.1104 20.6568 97.9643 16.1862L97.9118 13.1551C97.9056 12.7994 97.8284 12.4484 97.6327 12.1509C94.9424 8.0608 82.1651 0.709961 49.5 0.709961C16.8625 0.709961 3.71078 8.41534 0.800369 12.712C0.584295 13.031 0.5 13.411 0.5 13.7958V16.1862C7.06227 21.9539 13.0271 24.2286 16.444 24.8907Z" fill="url(#paint3_linear_8_198)"/>
<path d="M97.9643 16.1862C93.1104 20.6568 87.531 23.422 84.3648 24.6297C83.5406 24.9441 82.9634 25.7183 82.9634 26.6004V37.0195V51.9448C82.9634 53.7773 84.9546 54.9229 86.5481 54.0071L97.2803 47.8395C98.033 47.407 98.4907 46.6016 98.4757 45.7361L97.9643 16.1862Z" fill="url(#paint4_linear_8_198)"/>
<path d="M57.8665 81.0671C50.6958 85.3528 43.7241 82.8528 41.1349 81.0671M57.8665 81.0671V72.7337M57.8665 81.0671C72.4745 81.0671 76.2705 91.6448 76.4556 98.5402M41.1349 81.0671V72.7337M41.1349 81.0671C23.7279 81.0671 20.5161 91.9187 21.1318 98.8044M57.8665 72.7337C59.2606 71.5433 62.0488 67.9718 62.0488 63.2099V62.0196M57.8665 72.7337C51.8903 76.9004 44.9194 74.5195 41.1349 72.7337M41.1349 72.7337C39.5411 71.9401 36.2342 68.9242 35.7561 63.2099V62.0194M35.7561 62.0194C33.9635 62.2178 30.3781 61.7813 30.3781 58.448M35.7561 62.0194H44.7195M30.3781 58.448V53.4763M30.3781 58.448C30.3781 55.7764 30.3781 54.2009 30.3781 53.4763M35.7561 51.3051C39.5805 51.3051 54.8781 51.3051 62.0488 51.3051M35.7561 51.3051C35.7561 47.3369 38.5049 39.5194 49.5 39.9956C60.4951 40.4718 63.2439 47.7635 63.2439 51.3499M35.7561 51.3051C32.5553 51.3051 31.0846 52.139 30.5734 52.76M35.7561 51.3051H62.0488M62.0488 51.3051C62.3936 51.3051 62.8047 51.3184 63.2439 51.3499M67.4268 53.0909C67.4268 51.9371 65.0881 51.4822 63.2439 51.3499M67.4268 53.0909V59.6393M67.4268 53.0909C67.4268 54.1366 67.4268 57.16 67.4268 59.6393M44.7195 62.0194H45.9147H53.0854M44.7195 62.0194L47.6038 59.5568C48.3518 58.9182 49.4531 58.9182 50.2011 59.5568L53.0854 62.0194M53.0854 62.0194L62.0488 62.0196M97.9643 16.1862C93.1104 20.6568 87.531 23.422 84.3648 24.6297C83.5406 24.9441 82.9634 25.7183 82.9634 26.6004V37.0195M97.9643 16.1862L97.9118 13.1551M97.9643 16.1862L98.4757 45.7361M0.5 16.1862C7.06227 21.9539 13.0271 24.2286 16.444 24.8907C17.5284 25.1008 18.4269 26.0102 18.4269 27.1148V37.0195M0.5 16.1862V47.6854M0.5 16.1862V13.7958M18.4269 37.0195C21.5865 35.6426 41.5045 31.8474 49.3 32.2463M18.4269 37.0195V53.5805M82.9634 37.0195V51.9448M82.9634 37.0195C77.2938 34.6665 55.3979 31.7318 49.6954 32.2382M33.3658 10.2338L38.8187 21.0971C39.2683 21.9928 40.5596 21.969 40.9756 21.0573L45.9146 10.2338M53.6829 23.329V11.4243C53.6829 10.7668 54.218 10.2338 54.878 10.2338H61.9016C61.9993 10.2338 62.0969 10.2444 62.1902 10.2734C64.507 10.9938 66.1131 15.0547 60.2561 17.9719C59.6681 18.2647 59.5409 19.0453 60.0058 19.5083L63.8414 23.329M62.0488 62.0196L65.0367 62.0195M74.2081 100.71H23.3518M74.2081 100.71C75.4444 100.71 76.4886 99.7712 76.4556 98.5402M74.2081 100.71H74.5651C75.5993 100.71 76.4718 99.9204 76.4619 98.8863C76.4608 98.772 76.4587 98.6566 76.4556 98.5402M23.3518 100.71C22.2228 100.71 21.232 99.9245 21.1318 98.8044M23.3518 100.71H23.0343C22.0903 100.71 21.2632 100.05 21.1621 99.1117C21.1512 99.0102 21.1411 98.9077 21.1318 98.8044M30.3781 53.4763C30.3781 53.2204 30.4104 52.9578 30.5734 52.76M30.3781 53.4763C30.3781 53.4557 30.3781 53.4358 30.3781 53.4166C30.3781 53.2008 30.4054 52.9793 30.5358 52.8074C30.5477 52.7918 30.5602 52.7759 30.5734 52.76M67.4268 59.6393C67.4268 60.9542 66.3567 62.0195 65.0367 62.0195M67.4268 59.6393C67.4268 59.7676 67.4268 59.8945 67.4268 60.0195C67.4268 61.1241 66.5314 62.0195 65.4269 62.0195L65.0367 62.0195M15.9411 55.848C11.0894 55.2314 3.9033 53.31 0.846014 48.8726M15.9411 55.848C17.291 56.0195 18.4269 54.936 18.4269 53.5805M15.9411 55.848C16.0779 55.8654 16.2129 55.8817 16.3458 55.897C17.4768 56.0275 18.4269 55.1172 18.4269 53.9787V53.5805M0.846014 48.8726C0.606539 48.5251 0.5 48.1069 0.5 47.6854M0.846014 48.8726C0.826723 48.8446 0.807595 48.8165 0.788634 48.7883C0.590409 48.4935 0.5 48.1418 0.5 47.7866V47.6854M0.5 13.7958C0.5 13.411 0.584295 13.031 0.800369 12.712M0.5 13.7958V13.7038C0.5 13.3794 0.573595 13.0564 0.751534 12.7853C0.76748 12.761 0.783757 12.7366 0.800369 12.712M0.800369 12.712C3.71078 8.41534 16.8625 0.709961 49.5 0.709961C82.1651 0.709961 94.9424 8.0608 97.6327 12.1509M97.6327 12.1509C97.8284 12.4484 97.9056 12.7994 97.9118 13.1551M97.6327 12.1509C97.6477 12.1737 97.6625 12.1965 97.6769 12.2192C97.8378 12.4722 97.9051 12.7704 97.9103 13.0702L97.9118 13.1551M98.4757 45.7361C98.4907 46.6016 98.033 47.407 97.2803 47.8395M98.4757 45.7361L98.4796 45.9582C98.4922 46.6864 98.1079 47.3639 97.4764 47.7268L97.2803 47.8395M97.2803 47.8395L86.5481 54.0071M86.5481 54.0071C84.9546 54.9229 82.9634 53.7773 82.9634 51.9448M86.5481 54.0071L85.96 54.3451C84.6266 55.1114 82.9634 54.1489 82.9634 52.6111V51.9448M49.6954 32.2382C49.5579 32.2504 49.4378 32.2533 49.3 32.2463M49.6954 32.2382C49.6876 32.2389 49.6798 32.2396 49.672 32.2403C49.5575 32.2508 49.4423 32.2538 49.3275 32.2477C49.3183 32.2472 49.3092 32.2468 49.3 32.2463" stroke="black" stroke-opacity="0.5"/>
<defs>
<linearGradient id="paint0_linear_8_198" x1="-54.3508" y1="-10.857" x2="120.636" y2="56.5124" gradientUnits="userSpaceOnUse">
<stop offset="0.51" stop-color="#FFF4E8"/>
<stop offset="1" stop-color="#FFE4FF"/>
</linearGradient>
<linearGradient id="paint1_linear_8_198" x1="-54.3508" y1="-10.857" x2="120.636" y2="56.5124" gradientUnits="userSpaceOnUse">
<stop offset="0.51" stop-color="#FFF4E8"/>
<stop offset="1" stop-color="#FFE4FF"/>
</linearGradient>
<linearGradient id="paint2_linear_8_198" x1="-54.3508" y1="-10.857" x2="120.636" y2="56.5124" gradientUnits="userSpaceOnUse">
<stop offset="0.51" stop-color="#FFF4E8"/>
<stop offset="1" stop-color="#FFE4FF"/>
</linearGradient>
<linearGradient id="paint3_linear_8_198" x1="-54.3508" y1="-10.857" x2="120.636" y2="56.5124" gradientUnits="userSpaceOnUse">
<stop offset="0.51" stop-color="#FFF4E8"/>
<stop offset="1" stop-color="#FFE4FF"/>
</linearGradient>
<linearGradient id="paint4_linear_8_198" x1="-54.3508" y1="-10.857" x2="120.636" y2="56.5124" gradientUnits="userSpaceOnUse">
<stop offset="0.51" stop-color="#FFF4E8"/>
<stop offset="1" stop-color="#FFE4FF"/>
</linearGradient>
</defs>
</svg>
