<svg width="102" height="95" viewBox="0 0 102 95" fill="none" xmlns="http://www.w3.org/2000/svg">
<path fill-rule="evenodd" clip-rule="evenodd" d="M6.91716 75.2353H19.3432H28.0321C28.5749 70.3825 30.9252 65.9235 36.503 63.3151C37.2919 54.9711 41.355 38.164 51.2959 37.6872C61.2367 37.2104 65.2998 54.5738 66.0888 63.3151C69.191 65.3982 73.1715 69.5892 74.6877 75.2353H83.2485H95.6746C99.4615 75.2353 100.803 71.6593 101 69.8713V6.69558C101 1.45081 96.2663 0.536943 93.8994 0.735609H6.91716C2.6568 0.735609 1.19724 4.70892 1 6.69558V15.6353V69.8713C1 73.6857 4.94477 75.0366 6.91716 75.2353ZM11.0592 7.88735L9.87574 6.69535L8.69231 7.88735L9.87574 9.07934L11.0592 7.88735ZM18.1598 7.88735L16.9763 6.69535L15.7929 7.88735L16.9763 9.07934L18.1598 7.88735ZM25.8521 7.88735L24.6686 6.69535L23.4852 7.88735L24.6686 9.07934L25.8521 7.88735Z" fill="url(#paint0_linear_8_20)"/>
<path fill-rule="evenodd" clip-rule="evenodd" d="M51.2959 37.6872C41.355 38.164 37.2919 54.9711 36.503 63.3151C36.7002 68.8777 37.4497 80.8374 38.8698 84.175H43.6035H58.9882H63.7219C65.6154 79.8838 66.0888 68.4804 66.0888 63.3151C65.2998 54.5738 61.2367 37.2104 51.2959 37.6872ZM56.0296 59.1431C56.0296 55.8055 52.8738 54.5738 51.2959 54.3751C49.7179 54.5738 46.5621 55.8055 46.5621 59.1431C46.5621 62.4807 49.7179 63.7124 51.2959 63.9111C52.8738 63.7124 56.0296 62.4807 56.0296 59.1431Z" fill="url(#paint1_linear_8_20)"/>
<path d="M66.0888 63.3151C66.0888 68.4804 65.6154 79.8838 63.7219 84.175L69.2923 92.3359C69.7523 93.0099 70.7345 93.0268 71.1856 92.3467C75.4867 85.8614 75.9739 80.0248 74.6877 75.2353C73.1715 69.5892 69.191 65.3982 66.0888 63.3151Z" fill="url(#paint2_linear_8_20)"/>
<path d="M38.8698 84.175C37.4497 80.8374 36.7002 68.8777 36.503 63.3151C30.9252 65.9235 28.5749 70.3825 28.0321 75.2353C27.3755 81.1062 29.3645 87.5534 31.4848 91.9971C31.8659 92.7958 32.9474 92.8518 33.4458 92.1216L38.8698 84.175Z" fill="url(#paint3_linear_8_20)"/>
<path fill-rule="evenodd" clip-rule="evenodd" d="M9.87574 6.69535L11.0592 7.88735L9.87574 9.07934L8.69231 7.88735L9.87574 6.69535ZM16.9763 6.69535L18.1598 7.88735L16.9763 9.07934L15.7929 7.88735L16.9763 6.69535ZM24.6686 6.69535L25.8521 7.88735L24.6686 9.07934L23.4852 7.88735L24.6686 6.69535ZM56.0296 59.1431C56.0296 55.8055 52.8738 54.5738 51.2959 54.3751C49.7179 54.5738 46.5621 55.8055 46.5621 59.1431C46.5621 62.4807 49.7179 63.7124 51.2959 63.9111C52.8738 63.7124 56.0296 62.4807 56.0296 59.1431Z" fill="url(#paint4_linear_8_20)"/>
<path d="M58.9882 84.175H43.6035C43.998 86.3603 44.9053 90.8502 45.3787 91.327C45.4363 91.385 45.4996 91.4544 45.5706 91.5323C46.229 92.2543 47.5573 93.7109 51.2959 93.7109C54.5086 93.7109 56.1268 92.2169 56.5819 91.4017C56.6093 91.3525 56.6302 91.3001 56.6479 91.2466L58.9882 84.175Z" fill="url(#paint5_linear_8_20)"/>
<path d="M1 69.8713C1 73.6857 4.94477 75.0366 6.91716 75.2353H19.3432H28.0321M1 69.8713C1 66.5759 1 36.3532 1 15.6353M1 69.8713V15.6353M1 6.69558C1.19724 4.70892 2.6568 0.735609 6.91716 0.735609M1 6.69558C1 9.3448 1 12.3722 1 15.6353M1 6.69558V15.6353M6.91716 0.735609C11.1775 0.735609 66.6805 0.735609 93.8994 0.735609M6.91716 0.735609H93.8994M93.8994 0.735609C96.2663 0.536943 101 1.45081 101 6.69558M101 6.69558C101 11.9404 101 50.998 101 69.8713M101 6.69558V69.8713M101 69.8713C100.803 71.6593 99.4615 75.2353 95.6746 75.2353M95.6746 75.2353C91.8876 75.2353 85.8126 75.2353 83.2485 75.2353M95.6746 75.2353H83.2485M83.2485 75.2353H74.6877M92.1243 11.4633H37.0947C35.9112 11.4633 33.426 11.7017 32.9527 12.6553C32.3609 13.8473 30.5858 15.6353 25.8521 15.6353C22.0651 15.6353 7.70611 15.6353 1 15.6353M63.7219 84.175C65.6154 79.8838 66.0888 68.4804 66.0888 63.3151M63.7219 84.175H58.9882M63.7219 84.175L69.2923 92.3359M38.8698 84.175C37.4497 80.8374 36.7002 68.8777 36.503 63.3151M38.8698 84.175H43.6036M38.8698 84.175L33.4458 92.1216M36.503 63.3151C37.2919 54.9711 41.355 38.164 51.2959 37.6872C61.2367 37.2104 65.2998 54.5738 66.0888 63.3151M36.503 63.3151C30.9252 65.9235 28.5749 70.3825 28.0321 75.2353M66.0888 63.3151C69.191 65.3982 73.1716 69.5892 74.6877 75.2353M58.9882 84.175H43.6036M58.9882 84.175L56.6479 91.2466M43.6036 84.175C43.998 86.3603 44.9053 90.8502 45.3787 91.327C45.4363 91.385 45.4996 91.4544 45.5706 91.5323C46.229 92.2543 47.5573 93.7109 51.2959 93.7109C54.5086 93.7109 56.1268 92.2169 56.5819 91.4017M28.0321 75.2353C27.3755 81.1062 29.3645 87.5534 31.4848 91.9971M74.6877 75.2353C75.9739 80.0248 75.4867 85.8614 71.1856 92.3467M71.1856 92.3467C70.7345 93.0268 69.7523 93.0099 69.2923 92.3359M71.1856 92.3467C70.886 92.7983 70.568 92.0611 70.2308 92.5189L69.2923 92.3359M56.6479 91.2466C56.6302 91.3001 56.6093 91.3525 56.5819 91.4017M56.6479 91.2466L56.6213 91.327C56.6093 91.3511 56.5962 91.3761 56.5819 91.4017M33.4458 92.1216C32.9474 92.8518 31.8659 92.7958 31.4848 91.9971M33.4458 92.1216L32.4149 92.1528C32.1248 91.6239 31.7765 92.6086 31.4848 91.9971M9.87574 6.69535L11.0592 7.88735L9.87574 9.07934L8.69231 7.88735L9.87574 6.69535ZM16.9763 6.69535L18.1598 7.88735L16.9763 9.07934L15.7929 7.88735L16.9763 6.69535ZM24.6686 6.69535L25.8521 7.88735L24.6686 9.07934L23.4852 7.88735L24.6686 6.69535ZM51.2959 54.3751C52.8738 54.5738 56.0296 55.8055 56.0296 59.1431C56.0296 62.4807 52.8738 63.7124 51.2959 63.9111C49.7179 63.7124 46.5621 62.4807 46.5621 59.1431C46.5621 55.8055 49.7179 54.5738 51.2959 54.3751Z" stroke="black" stroke-opacity="0.5"/>
<defs>
<linearGradient id="paint0_linear_8_20" x1="-54.9702" y1="-10.0463" x2="119.008" y2="63.4466" gradientUnits="userSpaceOnUse">
<stop offset="0.51" stop-color="#FFF4E8"/>
<stop offset="1" stop-color="#FFE4FF"/>
</linearGradient>
<linearGradient id="paint1_linear_8_20" x1="-54.9702" y1="-10.0463" x2="119.008" y2="63.4466" gradientUnits="userSpaceOnUse">
<stop offset="0.51" stop-color="#FFF4E8"/>
<stop offset="1" stop-color="#FFE4FF"/>
</linearGradient>
<linearGradient id="paint2_linear_8_20" x1="-54.9702" y1="-10.0463" x2="119.008" y2="63.4466" gradientUnits="userSpaceOnUse">
<stop offset="0.51" stop-color="#FFF4E8"/>
<stop offset="1" stop-color="#FFE4FF"/>
</linearGradient>
<linearGradient id="paint3_linear_8_20" x1="-54.9702" y1="-10.0463" x2="119.008" y2="63.4466" gradientUnits="userSpaceOnUse">
<stop offset="0.51" stop-color="#FFF4E8"/>
<stop offset="1" stop-color="#FFE4FF"/>
</linearGradient>
<linearGradient id="paint4_linear_8_20" x1="-54.9702" y1="-10.0463" x2="119.008" y2="63.4466" gradientUnits="userSpaceOnUse">
<stop offset="0.51" stop-color="#FFF4E8"/>
<stop offset="1" stop-color="#FFE4FF"/>
</linearGradient>
<linearGradient id="paint5_linear_8_20" x1="-54.9702" y1="-10.0463" x2="119.008" y2="63.4466" gradientUnits="userSpaceOnUse">
<stop offset="0.51" stop-color="#FFF4E8"/>
<stop offset="1" stop-color="#FFE4FF"/>
</linearGradient>
</defs>
</svg>
