<svg width="1943" height="398" viewBox="0 0 1943 398" fill="none" xmlns="http://www.w3.org/2000/svg">
<path d="M155.492 120.794C160.723 104.627 172.927 91.6293 178.316 85.6062C230.623 122.696 358.535 275.81 290.537 325.263C236.159 364.811 174.399 315.789 150.288 286.304C150.279 286.293 150.27 286.283 150.261 286.272L171.519 268.284L181.17 259.67C190.838 268.863 204.47 285.645 221.112 292.453C231.574 296.733 270.09 312.213 266.761 268.942C265.125 247.674 237.755 209.239 208.625 175.39C208.316 175.044 208.006 174.698 207.696 174.353C188.93 153.447 169.563 134.023 155.492 120.794Z" fill="url(#paint0_linear_2931_620)"/>
<path d="M237.28 143.143L262.957 175.953C306.324 132.206 311.585 82.4963 309.049 63.0004C297.39 -12.1753 200.765 -1.36416 145.886 57.7931C142.687 61.2418 139.63 64.8547 136.739 68.6246C132.406 74.277 128.388 79.9 124.949 86.6144C123.463 89.3043 122.06 92.0534 120.746 94.8596C87.2705 166.376 111.331 232.362 127.182 255.662L158.697 226.833C130.547 167.869 154.596 114.233 170.288 94.8959C187.089 74.6075 227.926 37.7983 257.218 53.0146C286.509 68.231 256.934 118.575 237.28 143.143Z" fill="url(#paint1_linear_2931_620)"/>
<path d="M71.2566 57.8151C82.2884 63.1408 109.553 82.7515 122.074 92.1032C122.994 90.2476 123.953 88.4175 124.949 86.6144C130.03 77.219 134.569 72.2919 136.739 68.6246C139.63 64.8547 142.687 61.2418 145.886 57.7931C106.251 23.399 23.5123 -25.5726 9.44022 53.5355C-4.6349 132.66 0.0885088 230.108 4.2096 268.942C6.58715 301.118 24.8468 359.194 78.8648 334.087C101.006 323.796 126.205 305.972 150.288 286.304C150.279 286.293 150.27 286.283 150.261 286.272L171.519 268.284C197.787 245.182 221.137 221.786 235.062 206.749L222.063 190.694L208.625 175.39C208.316 175.044 208.006 174.698 207.696 174.353C194.236 190.125 176.954 208.983 158.697 226.833C112.696 268.942 53.0713 315.838 45.579 268.942C32.7402 188.581 47.9566 78.2621 48.4321 71.1294C48.9076 63.9967 57.4668 51.158 71.2566 57.8151Z" fill="url(#paint2_linear_2931_620)"/>
<path d="M234.903 207.337L207.798 174.527C202.853 180.994 189.57 195.291 183.547 201.631L211.127 231.588L234.903 207.337Z" fill="url(#paint3_linear_2931_620)"/>
<path d="M109.367 214.47L147.883 193.547C147.883 193.547 150.027 204.166 152.163 210.665C154.299 217.165 158.82 226.833 158.82 226.833C158.82 226.833 149.918 235.62 143.604 241.098C137.29 246.576 126.485 254.888 126.485 254.888C122.206 247.28 116.024 238.245 109.367 214.47Z" fill="url(#paint4_linear_2931_620)"/>
<path d="M210.651 114.137L183.072 147.898C183.072 147.898 174.037 138.863 169.282 133.633C164.68 128.571 155.206 121.268 155.206 121.268C155.206 121.268 161.18 110.278 165.636 103.206C170.092 96.1331 178.316 85.6061 178.316 85.6061C184.617 91.648 193.057 94.6409 210.651 114.137Z" fill="url(#paint5_linear_2931_620)"/>
<path d="M111.269 32.349L87.4934 67.5368C87.4934 67.5368 97.9439 74.3157 103.661 78.4735C108.891 82.2776 122.206 92.2633 122.206 92.2633C122.206 92.2633 128.381 81.497 133.226 74.685C139.324 66.1102 145.981 57.551 145.981 57.551C139.324 52.3204 134.093 46.6143 111.269 32.349Z" fill="url(#paint6_linear_2931_620)"/>
<path d="M292.914 135.535L260.579 106.053C260.579 106.053 255.824 116.514 250.594 124.598C247.08 130.028 237.553 143.408 237.553 143.408C237.553 143.408 245.28 152.382 250.594 158.835C257.251 166.918 262.957 175.953 262.957 175.953C269.589 170.691 280.551 156.933 292.914 135.535Z" fill="url(#paint7_linear_2931_620)"/>
<path d="M185.925 318.606L213.029 288.174C213.029 288.174 203.043 281.517 196.861 275.335L181.169 259.643C181.169 259.643 173.195 266.977 166.904 272.482C159.296 279.139 150.261 286.272 150.261 286.272C155.338 293.047 165.812 304.341 185.925 318.606Z" fill="url(#paint8_linear_2931_620)"/>
<path d="M467.494 186.4L410.294 244.4V318H380.694V38H410.294V207.2L574.694 38H608.694L487.494 164.8L617.094 318H581.894L467.494 186.4ZM682.363 148.8C689.029 134.667 698.896 124 711.963 116.8C725.296 109.6 741.696 106 761.163 106V133.6L754.363 133.2C732.229 133.2 714.896 140 702.363 153.6C689.829 167.2 683.563 186.267 683.563 210.8V318H655.163V107.6H682.363V148.8ZM812.584 107.6H840.984V318H812.584V107.6ZM826.984 61.6C821.118 61.6 816.184 59.6 812.184 55.6C808.184 51.6 806.184 46.8 806.184 41.2C806.184 35.8667 808.184 31.2 812.184 27.2C816.184 23.2 821.118 21.2 826.984 21.2C832.851 21.2 837.784 23.2 841.784 27.2C845.784 30.9333 847.784 35.4666 847.784 40.8C847.784 46.6667 845.784 51.6 841.784 55.6C837.784 59.6 832.851 61.6 826.984 61.6ZM1109.61 107.6V292.4C1109.61 328.133 1101.47 354.533 1085.21 371.6C1068.94 388.933 1044.41 397.6 1011.61 397.6C993.206 397.6 975.74 394.667 959.206 388.8C942.94 383.2 929.74 375.333 919.606 365.2L934.006 343.6C943.073 352.667 954.273 359.733 967.606 364.8C980.94 369.867 995.206 372.4 1010.41 372.4C1034.67 372.4 1052.54 366.133 1064.01 353.6C1075.47 341.333 1081.21 322.133 1081.21 296V271.6C1073.74 283.867 1063.47 293.333 1050.41 300C1037.61 306.667 1023.07 310 1006.81 310C979.34 310 957.606 302.4 941.606 287.2C925.873 271.733 918.006 249.2 918.006 219.6V107.6H946.406V216.8C946.406 238.933 951.873 255.733 962.806 267.2C973.74 278.667 989.34 284.4 1009.61 284.4C1031.74 284.4 1049.21 277.733 1062.01 264.4C1074.81 250.8 1081.21 232 1081.21 208V107.6H1109.61ZM1275.15 320C1254.88 320 1236.61 315.467 1220.35 306.4C1204.08 297.067 1191.28 284.267 1181.95 268C1172.61 251.733 1167.95 233.333 1167.95 212.8C1167.95 192.267 1172.61 173.867 1181.95 157.6C1191.28 141.333 1204.08 128.667 1220.35 119.6C1236.61 110.533 1254.88 106 1275.15 106C1295.41 106 1313.68 110.533 1329.95 119.6C1346.21 128.667 1358.88 141.333 1367.95 157.6C1377.28 173.867 1381.95 192.267 1381.95 212.8C1381.95 233.333 1377.28 251.733 1367.95 268C1358.88 284.267 1346.21 297.067 1329.95 306.4C1313.68 315.467 1295.41 320 1275.15 320ZM1275.15 294.8C1290.08 294.8 1303.41 291.467 1315.15 284.8C1327.15 277.867 1336.48 268.133 1343.15 255.6C1349.81 243.067 1353.15 228.8 1353.15 212.8C1353.15 196.8 1349.81 182.533 1343.15 170C1336.48 157.467 1327.15 147.867 1315.15 141.2C1303.41 134.267 1290.08 130.8 1275.15 130.8C1260.21 130.8 1246.75 134.267 1234.75 141.2C1223.01 147.867 1213.68 157.467 1206.75 170C1200.08 182.533 1196.75 196.8 1196.75 212.8C1196.75 228.8 1200.08 243.067 1206.75 255.6C1213.68 268.133 1223.01 277.867 1234.75 284.8C1246.75 291.467 1260.21 294.8 1275.15 294.8ZM1547.13 106C1573.53 106 1594.46 113.733 1609.93 129.2C1625.66 144.4 1633.53 166.667 1633.53 196V318H1605.13V198.8C1605.13 176.933 1599.66 160.267 1588.73 148.8C1577.79 137.333 1562.19 131.6 1541.93 131.6C1519.26 131.6 1501.26 138.4 1487.93 152C1474.86 165.333 1468.33 183.867 1468.33 207.6V318H1439.93V107.6H1467.13V146.4C1474.86 133.6 1485.53 123.733 1499.13 116.8C1512.99 109.6 1528.99 106 1547.13 106ZM1903.41 107.6V318H1876.21V276.4C1867.68 290.533 1856.35 301.333 1842.21 308.8C1828.35 316.267 1812.61 320 1795.01 320C1775.28 320 1757.41 315.467 1741.41 306.4C1725.41 297.333 1712.88 284.667 1703.81 268.4C1694.75 252.133 1690.21 233.6 1690.21 212.8C1690.21 192 1694.75 173.467 1703.81 157.2C1712.88 140.933 1725.41 128.4 1741.41 119.6C1757.41 110.533 1775.28 106 1795.01 106C1812.08 106 1827.41 109.6 1841.01 116.8C1854.88 123.733 1866.21 134 1875.01 147.6V107.6H1903.41ZM1797.41 294.8C1812.08 294.8 1825.28 291.467 1837.01 284.8C1849.01 277.867 1858.35 268.133 1865.01 255.6C1871.95 243.067 1875.41 228.8 1875.41 212.8C1875.41 196.8 1871.95 182.533 1865.01 170C1858.35 157.467 1849.01 147.867 1837.01 141.2C1825.28 134.267 1812.08 130.8 1797.41 130.8C1782.48 130.8 1769.01 134.267 1757.01 141.2C1745.28 147.867 1735.95 157.467 1729.01 170C1722.35 182.533 1719.01 196.8 1719.01 212.8C1719.01 228.8 1722.35 243.067 1729.01 255.6C1735.95 268.133 1745.28 277.867 1757.01 284.8C1769.01 291.467 1782.48 294.8 1797.41 294.8Z" fill="black"/>
<defs>
<linearGradient id="paint0_linear_2931_620" x1="342.368" y1="83.2286" x2="1.97485e-05" y2="296.257" gradientUnits="userSpaceOnUse">
<stop stop-color="#B71678"/>
<stop offset="0.620181" stop-color="#562DF7"/>
<stop offset="1" stop-color="#0AADEF"/>
</linearGradient>
<linearGradient id="paint1_linear_2931_620" x1="342.368" y1="83.2286" x2="1.97485e-05" y2="296.257" gradientUnits="userSpaceOnUse">
<stop stop-color="#B71678"/>
<stop offset="0.620181" stop-color="#562DF7"/>
<stop offset="1" stop-color="#0AADEF"/>
</linearGradient>
<linearGradient id="paint2_linear_2931_620" x1="342.368" y1="83.2286" x2="1.97485e-05" y2="296.257" gradientUnits="userSpaceOnUse">
<stop stop-color="#B71678"/>
<stop offset="0.620181" stop-color="#562DF7"/>
<stop offset="1" stop-color="#0AADEF"/>
</linearGradient>
<linearGradient id="paint3_linear_2931_620" x1="220.575" y1="190.09" x2="198.117" y2="211.607" gradientUnits="userSpaceOnUse">
<stop stop-opacity="0.6"/>
<stop offset="1" stop-opacity="0"/>
</linearGradient>
<linearGradient id="paint4_linear_2931_620" x1="140.479" y1="240.343" x2="121.655" y2="213.515" gradientUnits="userSpaceOnUse">
<stop stop-opacity="0.6"/>
<stop offset="1" stop-opacity="0"/>
</linearGradient>
<linearGradient id="paint5_linear_2931_620" x1="170.148" y1="102.901" x2="195.438" y2="125.403" gradientUnits="userSpaceOnUse">
<stop stop-opacity="0.6"/>
<stop offset="1" stop-opacity="0"/>
</linearGradient>
<linearGradient id="paint6_linear_2931_620" x1="133.118" y1="71.8059" x2="102.628" y2="55.9774" gradientUnits="userSpaceOnUse">
<stop stop-opacity="0.6"/>
<stop offset="1" stop-opacity="0"/>
</linearGradient>
<linearGradient id="paint7_linear_2931_620" x1="253.438" y1="157.133" x2="279.962" y2="133.417" gradientUnits="userSpaceOnUse">
<stop stop-opacity="0.6"/>
<stop offset="1" stop-opacity="0"/>
</linearGradient>
<linearGradient id="paint8_linear_2931_620" x1="167.381" y1="276.093" x2="192.108" y2="300.82" gradientUnits="userSpaceOnUse">
<stop stop-opacity="0.6"/>
<stop offset="1" stop-opacity="0"/>
</linearGradient>
</defs>
</svg>
