<svg width="186" height="65" viewBox="0 0 186 65" fill="none" xmlns="http://www.w3.org/2000/svg">
<mask id="mask0_0_2161" style="mask-type:luminance" maskUnits="userSpaceOnUse" x="21" y="15" width="144" height="35">
<path d="M164.756 15.2722H21.2744V49.7232H164.756V15.2722Z" fill="white"/>
</mask>
<g mask="url(#mask0_0_2161)">
<path d="M43.843 16.6101L34.7498 25.7051H43.843V16.6101ZM43.843 16.6101V19.1001M34.7287 15.2722V49.7232M43.843 34.7983L34.7498 25.7032M43.843 34.7983V47.8369L34.7498 38.7419M43.843 34.7983L34.7488 25.7032M43.843 34.7983L43.8422 38.6893H47.7447V25.7032H34.7488M34.7498 25.7032V38.7419M34.7498 25.7032L25.6555 34.7983M34.7498 38.7419L25.6555 47.8369V34.7983M34.7488 25.7032H21.7529V38.6893H25.6546L25.6555 34.7983M34.7488 25.7032L25.6555 34.7983M34.7488 25.7051L25.6546 16.6101V25.7051H34.7488Z" stroke="#20808D" stroke-miterlimit="10"/>
<path d="M74.3881 27.7396C74.9559 26.6784 75.7497 25.8611 76.7736 25.286C77.7954 24.7127 78.9944 24.4256 80.3695 24.4256C81.7451 24.4256 82.8837 24.7079 83.8366 25.2735C84.7905 25.8391 85.504 26.5884 85.976 27.5214C86.4483 28.4555 86.6849 29.4784 86.6849 30.5905V32.1312H75.9862C76.0725 33.4671 76.5236 34.5293 77.3397 35.3169C78.1555 36.1055 79.2512 36.4986 80.6274 36.4986C81.744 36.4986 82.6003 36.272 83.1919 35.8185C83.7858 35.3648 84.2187 34.7361 84.4946 33.9303H86.9441C86.6178 35.1801 85.9522 36.2642 84.9464 37.1802C83.942 38.0969 82.5015 38.5543 80.6285 38.5543C79.2185 38.5543 77.9765 38.2673 76.9018 37.6941C75.8282 37.1209 74.9979 36.3026 74.414 35.2404C73.8298 34.1781 73.5375 32.9283 73.5375 31.4891C73.5375 30.0498 73.8209 28.8009 74.3888 27.7387L74.3881 27.7396ZM84.1075 30.2048C84.1075 29.0402 83.8067 28.1291 83.2054 27.4688C82.6042 26.8094 81.6588 26.4802 80.3688 26.4802C79.1659 26.4802 78.1814 26.8008 77.4172 27.4429C76.6518 28.0851 76.1837 29.0067 76.0122 30.2048H84.1075ZM89.8987 24.8103V26.9425C89.8987 27.063 89.959 27.1224 90.0798 27.1224C90.1487 27.1224 90.1995 27.1052 90.235 27.0707C90.2705 27.0363 90.3039 26.9683 90.3373 26.8659C90.7837 25.462 91.8928 24.7596 93.6636 24.7596H94.7973V27.0707H93.3273C92.1752 27.0707 91.3161 27.3444 90.7482 27.8927C90.1803 28.4411 89.8969 29.3397 89.8969 30.5905V38.1686H87.5763V24.8094H89.8987V24.8103ZM108.422 35.3552C107.813 36.4251 107.021 37.226 106.05 37.7563C105.079 38.2865 104.034 38.5525 102.918 38.5525C100.718 38.5525 99.1703 37.6796 98.2767 35.9321C98.2078 35.7965 98.1215 35.7276 98.0192 35.7276C97.9166 35.7276 97.864 35.7791 97.864 35.8817V43.0482H95.5435V24.8113H97.864V27.0975C97.864 27.1999 97.9155 27.2516 98.0192 27.2516C98.1226 27.2516 98.2078 27.1827 98.2767 27.0468C99.1703 25.2993 100.718 24.4266 102.918 24.4266C104.034 24.4266 105.079 24.6926 106.05 25.2228C107.021 25.753 107.812 26.5539 108.422 27.6248C109.033 28.6947 109.338 29.9847 109.338 31.49C109.338 32.9953 109.033 34.2844 108.422 35.3552ZM105.741 27.8028C104.89 26.9205 103.768 26.4793 102.377 26.4793C100.985 26.4793 99.8625 26.9205 99.0122 27.8028C98.1609 28.6851 97.8488 29.9139 97.8488 31.4891C97.8488 33.0642 98.1609 34.2939 99.0122 35.1753C99.8635 36.0575 100.985 36.4986 102.377 36.4986C103.768 36.4986 104.89 36.0586 105.741 35.1753C106.592 34.293 107.017 33.0642 107.017 31.4891C107.017 29.9139 106.592 28.6851 105.741 27.8028ZM112.705 19.6724V38.1679H110.385V19.6742H112.705V19.6724ZM114.616 27.7387C115.183 26.6774 115.978 25.8601 117.001 25.285C118.023 24.7118 119.223 24.4247 120.597 24.4247C121.971 24.4247 123.112 24.707 124.064 25.2725C125.018 25.8381 125.732 26.5874 126.204 27.5205C126.677 28.4545 126.913 29.4775 126.913 30.5895V32.1302H116.214C116.3 33.4662 116.751 34.5284 117.568 35.316C118.383 36.1044 119.479 36.4979 120.855 36.4979C121.972 36.4979 122.827 36.271 123.42 35.8174C124.014 35.3638 124.447 34.7351 124.722 33.9293H127.172C126.846 35.1791 126.179 36.2635 125.175 37.1791C124.17 38.0962 122.729 38.5533 120.856 38.5533C119.447 38.5533 118.204 38.2663 117.13 37.693C116.056 37.1198 115.226 36.3015 114.642 35.2394C114.058 34.1772 113.766 32.9274 113.766 31.4881C113.766 30.0488 114.049 28.8 114.617 27.7377H114.616V27.7387ZM124.336 30.2038C124.336 29.0392 124.035 28.1282 123.433 27.4678C122.832 26.8085 121.887 26.4793 120.597 26.4793C119.395 26.4793 118.409 26.7999 117.645 27.442C116.88 28.0841 116.413 29.0057 116.24 30.2038H124.336ZM125.88 37.654L131.191 31.1024L126.834 25.3233V24.8094H129.386L133.023 29.7923L136.942 24.8094H139.545V25.3491L134.544 31.4891L139.159 37.654V38.1679H136.658L132.713 32.7992L128.486 38.1679H125.882V37.654H125.88ZM142.914 20.4619V23.3529H140.204V20.4619H142.914ZM142.773 38.1686H140.452V24.8103H142.773V38.1686ZM143.505 24.8103H146.029V21.214H148.351V24.8103H151.007L151.659 26.7683H148.351V33.159C148.351 34.0317 148.329 34.6786 148.285 35.0987C148.243 35.5187 148.222 35.7716 148.222 35.8568C148.222 35.9772 148.255 36.071 148.324 36.1388C148.393 36.2077 148.487 36.2415 148.608 36.2415C148.694 36.2415 148.947 36.2202 149.369 36.1772C149.789 36.1342 150.438 36.1133 151.316 36.1133H152.218V38.1679H150.414C148.935 38.1679 147.834 37.8088 147.113 37.0882C146.392 36.3686 146.03 35.2739 146.03 33.8001V26.7674H143.507V24.8094H143.505V24.8103ZM151.706 24.8103H154.072L157.913 36.0174C157.966 36.1552 158.047 36.336 158.311 36.336C158.574 36.336 158.656 36.1541 158.707 36.0174L162.548 24.8103H164.755V25.3242L159.949 39.7352C159.537 40.9687 158.957 41.8293 158.21 42.3173C157.462 42.8053 156.594 43.0493 155.148 43.0493H152.674V40.9947H154.556C155.158 40.9947 155.647 41.0156 156.026 41.0589C156.403 41.1019 156.644 41.1229 156.748 41.1229C157.04 41.1229 157.237 40.9947 157.342 40.7382L158.064 38.7859C158.15 38.5813 158.158 38.4272 158.089 38.3228C158.055 38.2539 158.013 38.2109 157.961 38.1945C157.909 38.1775 157.832 38.1686 157.729 38.1686H156.157L151.708 24.8113H151.706V24.8103ZM72.0625 35.3772C71.4527 36.4471 70.6614 37.248 69.6904 37.7783C68.7195 38.3085 67.6746 38.5746 66.558 38.5746C64.3582 38.5746 62.8104 37.7016 61.9169 35.9542C61.848 35.8185 61.7617 35.7496 61.6594 35.7496C61.5567 35.7496 61.5042 35.8011 61.5042 35.9037V43.0702H59.1836V24.8333H61.5042V27.1195C61.5042 27.2219 61.5557 27.2736 61.6594 27.2736C61.7627 27.2736 61.848 27.2047 61.9169 27.0688C62.8094 25.3214 64.3582 24.4486 66.558 24.4486C67.6746 24.4486 68.7195 24.7146 69.6904 25.2448C70.6614 25.775 71.4516 26.576 72.0625 27.6459C72.6727 28.7158 72.9781 30.0057 72.9781 31.512C72.9781 33.0183 72.6727 34.3073 72.0625 35.3772ZM69.3811 27.8248C68.5298 26.9425 67.4082 26.5013 66.0167 26.5013C64.6253 26.5013 63.5026 26.9425 62.6524 27.8248C61.8011 28.7071 61.4889 29.9359 61.4889 31.511C61.4889 33.0862 61.8011 34.3159 62.6524 35.1973C63.5037 36.0795 64.6253 36.5206 66.0167 36.5206C67.4082 36.5206 68.5305 36.0806 69.3811 35.1973C70.2324 34.315 70.6579 33.0862 70.6579 31.511C70.6579 29.9359 70.2324 28.7071 69.3811 27.8248Z" fill="#13343B"/>
</g>
</svg>
